<svg width="123" height="38" viewBox="0 0 123 38" fill="none" xmlns="http://www.w3.org/2000/svg">
          <g class="dgraph-logo-fill">
            <path
              d="M38.4186 29.078V8.89143H45.2389C49.7735 8.89143 52.8149 11.3172 52.8149 17.784V20.1854C52.8149 26.6522 49.7735 29.078 45.2389 29.078H38.4186ZM49.42 20.1854V17.784C49.42 13.6272 48.134 11.8475 45.2389 11.8475H41.8135V26.1524H45.2389C48.134 26.1524 49.42 24.3361 49.42 20.1854Z"
              fill="currentColor"
            ></path>
            <path
              d="M57.5567 34.8134V32.0219H61.2381C63.5786 32.0219 64.6025 31.1564 64.6025 28.7854V28.115C63.8102 28.9317 62.64 29.3462 61.0918 29.3462C57.2032 29.3462 55.2711 26.5669 55.2711 22.7331V20.7462C55.2711 16.5345 57.5506 14.1941 61.0918 14.1941C62.6704 14.1941 63.8102 14.6634 64.6025 15.4801V14.4561H67.7049V28.7915C67.7049 33.2957 65.1328 34.8195 61.3295 34.8195H57.5628L57.5567 34.8134ZM64.6025 22.5808V20.8864C64.6025 18.3691 63.5786 16.9063 61.5002 16.9063C59.4218 16.9063 58.3674 18.3387 58.3674 20.8864V22.5808C58.3674 24.8603 59.245 26.6461 61.5002 26.6461C63.7553 26.6461 64.6025 24.8603 64.6025 22.5808Z"
              fill="currentColor"
            ></path>
            <path d="M80.1377 16.9677H76.8891C75.3105 16.9677 74.1951 18.138 74.1951 20.2468V29.0846H71.0623V14.4505H74.1341V15.767C74.6888 14.9198 75.6823 14.1884 77.4132 14.1884H80.1377V16.9677Z" fill="currentColor"></path>
            <path
              d="M83.0093 14.1884H85.941C89.6833 14.1884 91.7068 15.3587 91.7068 19.2473V29.0785H88.6349V27.7315C87.934 28.8712 87.0259 29.3405 85.24 29.3405C82.0219 29.3405 80.0349 27.701 80.0349 24.7754C80.0349 21.6426 82.3449 20.448 85.4777 20.448H88.6349V19.2168C88.6349 17.3761 87.934 16.9677 85.7398 16.9677H83.0032V14.1884H83.0093ZM88.641 22.8494H85.7154C83.8748 22.8494 83.1129 23.4955 83.1129 24.7815C83.1129 26.0675 84.1064 26.6831 85.5996 26.6831C87.5013 26.6831 88.641 26.098 88.641 23.5503V22.8494Z"
              fill="currentColor"
            ></path>
            <path
              d="M107.474 22.7336C107.474 26.5369 105.603 29.3466 101.709 29.3466C100.014 29.3466 98.8988 28.9383 98.1674 28.1459V34.6432H95.0345V14.4505H98.1674V15.6207C98.8988 14.7126 100.069 14.1884 101.739 14.1884C105.25 14.1884 107.474 16.5594 107.474 20.7405V22.7275V22.7336ZM104.372 22.5873V20.8929C104.372 18.3452 103.348 16.9129 101.27 16.9129C99.1913 16.9129 98.1978 18.3147 98.1674 20.7161V22.5873C98.1674 24.8668 98.8988 26.6527 101.27 26.6527C103.494 26.6527 104.372 24.8668 104.372 22.5873Z"
              fill="currentColor"
            ></path>
            <path
              d="M110.229 8.89143H113.362V15.7117C113.978 14.834 115.032 14.188 116.934 14.188C119.951 14.188 122.261 15.7117 122.261 19.9234V29.0841H119.158V20.2769C119.158 17.7048 117.988 16.9734 116.379 16.9734C114.447 16.9734 113.368 18.2899 113.368 20.2525V29.0902H110.235V8.89143H110.229Z"
              fill="currentColor"
            ></path>
          </g>

          <path
            d="M28.2044 13.7789L28.2053 13.7811C31.088 20.741 27.7809 28.7155 20.8253 31.5986L20.8242 31.5991C18.6613 32.4972 16.4085 32.7933 14.2405 32.5707L12.5346 32.3955L12.1239 34.0605C11.9326 34.836 11.3952 35.5024 10.6093 35.8284L10.6072 35.8293C9.29611 36.375 7.78894 35.7515 7.24453 34.4353L7.24373 34.4333C6.91961 33.652 7.00969 32.8026 7.42616 32.1131L8.31198 30.6467L6.98398 29.5643C5.2914 28.1848 3.90767 26.3826 3.01547 24.2211L3.01456 24.2189C0.131867 17.259 3.43896 9.2845 10.3945 6.40139L10.3957 6.40092C12.5585 5.50282 14.8113 5.20668 16.9793 5.42931L18.6853 5.60449L19.0959 3.93948C19.2872 3.164 19.8246 2.49759 20.6105 2.17156L20.6127 2.17067C21.9237 1.62497 23.4309 2.2485 23.9753 3.56473L23.9761 3.56665C24.3002 4.34795 24.2102 5.19741 23.7937 5.88686L22.9079 7.35331L24.2359 8.4357C25.9284 9.81523 27.3122 11.6174 28.2044 13.7789Z"
            fill="#EF265A"
            stroke="#EF265A"
            stroke-width="3.94497"
          ></path>
          <path
            d="M17.6365 14.1076L17.594 14.2109H23.2091L16.8283 20.5918H22.5042L11.3529 31.7431C11.5717 31.9558 11.7479 32.2111 11.8694 32.5088C12.3799 33.7486 11.7904 35.1706 10.5568 35.681C9.93694 35.9424 9.26847 35.918 8.69723 35.681C8.41161 35.5656 8.14421 35.3954 7.92543 35.1706C7.70058 34.9518 7.51221 34.6783 7.38459 34.3684C6.86804 33.1287 7.45752 31.7127 8.69723 31.1962C9.31708 30.941 9.98555 30.9592 10.5568 31.1962L13.6196 23.7944V23.7762H7.96189L14.3428 17.3953H8.66683L19.8425 6.21966C19.6359 6.01304 19.4718 5.75781 19.3502 5.47219C18.8398 4.23248 19.4231 2.81653 20.6629 2.29998C21.2827 2.04475 21.9512 2.06298 22.5224 2.30606C22.7959 2.41545 23.0511 2.57953 23.2699 2.79222C23.5069 3.01707 23.7014 3.29054 23.8351 3.61262C24.3455 4.85233 23.7622 6.27435 22.5224 6.78482C21.9026 7.04006 21.2402 7.02183 20.6689 6.78482L17.6365 14.1016V14.1076Z"
            fill="white"
          ></path>
        </svg>
