<svg width="262" height="194" viewBox="0 0 262 194" fill="none" xmlns="http://www.w3.org/2000/svg">
<rect width="262" height="194" rx="7.86787" fill="#FAFAFA"/>
<mask id="mask0" mask-type="alpha" maskUnits="userSpaceOnUse" x="0" y="0" width="262" height="194">
<rect width="262" height="194" rx="7.86787" fill="#FAFAFA"/>
</mask>
<g mask="url(#mask0)">
<g filter="url(#filter0_d)">
<rect x="-9.44165" y="-7.08107" width="166.012" height="143.982" rx="7.86787" fill="white"/>
</g>
<g filter="url(#filter1_d)">
<rect x="168.372" y="97.5616" width="166.012" height="143.982" rx="7.86787" fill="white"/>
</g>
<rect x="168.962" y="54.0916" width="164.832" height="31.8649" rx="7.27778" fill="#F18FCE" fill-opacity="0.2" stroke="#F18FCE" stroke-width="1.18018"/>
<rect x="-21.2432" y="-18.8829" width="166.012" height="143.982" rx="7.86787" fill="#FAFAFA"/>
<rect x="180.174" y="109.363" width="166.012" height="143.982" rx="7.86787" fill="#FAFAFA"/>
<g filter="url(#filter2_d)">
<rect x="-9.44165" y="147.916" width="166.012" height="55.0751" rx="7.86787" fill="white"/>
</g>
<path d="M68.2529 163.997H67.2429V158.685H65.4258V157.819H70.07V158.685H68.2529V163.997ZM75.0608 161.652C75.0608 162.415 74.865 163.011 74.4734 163.439C74.0818 163.867 73.5367 164.082 72.838 164.082C72.4013 164.082 72.0154 163.983 71.6801 163.786C71.3449 163.589 71.0871 163.305 70.9068 162.936C70.7265 162.567 70.6363 162.139 70.6363 161.652C70.6363 160.894 70.8307 160.302 71.2195 159.877C71.6083 159.451 72.1562 159.239 72.8634 159.239C73.5395 159.239 74.0748 159.457 74.4692 159.894C74.8636 160.328 75.0608 160.914 75.0608 161.652ZM71.659 161.652C71.659 162.731 72.0576 163.27 72.8549 163.27C73.6438 163.27 74.0382 162.731 74.0382 161.652C74.0382 160.584 73.6409 160.05 72.8465 160.05C72.4295 160.05 72.1267 160.188 71.9379 160.464C71.752 160.74 71.659 161.136 71.659 161.652Z" fill="#212121" fill-opacity="0.8"/>
<path d="M193.171 74.943L192.386 72.7593H189.38L188.61 74.943H187.255L190.197 67.0474H191.596L194.538 74.943H193.171ZM192.047 71.6514L191.31 69.5107C191.257 69.3673 191.181 69.1414 191.085 68.8331C190.991 68.5247 190.927 68.2988 190.891 68.1554C190.794 68.5964 190.652 69.0787 190.466 69.6022L189.756 71.6514H192.047ZM197.447 75.0505C196.705 75.0505 196.126 74.7816 195.71 74.2438C195.294 73.7059 195.086 72.9511 195.086 71.9794C195.086 71.0042 195.296 70.2458 195.715 69.7044C196.138 69.1594 196.723 68.8868 197.469 68.8868C198.25 68.8868 198.846 69.1755 199.254 69.7528H199.319C199.258 69.3261 199.228 68.989 199.228 68.7416V66.5741H200.497V74.943H199.507L199.287 74.1631H199.228C198.822 74.7547 198.229 75.0505 197.447 75.0505ZM197.786 74.0286C198.306 74.0286 198.684 73.8834 198.921 73.593C199.158 73.2989 199.279 72.8239 199.287 72.1677V71.9902C199.287 71.2408 199.165 70.7083 198.921 70.3928C198.677 70.0773 198.295 69.9195 197.775 69.9195C197.331 69.9195 196.988 70.1006 196.748 70.4627C196.508 70.8213 196.388 71.334 196.388 72.001C196.388 72.6607 196.504 73.1645 196.737 73.5123C196.97 73.8565 197.32 74.0286 197.786 74.0286ZM204.31 75.0505C203.568 75.0505 202.989 74.7816 202.573 74.2438C202.157 73.7059 201.949 72.9511 201.949 71.9794C201.949 71.0042 202.159 70.2458 202.578 69.7044C203.001 69.1594 203.586 68.8868 204.332 68.8868C205.113 68.8868 205.709 69.1755 206.117 69.7528H206.182C206.121 69.3261 206.09 68.989 206.09 68.7416V66.5741H207.36V74.943H206.37L206.15 74.1631H206.09C205.685 74.7547 205.092 75.0505 204.31 75.0505ZM204.649 74.0286C205.169 74.0286 205.547 73.8834 205.784 73.593C206.02 73.2989 206.142 72.8239 206.15 72.1677V71.9902C206.15 71.2408 206.028 70.7083 205.784 70.3928C205.54 70.0773 205.158 69.9195 204.638 69.9195C204.194 69.9195 203.851 70.1006 203.611 70.4627C203.371 70.8213 203.251 71.334 203.251 72.001C203.251 72.6607 203.367 73.1645 203.6 73.5123C203.833 73.8565 204.183 74.0286 204.649 74.0286ZM215.562 74.943L213.281 68.3759H213.238C213.299 69.3512 213.33 70.2655 213.33 71.1189V74.943H212.163V67.0797H213.975L216.159 73.3348H216.191L218.439 67.0797H220.257V74.943H219.02V71.0544C219.02 70.6635 219.029 70.1544 219.047 69.5269C219.069 68.8994 219.086 68.5193 219.101 68.3867H219.058L216.697 74.943H215.562ZM224.791 75.0505C223.866 75.0505 223.142 74.7816 222.618 74.2438C222.098 73.7023 221.838 72.9583 221.838 72.0117C221.838 71.04 222.08 70.2763 222.564 69.7205C223.049 69.1647 223.714 68.8868 224.56 68.8868C225.345 68.8868 225.965 69.1253 226.421 69.6022C226.876 70.0791 227.104 70.7352 227.104 71.5707V72.2537H223.14C223.158 72.831 223.314 73.2756 223.608 73.5876C223.902 73.896 224.316 74.0501 224.85 74.0501C225.202 74.0501 225.528 74.0179 225.829 73.9533C226.134 73.8852 226.46 73.774 226.808 73.6199V74.6471C226.5 74.7942 226.188 74.8981 225.872 74.9591C225.557 75.02 225.196 75.0505 224.791 75.0505ZM224.56 69.8442C224.158 69.8442 223.836 69.9715 223.592 70.2261C223.352 70.4807 223.208 70.8518 223.161 71.3394H225.861C225.854 70.8482 225.736 70.4771 225.506 70.2261C225.277 69.9715 224.961 69.8442 224.56 69.8442ZM230.756 74.0286C231.064 74.0286 231.373 73.9802 231.681 73.8834V74.8354C231.541 74.8963 231.36 74.9465 231.138 74.986C230.919 75.029 230.691 75.0505 230.455 75.0505C229.257 75.0505 228.658 74.4195 228.658 73.1573V69.9518H227.846V69.3924L228.717 68.9299L229.148 67.6713H229.928V68.9944H231.622V69.9518H229.928V73.1358C229.928 73.4406 230.003 73.6665 230.153 73.8135C230.308 73.9569 230.508 74.0286 230.756 74.0286ZM235.892 68.8868C236.147 68.8868 236.357 68.9048 236.521 68.9406L236.398 70.1185C236.219 70.0755 236.032 70.054 235.838 70.054C235.333 70.054 234.922 70.2189 234.607 70.5488C234.295 70.8787 234.139 71.3071 234.139 71.8342V74.943H232.875V68.9944H233.865L234.031 70.0432H234.096C234.293 69.6882 234.549 69.4068 234.865 69.1988C235.184 68.9908 235.526 68.8868 235.892 68.8868ZM238.893 74.943H237.629V68.9944H238.893V74.943ZM237.554 67.4185C237.554 67.1926 237.615 67.0187 237.737 66.8968C237.863 66.7749 238.04 66.714 238.269 66.714C238.492 66.714 238.664 66.7749 238.786 66.8968C238.911 67.0187 238.974 67.1926 238.974 67.4185C238.974 67.6337 238.911 67.804 238.786 67.9295C238.664 68.0514 238.492 68.1124 238.269 68.1124C238.04 68.1124 237.863 68.0514 237.737 67.9295C237.615 67.804 237.554 67.6337 237.554 67.4185ZM243.105 75.0505C242.205 75.0505 241.52 74.7888 241.05 74.2653C240.584 73.7382 240.351 72.9834 240.351 72.001C240.351 71.0006 240.595 70.2315 241.082 69.6936C241.574 69.1558 242.282 68.8868 243.207 68.8868C243.834 68.8868 244.399 69.0034 244.901 69.2364L244.519 70.253C243.985 70.045 243.544 69.941 243.196 69.941C242.167 69.941 241.653 70.6241 241.653 71.9902C241.653 72.6571 241.78 73.1591 242.034 73.4962C242.293 73.8296 242.669 73.9964 243.164 73.9964C243.727 73.9964 244.259 73.8565 244.761 73.5768V74.6794C244.535 74.8121 244.293 74.9071 244.035 74.9645C243.781 75.0218 243.47 75.0505 243.105 75.0505ZM250.156 73.2488C250.156 73.8296 249.944 74.276 249.521 74.588C249.098 74.8963 248.492 75.0505 247.703 75.0505C246.911 75.0505 246.274 74.9304 245.794 74.6902V73.5983C246.493 73.9211 247.144 74.0824 247.746 74.0824C248.524 74.0824 248.913 73.8475 248.913 73.3778C248.913 73.2272 248.87 73.1017 248.784 73.0013C248.698 72.9009 248.557 72.797 248.359 72.6894C248.162 72.5818 247.888 72.4599 247.537 72.3237C246.852 72.0583 246.387 71.793 246.144 71.5277C245.903 71.2623 245.783 70.9181 245.783 70.495C245.783 69.9858 245.988 69.5914 246.396 69.3117C246.809 69.0285 247.368 68.8868 248.074 68.8868C248.774 68.8868 249.435 69.0285 250.059 69.3117L249.65 70.2637C249.008 69.9984 248.469 69.8657 248.031 69.8657C247.364 69.8657 247.031 70.0558 247.031 70.4358C247.031 70.6223 247.117 70.7801 247.289 70.9091C247.465 71.0382 247.845 71.2157 248.429 71.4416C248.921 71.6316 249.277 71.8055 249.5 71.9633C249.722 72.1211 249.887 72.3039 249.994 72.5119C250.102 72.7163 250.156 72.9619 250.156 73.2488Z" fill="#F18FCE"/>
<path d="M197.146 127.078C196.407 127.078 195.827 127.34 195.404 127.864C194.98 128.387 194.769 129.11 194.769 130.031C194.769 130.996 194.971 131.725 195.377 132.22C195.785 132.715 196.375 132.962 197.146 132.962C197.48 132.962 197.802 132.93 198.114 132.866C198.426 132.797 198.751 132.711 199.088 132.607V133.71C198.471 133.943 197.772 134.06 196.99 134.06C195.839 134.06 194.955 133.712 194.339 133.016C193.722 132.317 193.413 131.318 193.413 130.02C193.413 129.203 193.562 128.488 193.86 127.874C194.161 127.261 194.595 126.792 195.161 126.465C195.728 126.139 196.393 125.976 197.157 125.976C197.96 125.976 198.702 126.144 199.384 126.481L198.921 127.552C198.656 127.426 198.374 127.317 198.077 127.224C197.783 127.127 197.472 127.078 197.146 127.078ZM204.843 133.952L204.665 133.172H204.601C204.425 133.448 204.174 133.665 203.848 133.823C203.525 133.981 203.156 134.06 202.74 134.06C202.019 134.06 201.481 133.88 201.126 133.522C200.771 133.163 200.594 132.62 200.594 131.892V128.003H201.868V131.672C201.868 132.127 201.962 132.469 202.148 132.699C202.334 132.925 202.627 133.038 203.025 133.038C203.555 133.038 203.944 132.88 204.192 132.564C204.443 132.245 204.568 131.713 204.568 130.967V128.003H205.838V133.952H204.843ZM210.657 127.896C210.911 127.896 211.121 127.914 211.286 127.95L211.162 129.128C210.983 129.085 210.797 129.063 210.603 129.063C210.097 129.063 209.687 129.228 209.371 129.558C209.059 129.888 208.903 130.316 208.903 130.843V133.952H207.639V128.003H208.629L208.796 129.052H208.86C209.058 128.697 209.314 128.416 209.629 128.208C209.949 128 210.291 127.896 210.657 127.896ZM215.411 127.896C215.666 127.896 215.876 127.914 216.041 127.95L215.917 129.128C215.738 129.085 215.551 129.063 215.357 129.063C214.852 129.063 214.441 129.228 214.126 129.558C213.814 129.888 213.658 130.316 213.658 130.843V133.952H212.394V128.003H213.384L213.55 129.052H213.615C213.812 128.697 214.068 128.416 214.384 128.208C214.703 128 215.046 127.896 215.411 127.896ZM219.746 134.06C218.821 134.06 218.097 133.791 217.573 133.253C217.053 132.711 216.793 131.967 216.793 131.021C216.793 130.049 217.036 129.285 217.52 128.73C218.004 128.174 218.669 127.896 219.515 127.896C220.3 127.896 220.921 128.134 221.376 128.611C221.831 129.088 222.059 129.744 222.059 130.58V131.263H218.095C218.113 131.84 218.269 132.285 218.563 132.597C218.857 132.905 219.271 133.059 219.805 133.059C220.157 133.059 220.483 133.027 220.784 132.962C221.089 132.894 221.415 132.783 221.763 132.629V133.656C221.455 133.803 221.143 133.907 220.827 133.968C220.512 134.029 220.151 134.06 219.746 134.06ZM219.515 128.853C219.113 128.853 218.791 128.981 218.547 129.235C218.307 129.49 218.163 129.861 218.117 130.348H220.817C220.809 129.857 220.691 129.486 220.462 129.235C220.232 128.981 219.917 128.853 219.515 128.853ZM228.728 133.952H227.459V130.295C227.459 129.836 227.366 129.493 227.179 129.267C226.996 129.041 226.704 128.929 226.303 128.929C225.768 128.929 225.377 129.086 225.13 129.402C224.883 129.717 224.759 130.246 224.759 130.988V133.952H223.495V128.003H224.485L224.662 128.783H224.727C224.906 128.5 225.161 128.281 225.49 128.127C225.82 127.973 226.186 127.896 226.588 127.896C228.015 127.896 228.728 128.622 228.728 130.074V133.952ZM232.703 133.038C233.011 133.038 233.32 132.989 233.628 132.892V133.844C233.488 133.905 233.307 133.956 233.085 133.995C232.866 134.038 232.638 134.06 232.402 134.06C231.204 134.06 230.605 133.428 230.605 132.166V128.961H229.793V128.401L230.664 127.939L231.095 126.68H231.875V128.003H233.569V128.961H231.875V132.145C231.875 132.45 231.95 132.676 232.1 132.823C232.255 132.966 232.455 133.038 232.703 133.038ZM241.217 133.952L238.936 127.385H238.893C238.954 128.36 238.985 129.275 238.985 130.128V133.952H237.818V126.089H239.63L241.814 132.344H241.846L244.094 126.089H245.912V133.952H244.675V130.063C244.675 129.673 244.684 129.163 244.702 128.536C244.724 127.908 244.742 127.528 244.756 127.396H244.713L242.352 133.952H241.217ZM250.446 134.06C249.521 134.06 248.797 133.791 248.273 133.253C247.754 132.711 247.494 131.967 247.494 131.021C247.494 130.049 247.736 129.285 248.22 128.73C248.704 128.174 249.369 127.896 250.215 127.896C251 127.896 251.621 128.134 252.076 128.611C252.531 129.088 252.759 129.744 252.759 130.58V131.263H248.795C248.813 131.84 248.969 132.285 249.263 132.597C249.557 132.905 249.971 133.059 250.505 133.059C250.857 133.059 251.183 133.027 251.484 132.962C251.789 132.894 252.115 132.783 252.463 132.629V133.656C252.155 133.803 251.843 133.907 251.527 133.968C251.212 134.029 250.851 134.06 250.446 134.06ZM250.215 128.853C249.813 128.853 249.491 128.981 249.247 129.235C249.007 129.49 248.863 129.861 248.817 130.348H251.517C251.509 129.857 251.391 129.486 251.162 129.235C250.932 128.981 250.617 128.853 250.215 128.853ZM256.411 133.038C256.719 133.038 257.028 132.989 257.336 132.892V133.844C257.196 133.905 257.015 133.956 256.793 133.995C256.574 134.038 256.346 134.06 256.11 134.06C254.912 134.06 254.313 133.428 254.313 132.166V128.961H253.501V128.401L254.373 127.939L254.803 126.68H255.583V128.003H257.277V128.961H255.583V132.145C255.583 132.45 255.658 132.676 255.809 132.823C255.963 132.966 256.164 133.038 256.411 133.038ZM261.547 127.896C261.802 127.896 262.012 127.914 262.177 127.95L262.053 129.128C261.874 129.085 261.687 129.063 261.494 129.063C260.988 129.063 260.577 129.228 260.262 129.558C259.95 129.888 259.794 130.316 259.794 130.843V133.952H258.53V128.003H259.52L259.686 129.052H259.751C259.948 128.697 260.205 128.416 260.52 128.208C260.839 128 261.182 127.896 261.547 127.896ZM264.549 133.952H263.285V128.003H264.549V133.952ZM263.209 126.428C263.209 126.202 263.27 126.028 263.392 125.906C263.518 125.784 263.695 125.723 263.925 125.723C264.147 125.723 264.319 125.784 264.441 125.906C264.566 126.028 264.629 126.202 264.629 126.428C264.629 126.643 264.566 126.813 264.441 126.939C264.319 127.06 264.147 127.121 263.925 127.121C263.695 127.121 263.518 127.06 263.392 126.939C263.27 126.813 263.209 126.643 263.209 126.428ZM268.76 134.06C267.86 134.06 267.175 133.798 266.705 133.274C266.239 132.747 266.006 131.992 266.006 131.01C266.006 130.01 266.25 129.24 266.738 128.703C267.229 128.165 267.937 127.896 268.862 127.896C269.49 127.896 270.054 128.012 270.556 128.245L270.174 129.262C269.64 129.054 269.199 128.95 268.851 128.95C267.822 128.95 267.308 129.633 267.308 130.999C267.308 131.666 267.435 132.168 267.69 132.505C267.948 132.839 268.324 133.005 268.819 133.005C269.382 133.005 269.914 132.866 270.416 132.586V133.688C270.191 133.821 269.948 133.916 269.69 133.973C269.436 134.031 269.126 134.06 268.76 134.06ZM275.811 132.258C275.811 132.839 275.599 133.285 275.176 133.597C274.753 133.905 274.147 134.06 273.358 134.06C272.566 134.06 271.93 133.939 271.449 133.699V132.607C272.148 132.93 272.799 133.091 273.401 133.091C274.179 133.091 274.569 132.857 274.569 132.387C274.569 132.236 274.526 132.111 274.439 132.01C274.353 131.91 274.212 131.806 274.015 131.698C273.817 131.591 273.543 131.469 273.192 131.333C272.507 131.067 272.042 130.802 271.799 130.537C271.558 130.271 271.438 129.927 271.438 129.504C271.438 128.995 271.643 128.6 272.051 128.321C272.464 128.038 273.023 127.896 273.73 127.896C274.429 127.896 275.09 128.038 275.714 128.321L275.305 129.273C274.664 129.007 274.124 128.875 273.686 128.875C273.02 128.875 272.686 129.065 272.686 129.445C272.686 129.631 272.772 129.789 272.944 129.918C273.12 130.047 273.5 130.225 274.084 130.451C274.576 130.641 274.932 130.815 275.155 130.972C275.377 131.13 275.542 131.313 275.65 131.521C275.757 131.725 275.811 131.971 275.811 132.258ZM276.994 133.28C276.994 133.018 277.062 132.817 277.199 132.677C277.335 132.537 277.532 132.468 277.79 132.468C278.052 132.468 278.251 132.541 278.387 132.688C278.523 132.831 278.592 133.029 278.592 133.28C278.592 133.534 278.522 133.737 278.382 133.887C278.246 134.034 278.048 134.108 277.79 134.108C277.532 134.108 277.335 134.034 277.199 133.887C277.062 133.74 276.994 133.538 276.994 133.28ZM276.994 128.687C276.994 128.145 277.26 127.874 277.79 127.874C278.059 127.874 278.26 127.946 278.393 128.089C278.525 128.233 278.592 128.432 278.592 128.687C278.592 128.941 278.522 129.144 278.382 129.294C278.246 129.441 278.048 129.515 277.79 129.515C277.532 129.515 277.335 129.441 277.199 129.294C277.062 129.147 276.994 128.945 276.994 128.687Z" fill="#212121" fill-opacity="0.4"/>
<path d="M205.124 149.623C205.124 150.419 204.851 151.032 204.306 151.463C203.765 151.889 202.989 152.103 201.978 152.103H201.053V155.195H200.138V147.332H202.177C204.142 147.332 205.124 148.096 205.124 149.623ZM201.053 151.317H201.875C202.686 151.317 203.272 151.187 203.634 150.925C203.996 150.663 204.177 150.243 204.177 149.666C204.177 149.146 204.007 148.759 203.666 148.504C203.326 148.25 202.795 148.123 202.074 148.123H201.053V151.317ZM210.266 155.195L210.088 154.356H210.045C209.751 154.726 209.457 154.976 209.163 155.109C208.873 155.238 208.509 155.303 208.071 155.303C207.487 155.303 207.028 155.152 206.694 154.851C206.365 154.55 206.2 154.121 206.2 153.566C206.2 152.375 207.152 151.751 209.056 151.694L210.056 151.662V151.296C210.056 150.833 209.956 150.493 209.755 150.274C209.558 150.052 209.24 149.94 208.803 149.94C208.312 149.94 207.756 150.091 207.136 150.392L206.861 149.709C207.152 149.551 207.469 149.428 207.813 149.338C208.161 149.248 208.509 149.204 208.857 149.204C209.559 149.204 210.079 149.36 210.416 149.672C210.757 149.984 210.927 150.484 210.927 151.172V155.195H210.266ZM208.249 154.566C208.805 154.566 209.24 154.414 209.556 154.109C209.875 153.804 210.034 153.377 210.034 152.829V152.296L209.142 152.334C208.432 152.359 207.919 152.47 207.603 152.667C207.291 152.861 207.136 153.164 207.136 153.576C207.136 153.899 207.232 154.145 207.426 154.313C207.623 154.482 207.897 154.566 208.249 154.566ZM217.597 149.3V149.865L216.505 149.994C216.605 150.12 216.695 150.285 216.774 150.489C216.853 150.69 216.892 150.918 216.892 151.172C216.892 151.749 216.695 152.21 216.3 152.554C215.906 152.899 215.365 153.071 214.676 153.071C214.5 153.071 214.335 153.056 214.181 153.028C213.801 153.229 213.611 153.481 213.611 153.786C213.611 153.947 213.677 154.068 213.81 154.146C213.943 154.222 214.171 154.259 214.493 154.259H215.537C216.175 154.259 216.664 154.394 217.005 154.663C217.349 154.932 217.521 155.323 217.521 155.835C217.521 156.488 217.26 156.984 216.736 157.325C216.213 157.669 215.449 157.841 214.445 157.841C213.674 157.841 213.079 157.698 212.659 157.411C212.243 157.124 212.035 156.719 212.035 156.196C212.035 155.837 212.15 155.527 212.379 155.265C212.609 155.003 212.932 154.826 213.348 154.733C213.197 154.665 213.07 154.559 212.966 154.415C212.865 154.272 212.815 154.105 212.815 153.915C212.815 153.7 212.873 153.512 212.987 153.35C213.102 153.189 213.283 153.033 213.53 152.882C213.226 152.757 212.976 152.544 212.783 152.242C212.593 151.941 212.498 151.597 212.498 151.21C212.498 150.564 212.691 150.068 213.079 149.72C213.466 149.369 214.015 149.193 214.724 149.193C215.033 149.193 215.311 149.229 215.558 149.3H217.597ZM212.896 156.185C212.896 156.504 213.03 156.746 213.299 156.911C213.568 157.076 213.954 157.158 214.456 157.158C215.205 157.158 215.759 157.045 216.117 156.82C216.48 156.597 216.661 156.294 216.661 155.911C216.661 155.591 216.562 155.369 216.365 155.244C216.168 155.122 215.797 155.061 215.252 155.061H214.181C213.776 155.061 213.461 155.158 213.235 155.351C213.009 155.545 212.896 155.823 212.896 156.185ZM213.38 151.188C213.38 151.601 213.496 151.913 213.729 152.124C213.963 152.336 214.287 152.441 214.703 152.441C215.574 152.441 216.01 152.018 216.01 151.172C216.01 150.287 215.569 149.844 214.687 149.844C214.267 149.844 213.945 149.957 213.719 150.183C213.493 150.408 213.38 150.744 213.38 151.188ZM221.297 155.303C220.426 155.303 219.737 155.037 219.232 154.507C218.73 153.976 218.479 153.239 218.479 152.296C218.479 151.346 218.712 150.591 219.178 150.032C219.648 149.473 220.277 149.193 221.066 149.193C221.804 149.193 222.389 149.437 222.819 149.924C223.249 150.408 223.464 151.048 223.464 151.844V152.409H219.404C219.422 153.101 219.596 153.627 219.925 153.985C220.259 154.344 220.727 154.523 221.329 154.523C221.964 154.523 222.591 154.39 223.212 154.125V154.921C222.896 155.057 222.597 155.154 222.313 155.211C222.034 155.272 221.695 155.303 221.297 155.303ZM221.055 149.94C220.582 149.94 220.203 150.095 219.92 150.403C219.64 150.711 219.475 151.138 219.425 151.683H222.507C222.507 151.12 222.382 150.69 222.131 150.392C221.88 150.091 221.521 149.94 221.055 149.94ZM226.283 155.195L224.045 149.3H225.003L226.272 152.796C226.559 153.614 226.727 154.145 226.778 154.388H226.821C226.86 154.198 226.984 153.806 227.192 153.211C227.403 152.612 227.875 151.308 228.606 149.3H229.564L227.326 155.195H226.283ZM231.403 155.195H230.51V149.3H231.403V155.195ZM230.435 147.703C230.435 147.499 230.485 147.35 230.585 147.257C230.686 147.16 230.811 147.111 230.962 147.111C231.105 147.111 231.229 147.16 231.333 147.257C231.437 147.353 231.489 147.502 231.489 147.703C231.489 147.904 231.437 148.054 231.333 148.155C231.229 148.252 231.105 148.3 230.962 148.3C230.811 148.3 230.686 148.252 230.585 148.155C230.485 148.054 230.435 147.904 230.435 147.703ZM235.786 155.303C234.915 155.303 234.227 155.037 233.721 154.507C233.219 153.976 232.968 153.239 232.968 152.296C232.968 151.346 233.201 150.591 233.667 150.032C234.137 149.473 234.766 149.193 235.555 149.193C236.294 149.193 236.878 149.437 237.308 149.924C237.739 150.408 237.954 151.048 237.954 151.844V152.409H233.893C233.911 153.101 234.085 153.627 234.415 153.985C234.748 154.344 235.216 154.523 235.819 154.523C236.453 154.523 237.081 154.39 237.701 154.125V154.921C237.386 155.057 237.086 155.154 236.803 155.211C236.523 155.272 236.184 155.303 235.786 155.303ZM235.544 149.94C235.071 149.94 234.693 150.095 234.41 150.403C234.13 150.711 233.965 151.138 233.915 151.683H236.997C236.997 151.12 236.871 150.69 236.62 150.392C236.369 150.091 236.01 149.94 235.544 149.94ZM244.295 155.195L243.214 151.737C243.146 151.525 243.019 151.045 242.832 150.295H242.789C242.646 150.923 242.52 151.407 242.413 151.748L241.299 155.195H240.267L238.658 149.3H239.594C239.974 150.781 240.263 151.909 240.46 152.683C240.661 153.458 240.776 153.98 240.804 154.249H240.847C240.887 154.044 240.95 153.781 241.036 153.458C241.125 153.132 241.202 152.874 241.267 152.683L242.348 149.3H243.316L244.37 152.683C244.571 153.3 244.707 153.818 244.779 154.238H244.822C244.836 154.109 244.874 153.91 244.935 153.641C245 153.372 245.374 151.925 246.059 149.3H246.984L245.355 155.195H244.295Z" fill="#212121" fill-opacity="0.4"/>
<path d="M204.629 168.575H205.613L202.779 176.438H201.875L199.057 168.575H200.025L201.832 173.663C202.04 174.248 202.205 174.816 202.327 175.368C202.456 174.787 202.625 174.208 202.833 173.631L204.629 168.575ZM207.458 176.438H206.565V170.544H207.458V176.438ZM206.49 168.946C206.49 168.742 206.54 168.593 206.641 168.5C206.741 168.403 206.867 168.355 207.017 168.355C207.161 168.355 207.284 168.403 207.388 168.5C207.492 168.597 207.544 168.746 207.544 168.946C207.544 169.147 207.492 169.298 207.388 169.398C207.284 169.495 207.161 169.543 207.017 169.543C206.867 169.543 206.741 169.495 206.641 169.398C206.54 169.298 206.49 169.147 206.49 168.946ZM213.154 174.83C213.154 175.379 212.95 175.802 212.541 176.1C212.132 176.397 211.558 176.546 210.82 176.546C210.038 176.546 209.429 176.422 208.991 176.175V175.347C209.274 175.49 209.577 175.603 209.9 175.685C210.226 175.768 210.54 175.809 210.841 175.809C211.307 175.809 211.666 175.736 211.917 175.589C212.168 175.438 212.293 175.21 212.293 174.906C212.293 174.676 212.193 174.481 211.992 174.319C211.795 174.154 211.408 173.961 210.831 173.738C210.282 173.534 209.891 173.357 209.658 173.206C209.429 173.052 209.256 172.878 209.142 172.684C209.031 172.491 208.975 172.259 208.975 171.991C208.975 171.51 209.17 171.132 209.561 170.856C209.952 170.576 210.488 170.436 211.169 170.436C211.804 170.436 212.424 170.565 213.03 170.823L212.713 171.549C212.121 171.306 211.585 171.184 211.105 171.184C210.682 171.184 210.363 171.25 210.147 171.383C209.932 171.515 209.825 171.698 209.825 171.931C209.825 172.089 209.864 172.224 209.943 172.335C210.026 172.446 210.156 172.552 210.336 172.652C210.515 172.752 210.859 172.898 211.368 173.088C212.068 173.342 212.539 173.599 212.783 173.857C213.03 174.115 213.154 174.439 213.154 174.83ZM215.504 176.438H214.612V170.544H215.504V176.438ZM214.536 168.946C214.536 168.742 214.586 168.593 214.687 168.5C214.787 168.403 214.913 168.355 215.063 168.355C215.207 168.355 215.33 168.403 215.434 168.5C215.538 168.597 215.59 168.746 215.59 168.946C215.59 169.147 215.538 169.298 215.434 169.398C215.33 169.495 215.207 169.543 215.063 169.543C214.913 169.543 214.787 169.495 214.687 169.398C214.586 169.298 214.536 169.147 214.536 168.946ZM219.302 175.809C219.459 175.809 219.612 175.798 219.759 175.777C219.906 175.752 220.022 175.727 220.108 175.702V176.385C220.011 176.431 219.868 176.469 219.678 176.498C219.492 176.53 219.323 176.546 219.172 176.546C218.032 176.546 217.462 175.945 217.462 174.744V171.238H216.618V170.807L217.462 170.436L217.839 169.178H218.355V170.544H220.065V171.238H218.355V174.707C218.355 175.062 218.439 175.334 218.608 175.524C218.776 175.714 219.008 175.809 219.302 175.809ZM226.38 173.486C226.38 174.447 226.138 175.198 225.653 175.739C225.169 176.277 224.501 176.546 223.647 176.546C223.12 176.546 222.652 176.422 222.244 176.175C221.835 175.928 221.519 175.573 221.297 175.11C221.075 174.647 220.963 174.106 220.963 173.486C220.963 172.525 221.204 171.777 221.684 171.243C222.165 170.705 222.832 170.436 223.685 170.436C224.51 170.436 225.164 170.71 225.648 171.259C226.136 171.808 226.38 172.55 226.38 173.486ZM221.889 173.486C221.889 174.239 222.039 174.812 222.34 175.207C222.642 175.601 223.084 175.798 223.669 175.798C224.253 175.798 224.696 175.603 224.997 175.212C225.302 174.818 225.454 174.242 225.454 173.486C225.454 172.736 225.302 172.168 224.997 171.781C224.696 171.39 224.25 171.194 223.658 171.194C223.074 171.194 222.633 171.386 222.335 171.77C222.037 172.154 221.889 172.726 221.889 173.486ZM230.639 170.436C230.901 170.436 231.136 170.458 231.344 170.501L231.22 171.329C230.976 171.275 230.761 171.248 230.575 171.248C230.098 171.248 229.689 171.442 229.348 171.829C229.011 172.216 228.843 172.699 228.843 173.276V176.438H227.95V170.544H228.687L228.789 171.636H228.832C229.051 171.252 229.314 170.956 229.623 170.748C229.931 170.54 230.27 170.436 230.639 170.436ZM236.249 174.83C236.249 175.379 236.045 175.802 235.636 176.1C235.227 176.397 234.653 176.546 233.915 176.546C233.133 176.546 232.523 176.422 232.086 176.175V175.347C232.369 175.49 232.672 175.603 232.995 175.685C233.321 175.768 233.635 175.809 233.936 175.809C234.402 175.809 234.761 175.736 235.012 175.589C235.263 175.438 235.388 175.21 235.388 174.906C235.388 174.676 235.288 174.481 235.087 174.319C234.89 174.154 234.503 173.961 233.925 173.738C233.377 173.534 232.986 173.357 232.753 173.206C232.523 173.052 232.351 172.878 232.237 172.684C232.125 172.491 232.07 172.259 232.07 171.991C232.07 171.51 232.265 171.132 232.656 170.856C233.047 170.576 233.583 170.436 234.264 170.436C234.899 170.436 235.519 170.565 236.125 170.823L235.808 171.549C235.216 171.306 234.68 171.184 234.2 171.184C233.777 171.184 233.458 171.25 233.242 171.383C233.027 171.515 232.92 171.698 232.92 171.931C232.92 172.089 232.959 172.224 233.038 172.335C233.12 172.446 233.251 172.552 233.431 172.652C233.61 172.752 233.954 172.898 234.463 173.088C235.162 173.342 235.634 173.599 235.878 173.857C236.125 174.115 236.249 174.439 236.249 174.83Z" fill="#212121" fill-opacity="0.4"/>
<path d="M201.053 194.412V197.682H200.138V189.818H202.295C203.259 189.818 203.971 190.003 204.43 190.372C204.893 190.742 205.124 191.298 205.124 192.04C205.124 193.08 204.597 193.782 203.543 194.148L205.678 197.682H204.597L202.693 194.412H201.053ZM201.053 193.626H202.306C202.951 193.626 203.424 193.499 203.726 193.245C204.027 192.986 204.177 192.601 204.177 192.088C204.177 191.568 204.023 191.194 203.715 190.964C203.41 190.735 202.919 190.62 202.241 190.62H201.053V193.626ZM209.303 197.789C208.432 197.789 207.743 197.524 207.238 196.993C206.736 196.463 206.485 195.726 206.485 194.783C206.485 193.833 206.718 193.078 207.184 192.518C207.654 191.959 208.283 191.679 209.072 191.679C209.81 191.679 210.395 191.923 210.825 192.411C211.255 192.895 211.471 193.535 211.471 194.331V194.896H207.41C207.428 195.588 207.602 196.113 207.932 196.472C208.265 196.83 208.733 197.009 209.335 197.009C209.97 197.009 210.597 196.877 211.218 196.611V197.407C210.902 197.544 210.603 197.64 210.32 197.698C210.04 197.759 209.701 197.789 209.303 197.789ZM209.061 192.427C208.588 192.427 208.209 192.581 207.926 192.89C207.646 193.198 207.482 193.625 207.431 194.17H210.513C210.513 193.607 210.388 193.176 210.137 192.879C209.886 192.578 209.527 192.427 209.061 192.427ZM214.289 197.682L212.051 191.787H213.009L214.278 195.283C214.565 196.1 214.733 196.631 214.784 196.875H214.827C214.866 196.685 214.99 196.292 215.198 195.697C215.409 195.098 215.881 193.795 216.612 191.787H217.57L215.332 197.682H214.289ZM221.006 197.789C220.135 197.789 219.447 197.524 218.941 196.993C218.439 196.463 218.188 195.726 218.188 194.783C218.188 193.833 218.421 193.078 218.887 192.518C219.357 191.959 219.986 191.679 220.775 191.679C221.514 191.679 222.098 191.923 222.529 192.411C222.959 192.895 223.174 193.535 223.174 194.331V194.896H219.113C219.131 195.588 219.305 196.113 219.635 196.472C219.968 196.83 220.436 197.009 221.039 197.009C221.673 197.009 222.301 196.877 222.921 196.611V197.407C222.606 197.544 222.306 197.64 222.023 197.698C221.743 197.759 221.404 197.789 221.006 197.789ZM220.764 192.427C220.291 192.427 219.913 192.581 219.63 192.89C219.35 193.198 219.185 193.625 219.135 194.17H222.217C222.217 193.607 222.091 193.176 221.84 192.879C221.589 192.578 221.231 192.427 220.764 192.427ZM228.735 197.682V193.868C228.735 193.388 228.626 193.029 228.407 192.793C228.188 192.556 227.846 192.438 227.38 192.438C226.763 192.438 226.311 192.604 226.025 192.938C225.738 193.271 225.594 193.822 225.594 194.589V197.682H224.701V191.787H225.428L225.573 192.594H225.616C225.799 192.303 226.055 192.079 226.385 191.921C226.715 191.76 227.082 191.679 227.487 191.679C228.197 191.679 228.732 191.851 229.09 192.196C229.449 192.536 229.628 193.083 229.628 193.836V197.682H228.735ZM232.307 191.787V195.611C232.307 196.091 232.416 196.45 232.635 196.687C232.853 196.923 233.196 197.042 233.662 197.042C234.279 197.042 234.729 196.873 235.012 196.536C235.299 196.199 235.442 195.649 235.442 194.885V191.787H236.335V197.682H235.598L235.469 196.891H235.421C235.238 197.182 234.983 197.404 234.657 197.558C234.334 197.712 233.965 197.789 233.549 197.789C232.832 197.789 232.294 197.619 231.935 197.278C231.58 196.938 231.403 196.393 231.403 195.643V191.787H232.307ZM242.036 196.074C242.036 196.622 241.832 197.045 241.423 197.343C241.014 197.64 240.441 197.789 239.702 197.789C238.92 197.789 238.311 197.666 237.873 197.418V196.59C238.156 196.733 238.459 196.846 238.782 196.929C239.108 197.011 239.422 197.052 239.723 197.052C240.19 197.052 240.548 196.979 240.799 196.832C241.05 196.681 241.176 196.454 241.176 196.149C241.176 195.919 241.075 195.724 240.874 195.563C240.677 195.398 240.29 195.204 239.713 194.982C239.164 194.777 238.773 194.6 238.54 194.449C238.311 194.295 238.139 194.121 238.024 193.928C237.913 193.734 237.857 193.503 237.857 193.234C237.857 192.753 238.053 192.375 238.443 192.099C238.834 191.819 239.37 191.679 240.051 191.679C240.686 191.679 241.306 191.808 241.912 192.067L241.595 192.793C241.003 192.549 240.467 192.427 239.987 192.427C239.564 192.427 239.245 192.493 239.03 192.626C238.814 192.759 238.707 192.942 238.707 193.175C238.707 193.332 238.746 193.467 238.825 193.578C238.908 193.689 239.039 193.795 239.218 193.895C239.397 193.996 239.741 194.141 240.25 194.331C240.95 194.586 241.421 194.842 241.665 195.1C241.912 195.358 242.036 195.683 242.036 196.074Z" fill="#212121" fill-opacity="0.4"/>
<path d="M-0.731518 10.6642C-0.731518 11.6026 -1.03886 12.3218 -1.65353 12.8218C-2.26821 13.3217 -3.1431 13.5717 -4.27821 13.5717H-5.21251V16.9339H-6.68159V7.94736H-4.0938C-2.97099 7.94736 -2.13093 8.17684 -1.57363 8.6358C-1.01222 9.09476 -0.731518 9.77091 -0.731518 10.6642ZM-5.21251 12.3362H-4.43187C-3.67787 12.3362 -3.12466 12.205 -2.77225 11.9428C-2.41983 11.6805 -2.24362 11.2707 -2.24362 10.7134C-2.24362 10.1971 -2.40139 9.81189 -2.71693 9.55782C-3.03246 9.30375 -3.5242 9.17672 -4.19215 9.17672H-5.21251V12.3362ZM5.16324 16.9339L4.87434 15.9873H4.82516C4.49734 16.4012 4.16746 16.684 3.83553 16.8356C3.50361 16.9831 3.07743 17.0569 2.55701 17.0569C1.88906 17.0569 1.36658 16.8766 0.989578 16.516C0.616674 16.1554 0.430222 15.6452 0.430222 14.9854C0.430222 14.2847 0.690436 13.7561 1.21086 13.3996C1.73129 13.043 2.52422 12.8484 3.58966 12.8156L4.7637 12.7787V12.4161C4.7637 11.9817 4.66125 11.658 4.45636 11.4449C4.25556 11.2277 3.94208 11.1191 3.5159 11.1191C3.16758 11.1191 2.83361 11.1703 2.51398 11.2728C2.19435 11.3752 1.88701 11.4961 1.59196 11.6354L1.12481 10.6028C1.49361 10.4102 1.89725 10.2647 2.33572 10.1663C2.77419 10.0639 3.18807 10.0127 3.57737 10.0127C4.44202 10.0127 5.09357 10.2012 5.53204 10.5782C5.97461 10.9552 6.19589 11.5473 6.19589 12.3546V16.9339H5.16324ZM3.01187 15.9505C3.53639 15.9505 3.95642 15.805 4.27195 15.514C4.59159 15.219 4.7514 14.8072 4.7514 14.2785V13.6884L3.87856 13.7253C3.19832 13.7499 2.70248 13.8647 2.39104 14.0695C2.0837 14.2703 1.93003 14.5797 1.93003 14.9977C1.93003 15.301 2.02019 15.5366 2.20049 15.7046C2.3808 15.8685 2.65126 15.9505 3.01187 15.9505ZM13.9531 10.1356V10.9285L12.7914 11.1437C12.8979 11.2871 12.986 11.4633 13.0557 11.6723C13.1254 11.8813 13.1602 12.1026 13.1602 12.3362C13.1602 13.0369 12.9184 13.5881 12.4349 13.9896C11.9513 14.3912 11.2854 14.592 10.4372 14.592C10.22 14.592 10.0233 14.5756 9.84708 14.5429C9.53564 14.7354 9.37992 14.9608 9.37992 15.219C9.37992 15.3747 9.45163 15.4915 9.59506 15.5694C9.74258 15.6472 10.011 15.6862 10.4003 15.6862H11.5866C12.3365 15.6862 12.9061 15.846 13.2954 16.1656C13.6847 16.4852 13.8794 16.9462 13.8794 17.5486C13.8794 18.319 13.5618 18.9132 12.9266 19.3312C12.2914 19.7492 11.3735 19.9582 10.1729 19.9582C9.24674 19.9582 8.53986 19.7942 8.05222 19.4664C7.56458 19.1386 7.32075 18.6714 7.32075 18.065C7.32075 17.647 7.45188 17.2946 7.71415 17.0077C7.98051 16.725 8.35136 16.5283 8.82671 16.4176C8.63411 16.3357 8.4743 16.2045 8.34726 16.0242C8.22433 15.8398 8.16286 15.6472 8.16286 15.4464C8.16286 15.1924 8.23457 14.9772 8.378 14.801C8.52142 14.6248 8.73451 14.4506 9.01726 14.2785C8.66485 14.1269 8.378 13.881 8.15671 13.5409C7.93953 13.1967 7.83094 12.7951 7.83094 12.3362C7.83094 11.5985 8.06246 11.0269 8.52552 10.6212C8.99268 10.2155 9.65653 10.0127 10.5171 10.0127C10.7097 10.0127 10.9105 10.027 11.1195 10.0557C11.3325 10.0803 11.4924 10.1069 11.5989 10.1356H13.9531ZM8.61158 17.9912C8.61158 18.3026 8.7509 18.5423 9.02956 18.7104C9.31231 18.8784 9.70775 18.9624 10.2159 18.9624C11.0027 18.9624 11.5887 18.8497 11.9739 18.6243C12.3591 18.3989 12.5517 18.0998 12.5517 17.7269C12.5517 17.4318 12.4451 17.2208 12.232 17.0938C12.023 16.9708 11.6317 16.9094 11.058 16.9094H9.96387C9.54998 16.9094 9.22011 17.0057 8.97423 17.1983C8.73246 17.395 8.61158 17.6593 8.61158 17.9912ZM9.2324 12.3362C9.2324 12.7623 9.34099 13.0902 9.55818 13.3196C9.77946 13.5491 10.095 13.6639 10.5048 13.6639C11.3407 13.6639 11.7587 13.2172 11.7587 12.3239C11.7587 11.8813 11.6542 11.5412 11.4452 11.3035C11.2403 11.0617 10.9269 10.9408 10.5048 10.9408C10.0868 10.9408 9.76922 11.0597 9.55203 11.2974C9.33894 11.535 9.2324 11.8813 9.2324 12.3362ZM18.1882 17.0569C17.131 17.0569 16.3032 16.7495 15.7049 16.1349C15.1108 15.5161 14.8137 14.6658 14.8137 13.584C14.8137 12.4734 15.0903 11.6006 15.6435 10.9654C16.1967 10.3303 16.9568 10.0127 17.9239 10.0127C18.8214 10.0127 19.5303 10.2852 20.0507 10.8302C20.5711 11.3752 20.8314 12.1251 20.8314 13.0799V13.8606H16.3012C16.3217 14.5203 16.4999 15.0284 16.836 15.385C17.172 15.7374 17.6453 15.9136 18.2559 15.9136C18.6574 15.9136 19.0304 15.8767 19.3746 15.8029C19.7229 15.7251 20.0958 15.598 20.4933 15.4218V16.5959C20.1409 16.7639 19.7844 16.8827 19.4237 16.9524C19.0631 17.022 18.6513 17.0569 18.1882 17.0569ZM17.9239 11.1068C17.465 11.1068 17.0962 11.2523 16.8175 11.5432C16.543 11.8342 16.379 12.2583 16.3258 12.8156H19.4115C19.4033 12.2542 19.268 11.8301 19.0058 11.5432C18.7435 11.2523 18.3829 11.1068 17.9239 11.1068ZM31.0166 7.94736H32.541L29.3938 16.9339H27.8448L24.71 7.94736H26.2221L28.0968 13.5348C28.1952 13.8011 28.2997 14.1454 28.4103 14.5674C28.521 14.9854 28.5927 15.2969 28.6255 15.5017C28.6787 15.1903 28.7607 14.8297 28.8713 14.4199C28.982 14.0101 29.0721 13.7069 29.1418 13.5102L31.0166 7.94736ZM35.0181 16.9339H33.5736V10.1356H35.0181V16.9339ZM33.4876 8.33461C33.4876 8.07645 33.5572 7.8777 33.6966 7.73837C33.84 7.59905 34.0428 7.52938 34.3051 7.52938C34.5591 7.52938 34.7558 7.59905 34.8952 7.73837C35.0386 7.8777 35.1103 8.07645 35.1103 8.33461C35.1103 8.58048 35.0386 8.77513 34.8952 8.91855C34.7558 9.05788 34.5591 9.12754 34.3051 9.12754C34.0428 9.12754 33.84 9.05788 33.6966 8.91855C33.5572 8.77513 33.4876 8.58048 33.4876 8.33461ZM40.0585 17.0569C39.0012 17.0569 38.1734 16.7495 37.5752 16.1349C36.981 15.5161 36.6839 14.6658 36.6839 13.584C36.6839 12.4734 36.9605 11.6006 37.5137 10.9654C38.0669 10.3303 38.8271 10.0127 39.7941 10.0127C40.6916 10.0127 41.4005 10.2852 41.9209 10.8302C42.4414 11.3752 42.7016 12.1251 42.7016 13.0799V13.8606H38.1714C38.1919 14.5203 38.3701 15.0284 38.7062 15.385C39.0422 15.7374 39.5155 15.9136 40.1261 15.9136C40.5277 15.9136 40.9006 15.8767 41.2448 15.8029C41.5931 15.7251 41.966 15.598 42.3635 15.4218V16.5959C42.0111 16.7639 41.6546 16.8827 41.294 16.9524C40.9334 17.022 40.5215 17.0569 40.0585 17.0569ZM39.7941 11.1068C39.3352 11.1068 38.9664 11.2523 38.6877 11.5432C38.4132 11.8342 38.2493 12.2583 38.196 12.8156H41.2817C41.2735 12.2542 41.1382 11.8301 40.876 11.5432C40.6137 11.2523 40.2531 11.1068 39.7941 11.1068ZM49.9179 16.9339L49.0389 13.7622C48.9324 13.4262 48.7398 12.6455 48.4611 11.4203H48.4058C48.1681 12.5267 47.9796 13.3114 47.8403 13.7745L46.9367 16.9339H45.3385L43.433 10.1356H44.9083L45.775 13.4856C45.9717 14.3134 46.111 15.0223 46.1929 15.6124H46.2298C46.2708 15.3132 46.3323 14.9711 46.4142 14.5859C46.5003 14.1966 46.574 13.9056 46.6355 13.713L47.6682 10.1356H49.254L50.256 13.713C50.3174 13.9138 50.3932 14.2212 50.4834 14.6351C50.5776 15.0489 50.633 15.3706 50.6493 15.6001H50.6985C50.76 15.0961 50.9034 14.3912 51.1288 13.4856L52.0078 10.1356H53.4584L51.5406 16.9339H49.9179ZM59.1995 14.9977C59.1995 15.6616 58.9577 16.1717 58.4742 16.5283C57.9906 16.8807 57.2981 17.0569 56.3966 17.0569C55.491 17.0569 54.7636 16.9196 54.2145 16.645V15.3973C55.0136 15.7661 55.7573 15.9505 56.4458 15.9505C57.335 15.9505 57.7796 15.6821 57.7796 15.1452C57.7796 14.9731 57.7304 14.8297 57.6321 14.715C57.5337 14.6002 57.3719 14.4814 57.1465 14.3584C56.9211 14.2355 56.6076 14.0962 56.206 13.9405C55.4233 13.6372 54.8927 13.334 54.614 13.0307C54.3395 12.7275 54.2022 12.3341 54.2022 11.8506C54.2022 11.2687 54.4358 10.8179 54.9029 10.4983C55.3742 10.1745 56.0134 10.0127 56.8207 10.0127C57.6198 10.0127 58.3758 10.1745 59.0889 10.4983L58.6217 11.5863C57.8882 11.283 57.2715 11.1314 56.7715 11.1314C56.0093 11.1314 55.6282 11.3486 55.6282 11.7829C55.6282 11.996 55.7266 12.1763 55.9233 12.3239C56.1241 12.4714 56.5584 12.6742 57.2264 12.9324C57.7878 13.1496 58.1955 13.3483 58.4496 13.5286C58.7037 13.7089 58.8922 13.9179 59.0151 14.1556C59.138 14.3892 59.1995 14.6699 59.1995 14.9977Z" fill="#212121" fill-opacity="0.8"/>
<path d="M-23.807 176.635C-23.807 177.703 -23.976 178.5 -24.3141 179.027C-24.6493 179.554 -25.1635 179.817 -25.8565 179.817C-26.5214 179.817 -27.0271 179.548 -27.3736 179.01C-27.7202 178.469 -27.8934 177.678 -27.8934 176.635C-27.8934 175.559 -27.7258 174.76 -27.3905 174.239C-27.0553 173.718 -26.5439 173.457 -25.8565 173.457C-25.186 173.457 -24.6775 173.729 -24.331 174.273C-23.9816 174.817 -23.807 175.604 -23.807 176.635ZM-27.1835 176.635C-27.1835 177.534 -27.0778 178.189 -26.8665 178.6C-26.6552 179.009 -26.3186 179.213 -25.8565 179.213C-25.3889 179.213 -25.0508 179.006 -24.8423 178.592C-24.631 178.175 -24.5254 177.523 -24.5254 176.635C-24.5254 175.748 -24.631 175.098 -24.8423 174.687C-25.0508 174.273 -25.3889 174.066 -25.8565 174.066C-26.3186 174.066 -26.6552 174.27 -26.8665 174.679C-27.0778 175.084 -27.1835 175.736 -27.1835 176.635ZM-19.1204 175.008C-19.1204 175.403 -19.2317 175.725 -19.4543 175.976C-19.674 176.227 -19.9868 176.394 -20.3924 176.479V176.513C-19.8966 176.575 -19.5289 176.732 -19.2895 176.986C-19.05 177.239 -18.9303 177.572 -18.9303 177.983C-18.9303 178.572 -19.1345 179.026 -19.543 179.344C-19.9515 179.66 -20.5319 179.817 -21.2841 179.817C-21.6109 179.817 -21.9109 179.792 -22.1842 179.741C-22.4547 179.693 -22.7181 179.607 -22.9745 179.483V178.816C-22.7068 178.948 -22.4223 179.05 -22.1208 179.12C-21.8166 179.188 -21.5292 179.221 -21.2587 179.221C-20.191 179.221 -19.6571 178.803 -19.6571 177.966C-19.6571 177.217 -20.2459 176.842 -21.4236 176.842H-22.0321V176.238H-21.4151C-20.9334 176.238 -20.5516 176.132 -20.2699 175.921C-19.9882 175.707 -19.8473 175.411 -19.8473 175.034C-19.8473 174.732 -19.9515 174.495 -20.16 174.324C-20.3657 174.152 -20.646 174.066 -21.001 174.066C-21.2714 174.066 -21.5264 174.102 -21.7659 174.176C-22.0053 174.249 -22.2786 174.384 -22.5857 174.581L-22.9407 174.108C-22.6871 173.908 -22.3955 173.752 -22.0659 173.639C-21.7335 173.523 -21.3841 173.466 -21.0179 173.466C-20.4178 173.466 -19.9515 173.604 -19.6191 173.88C-19.2867 174.153 -19.1204 174.529 -19.1204 175.008ZM-13.0816 173.554L-15.3847 179.733H-16.0862L-13.7831 173.554H-13.0816ZM-6.2272 176.635C-6.2272 177.703 -6.39624 178.5 -6.73431 179.027C-7.06957 179.554 -7.58372 179.817 -8.27677 179.817C-8.94164 179.817 -9.44734 179.548 -9.79387 179.01C-10.1404 178.469 -10.3137 177.678 -10.3137 176.635C-10.3137 175.559 -10.146 174.76 -9.81077 174.239C-9.47552 173.718 -8.96418 173.457 -8.27677 173.457C-7.60626 173.457 -7.09774 173.729 -6.75121 174.273C-6.40187 174.817 -6.2272 175.604 -6.2272 176.635ZM-9.6037 176.635C-9.6037 177.534 -9.49805 178.189 -9.28676 178.6C-9.07546 179.009 -8.7388 179.213 -8.27677 179.213C-7.8091 179.213 -7.47103 179.006 -7.26255 178.592C-7.05125 178.175 -6.94561 177.523 -6.94561 176.635C-6.94561 175.748 -7.05125 175.098 -7.26255 174.687C-7.47103 174.273 -7.8091 174.066 -8.27677 174.066C-8.7388 174.066 -9.07546 174.27 -9.28676 174.679C-9.49805 175.084 -9.6037 175.736 -9.6037 176.635ZM-3.32401 173.466C-2.76055 173.466 -2.31401 173.597 -1.98439 173.859C-1.65477 174.121 -1.48996 174.483 -1.48996 174.945C-1.48996 175.249 -1.58434 175.527 -1.7731 175.777C-1.96186 176.028 -2.2633 176.256 -2.67744 176.462C-2.17597 176.701 -1.81958 176.954 -1.60829 177.218C-1.39699 177.48 -1.29135 177.785 -1.29135 178.131C-1.29135 178.644 -1.47024 179.054 -1.82804 179.361C-2.18583 179.665 -2.67603 179.817 -3.29865 179.817C-3.95789 179.817 -4.465 179.674 -4.81998 179.386C-5.17495 179.096 -5.35244 178.686 -5.35244 178.156C-5.35244 177.449 -4.9214 176.899 -4.05931 176.504C-4.4481 176.284 -4.72701 176.048 -4.89604 175.794C-5.06508 175.538 -5.1496 175.252 -5.1496 174.936C-5.1496 174.488 -4.98479 174.132 -4.65517 173.867C-4.32273 173.6 -3.87901 173.466 -3.32401 173.466ZM-4.65939 178.173C-4.65939 178.511 -4.54248 178.775 -4.30864 178.964C-4.07199 179.152 -3.74096 179.247 -3.31555 179.247C-2.89578 179.247 -2.56898 179.148 -2.33514 178.951C-2.10131 178.754 -1.98439 178.483 -1.98439 178.14C-1.98439 177.866 -2.09427 177.624 -2.31401 177.413C-2.53376 177.199 -2.91691 176.992 -3.46346 176.792C-3.88323 176.972 -4.1875 177.172 -4.37626 177.392C-4.56501 177.609 -4.65939 177.869 -4.65939 178.173ZM-3.33246 174.036C-3.68462 174.036 -3.96071 174.121 -4.16074 174.29C-4.36076 174.459 -4.46077 174.684 -4.46077 174.966C-4.46077 175.225 -4.37767 175.448 -4.21145 175.634C-4.04523 175.82 -3.73814 176.006 -3.2902 176.191C-2.88733 176.022 -2.60278 175.841 -2.43657 175.646C-2.26753 175.452 -2.18301 175.225 -2.18301 174.966C-2.18301 174.681 -2.28584 174.456 -2.4915 174.29C-2.69435 174.121 -2.97466 174.036 -3.33246 174.036ZM4.49814 173.554L2.19503 179.733H1.49353L3.79664 173.554H4.49814ZM11.3188 179.733H7.25766V179.128L8.88464 177.493C9.38048 176.992 9.70728 176.634 9.86505 176.42C10.0228 176.206 10.1411 175.997 10.22 175.794C10.2989 175.591 10.3383 175.373 10.3383 175.139C10.3383 174.81 10.2383 174.549 10.0383 174.357C9.83828 174.163 9.56078 174.066 9.2058 174.066C8.94943 174.066 8.70574 174.108 8.47472 174.193C8.24652 174.277 7.99156 174.431 7.70983 174.653L7.33795 174.176C7.90704 173.702 8.52684 173.466 9.19735 173.466C9.77771 173.466 10.2327 173.615 10.5623 173.914C10.8919 174.209 11.0568 174.608 11.0568 175.11C11.0568 175.501 10.9469 175.889 10.7271 176.272C10.5074 176.655 10.0961 177.139 9.49317 177.725L8.14088 179.048V179.082H11.3188V179.733ZM16.3053 176.635C16.3053 177.703 16.1363 178.5 15.7982 179.027C15.463 179.554 14.9488 179.817 14.2558 179.817C13.5909 179.817 13.0852 179.548 12.7387 179.01C12.3921 178.469 12.2189 177.678 12.2189 176.635C12.2189 175.559 12.3865 174.76 12.7218 174.239C13.057 173.718 13.5683 173.457 14.2558 173.457C14.9263 173.457 15.4348 173.729 15.7813 174.273C16.1307 174.817 16.3053 175.604 16.3053 176.635ZM12.9288 176.635C12.9288 177.534 13.0345 178.189 13.2458 178.6C13.4571 179.009 13.7937 179.213 14.2558 179.213C14.7234 179.213 15.0615 179.006 15.27 178.592C15.4813 178.175 15.5869 177.523 15.5869 176.635C15.5869 175.748 15.4813 175.098 15.27 174.687C15.0615 174.273 14.7234 174.066 14.2558 174.066C13.7937 174.066 13.4571 174.27 13.2458 174.679C13.0345 175.084 12.9288 175.736 12.9288 176.635ZM21.2243 179.733H17.1632V179.128L18.7902 177.493C19.286 176.992 19.6128 176.634 19.7706 176.42C19.9283 176.206 20.0467 175.997 20.1255 175.794C20.2044 175.591 20.2439 175.373 20.2439 175.139C20.2439 174.81 20.1439 174.549 19.9438 174.357C19.7438 174.163 19.4663 174.066 19.1113 174.066C18.855 174.066 18.6113 174.108 18.3802 174.193C18.152 174.277 17.8971 174.431 17.6154 174.653L17.2435 174.176C17.8126 173.702 18.4324 173.466 19.1029 173.466C19.6832 173.466 20.1382 173.615 20.4678 173.914C20.7975 174.209 20.9623 174.608 20.9623 175.11C20.9623 175.501 20.8524 175.889 20.6327 176.272C20.4129 176.655 20.0016 177.139 19.3987 177.725L18.0464 179.048V179.082H21.2243V179.733ZM26.2108 176.635C26.2108 177.703 26.0418 178.5 25.7037 179.027C25.3685 179.554 24.8543 179.817 24.1613 179.817C23.4964 179.817 22.9907 179.548 22.6442 179.01C22.2977 178.469 22.1244 177.678 22.1244 176.635C22.1244 175.559 22.292 174.76 22.6273 174.239C22.9625 173.718 23.4739 173.457 24.1613 173.457C24.8318 173.457 25.3403 173.729 25.6868 174.273C26.0362 174.817 26.2108 175.604 26.2108 176.635ZM22.8344 176.635C22.8344 177.534 22.94 178.189 23.1513 178.6C23.3626 179.009 23.6993 179.213 24.1613 179.213C24.629 179.213 24.967 179.006 25.1755 178.592C25.3868 178.175 25.4924 177.523 25.4924 176.635C25.4924 175.748 25.3868 175.098 25.1755 174.687C24.967 174.273 24.629 174.066 24.1613 174.066C23.6993 174.066 23.3626 174.27 23.1513 174.679C22.94 175.084 22.8344 175.736 22.8344 176.635Z" fill="#212121" fill-opacity="0.8"/>
<path d="M69.5545 175.008C69.5545 175.403 69.4432 175.725 69.2206 175.976C69.0009 176.227 68.6882 176.394 68.2825 176.479V176.513C68.7783 176.575 69.146 176.732 69.3854 176.986C69.6249 177.239 69.7446 177.572 69.7446 177.983C69.7446 178.572 69.5404 179.026 69.1319 179.344C68.7234 179.66 68.143 179.817 67.3908 179.817C67.064 179.817 66.764 179.792 66.4907 179.741C66.2202 179.693 65.9568 179.607 65.7005 179.483V178.816C65.9681 178.948 66.2526 179.05 66.5541 179.12C66.8584 179.188 67.1457 179.221 67.4162 179.221C68.4839 179.221 69.0178 178.803 69.0178 177.966C69.0178 177.217 68.429 176.842 67.2514 176.842H66.6428V176.238H67.2598C67.7416 176.238 68.1233 176.132 68.405 175.921C68.6868 175.707 68.8276 175.411 68.8276 175.034C68.8276 174.732 68.7234 174.495 68.5149 174.324C68.3093 174.152 68.0289 174.066 67.674 174.066C67.4035 174.066 67.1485 174.102 66.9091 174.176C66.6696 174.249 66.3963 174.384 66.0892 174.581L65.7343 174.108C65.9878 173.908 66.2794 173.752 66.609 173.639C66.9415 173.523 67.2908 173.466 67.6571 173.466C68.2571 173.466 68.7234 173.604 69.0558 173.88C69.3883 174.153 69.5545 174.529 69.5545 175.008ZM73.2775 179.733H72.5929V175.329C72.5929 174.963 72.6042 174.617 72.6267 174.29C72.5676 174.349 72.5013 174.411 72.4281 174.476C72.3549 174.541 72.0196 174.815 71.4223 175.3L71.0505 174.818L72.6859 173.554H73.2775V179.733ZM80.5461 173.554L78.2429 179.733H77.5414L79.8446 173.554H80.5461ZM87.4005 176.635C87.4005 177.703 87.2314 178.5 86.8934 179.027C86.5581 179.554 86.044 179.817 85.3509 179.817C84.686 179.817 84.1803 179.548 83.8338 179.01C83.4873 178.469 83.314 177.678 83.314 176.635C83.314 175.559 83.4817 174.76 83.8169 174.239C84.1522 173.718 84.6635 173.457 85.3509 173.457C86.0214 173.457 86.5299 173.729 86.8765 174.273C87.2258 174.817 87.4005 175.604 87.4005 176.635ZM84.024 176.635C84.024 177.534 84.1296 178.189 84.3409 178.6C84.5522 179.009 84.8889 179.213 85.3509 179.213C85.8186 179.213 86.1567 179.006 86.3651 178.592C86.5764 178.175 86.6821 177.523 86.6821 176.635C86.6821 175.748 86.5764 175.098 86.3651 174.687C86.1567 174.273 85.8186 174.066 85.3509 174.066C84.8889 174.066 84.5522 174.27 84.3409 174.679C84.1296 175.084 84.024 175.736 84.024 176.635ZM90.3037 173.466C90.8671 173.466 91.3137 173.597 91.6433 173.859C91.9729 174.121 92.1377 174.483 92.1377 174.945C92.1377 175.249 92.0433 175.527 91.8546 175.777C91.6658 176.028 91.3644 176.256 90.9502 176.462C91.4517 176.701 91.8081 176.954 92.0194 177.218C92.2307 177.48 92.3363 177.785 92.3363 178.131C92.3363 178.644 92.1574 179.054 91.7996 179.361C91.4419 179.665 90.9517 179.817 90.329 179.817C89.6698 179.817 89.1627 179.674 88.8077 179.386C88.4527 179.096 88.2752 178.686 88.2752 178.156C88.2752 177.449 88.7063 176.899 89.5684 176.504C89.1796 176.284 88.9007 176.048 88.7316 175.794C88.5626 175.538 88.4781 175.252 88.4781 174.936C88.4781 174.488 88.6429 174.132 88.9725 173.867C89.305 173.6 89.7487 173.466 90.3037 173.466ZM88.9683 178.173C88.9683 178.511 89.0852 178.775 89.319 178.964C89.5557 179.152 89.8867 179.247 90.3121 179.247C90.7319 179.247 91.0587 179.148 91.2925 178.951C91.5264 178.754 91.6433 178.483 91.6433 178.14C91.6433 177.866 91.5334 177.624 91.3137 177.413C91.0939 177.199 90.7108 176.992 90.1642 176.792C89.7445 176.972 89.4402 177.172 89.2514 177.392C89.0627 177.609 88.9683 177.869 88.9683 178.173ZM90.2952 174.036C89.9431 174.036 89.667 174.121 89.467 174.29C89.2669 174.459 89.1669 174.684 89.1669 174.966C89.1669 175.225 89.25 175.448 89.4162 175.634C89.5825 175.82 89.8895 176.006 90.3375 176.191C90.7404 176.022 91.0249 175.841 91.1911 175.646C91.3602 175.452 91.4447 175.225 91.4447 174.966C91.4447 174.681 91.3418 174.456 91.1362 174.29C90.9333 174.121 90.653 174.036 90.2952 174.036ZM98.1258 173.554L95.8227 179.733H95.1212L97.4243 173.554H98.1258ZM104.946 179.733H100.885V179.128L102.512 177.493C103.008 176.992 103.335 176.634 103.493 176.42C103.65 176.206 103.769 175.997 103.848 175.794C103.927 175.591 103.966 175.373 103.966 175.139C103.966 174.81 103.866 174.549 103.666 174.357C103.466 174.163 103.188 174.066 102.833 174.066C102.577 174.066 102.333 174.108 102.102 174.193C101.874 174.277 101.619 174.431 101.338 174.653L100.966 174.176C101.535 173.702 102.155 173.466 102.825 173.466C103.405 173.466 103.86 173.615 104.19 173.914C104.52 174.209 104.684 174.608 104.684 175.11C104.684 175.501 104.575 175.889 104.355 176.272C104.135 176.655 103.724 177.139 103.121 177.725L101.769 179.048V179.082H104.946V179.733ZM109.933 176.635C109.933 177.703 109.764 178.5 109.426 179.027C109.091 179.554 108.576 179.817 107.883 179.817C107.219 179.817 106.713 179.548 106.366 179.01C106.02 178.469 105.847 177.678 105.847 176.635C105.847 175.559 106.014 174.76 106.349 174.239C106.685 173.718 107.196 173.457 107.883 173.457C108.554 173.457 109.062 173.729 109.409 174.273C109.758 174.817 109.933 175.604 109.933 176.635ZM106.557 176.635C106.557 177.534 106.662 178.189 106.873 178.6C107.085 179.009 107.421 179.213 107.883 179.213C108.351 179.213 108.689 179.006 108.898 178.592C109.109 178.175 109.215 177.523 109.215 176.635C109.215 175.748 109.109 175.098 108.898 174.687C108.689 174.273 108.351 174.066 107.883 174.066C107.421 174.066 107.085 174.27 106.873 174.679C106.662 175.084 106.557 175.736 106.557 176.635ZM114.852 179.733H110.791V179.128L112.418 177.493C112.914 176.992 113.24 176.634 113.398 176.42C113.556 176.206 113.674 175.997 113.753 175.794C113.832 175.591 113.872 175.373 113.872 175.139C113.872 174.81 113.772 174.549 113.572 174.357C113.371 174.163 113.094 174.066 112.739 174.066C112.483 174.066 112.239 174.108 112.008 174.193C111.78 174.277 111.525 174.431 111.243 174.653L110.871 174.176C111.44 173.702 112.06 173.466 112.731 173.466C113.311 173.466 113.766 173.615 114.096 173.914C114.425 174.209 114.59 174.608 114.59 175.11C114.59 175.501 114.48 175.889 114.26 176.272C114.041 176.655 113.629 177.139 113.026 177.725L111.674 179.048V179.082H114.852V179.733ZM119.839 176.635C119.839 177.703 119.669 178.5 119.331 179.027C118.996 179.554 118.482 179.817 117.789 179.817C117.124 179.817 116.618 179.548 116.272 179.01C115.925 178.469 115.752 177.678 115.752 176.635C115.752 175.559 115.92 174.76 116.255 174.239C116.59 173.718 117.102 173.457 117.789 173.457C118.459 173.457 118.968 173.729 119.315 174.273C119.664 174.817 119.839 175.604 119.839 176.635ZM116.462 176.635C116.462 177.534 116.568 178.189 116.779 178.6C116.99 179.009 117.327 179.213 117.789 179.213C118.257 179.213 118.595 179.006 118.803 178.592C119.014 178.175 119.12 177.523 119.12 176.635C119.12 175.748 119.014 175.098 118.803 174.687C118.595 174.273 118.257 174.066 117.789 174.066C117.327 174.066 116.99 174.27 116.779 174.679C116.568 175.084 116.462 175.736 116.462 176.635Z" fill="#212121" fill-opacity="0.8"/>
<path d="M80.2645 114.429L79.4954 112.464H77.019L76.2583 114.429H75.5315L77.9741 108.226H78.5784L81.0083 114.429H80.2645ZM79.2714 111.818L78.553 109.903C78.46 109.661 78.3643 109.364 78.2657 109.012C78.2037 109.282 78.1149 109.58 77.9994 109.903L77.2726 111.818H79.2714ZM82.4113 109.798V112.802C82.4113 113.18 82.4972 113.462 82.669 113.648C82.8409 113.834 83.11 113.927 83.4762 113.927C83.9608 113.927 84.3143 113.794 84.5369 113.529C84.7623 113.265 84.875 112.832 84.875 112.232V109.798H85.5765V114.429H84.9975L84.8961 113.808H84.8581C84.7144 114.036 84.5144 114.211 84.258 114.332C84.0044 114.453 83.7143 114.514 83.3875 114.514C82.824 114.514 82.4014 114.38 82.1197 114.113C81.8408 113.845 81.7013 113.417 81.7013 112.828V109.798H82.4113ZM90.8589 109.798V110.242L90.001 110.343C90.0799 110.442 90.1503 110.571 90.2123 110.732C90.2743 110.89 90.3053 111.068 90.3053 111.268C90.3053 111.722 90.1503 112.084 89.8404 112.355C89.5305 112.625 89.1051 112.76 88.5642 112.76C88.4261 112.76 88.2965 112.749 88.1754 112.726C87.8768 112.884 87.7275 113.083 87.7275 113.322C87.7275 113.449 87.7796 113.543 87.8838 113.605C87.9881 113.665 88.167 113.694 88.4205 113.694H89.2403C89.7418 113.694 90.1264 113.8 90.394 114.011C90.6645 114.222 90.7997 114.529 90.7997 114.932C90.7997 115.445 90.594 115.835 90.1827 116.103C89.7714 116.373 89.1713 116.509 88.3825 116.509C87.7768 116.509 87.3091 116.396 86.9795 116.171C86.6527 115.945 86.4893 115.627 86.4893 115.215C86.4893 114.934 86.5794 114.69 86.7597 114.484C86.94 114.279 87.1936 114.139 87.5204 114.066C87.4021 114.012 87.302 113.929 87.2203 113.817C87.1415 113.704 87.102 113.573 87.102 113.424C87.102 113.255 87.1471 113.107 87.2373 112.98C87.3274 112.853 87.4697 112.731 87.6641 112.612C87.4246 112.514 87.2288 112.346 87.0767 112.109C86.9274 111.873 86.8527 111.602 86.8527 111.298C86.8527 110.791 87.0048 110.401 87.3091 110.127C87.6134 109.851 88.0444 109.713 88.6022 109.713C88.8445 109.713 89.0628 109.742 89.2572 109.798H90.8589ZM87.1654 115.207C87.1654 115.458 87.2711 115.648 87.4824 115.778C87.6937 115.907 87.9965 115.972 88.3909 115.972C88.9797 115.972 89.415 115.883 89.6967 115.706C89.9813 115.531 90.1235 115.293 90.1235 114.991C90.1235 114.741 90.0461 114.566 89.8911 114.467C89.7362 114.372 89.4446 114.324 89.0164 114.324H88.1754C87.8571 114.324 87.6091 114.4 87.4316 114.552C87.2542 114.704 87.1654 114.922 87.1654 115.207ZM87.5457 111.281C87.5457 111.605 87.6373 111.85 87.8204 112.016C88.0036 112.183 88.2585 112.266 88.5853 112.266C89.2699 112.266 89.6122 111.933 89.6122 111.268C89.6122 110.573 89.2657 110.225 88.5726 110.225C88.243 110.225 87.9895 110.313 87.812 110.491C87.6345 110.668 87.5457 110.932 87.5457 111.281ZM97.7978 114.429H93.7367V113.825L95.3637 112.19C95.8595 111.688 96.1863 111.33 96.3441 111.116C96.5018 110.902 96.6202 110.694 96.6991 110.491C96.7779 110.288 96.8174 110.07 96.8174 109.836C96.8174 109.506 96.7174 109.246 96.5173 109.054C96.3173 108.86 96.0398 108.763 95.6848 108.763C95.4285 108.763 95.1848 108.805 94.9538 108.889C94.7256 108.974 94.4706 109.127 94.1889 109.35L93.817 108.872C94.3861 108.399 95.0059 108.162 95.6764 108.162C96.2567 108.162 96.7117 108.312 97.0414 108.61C97.371 108.906 97.5358 109.305 97.5358 109.806C97.5358 110.198 97.4259 110.585 97.2062 110.968C96.9864 111.352 96.5751 111.836 95.9722 112.422L94.6199 113.745V113.779H97.7978V114.429ZM103.042 113.01H102.125V114.429H101.453V113.01H98.4486V112.397L101.381 108.217H102.125V112.371H103.042V113.01ZM101.453 112.371V110.318C101.453 109.915 101.467 109.46 101.495 108.953H101.462C101.326 109.223 101.2 109.447 101.081 109.625L99.1501 112.371H101.453Z" fill="#212121" fill-opacity="0.8"/>
<path d="M14.961 114.429L14.1919 112.464H11.7155L10.9549 114.429H10.228L12.6706 108.226H13.2749L15.7048 114.429H14.961ZM13.968 111.818L13.2495 109.903C13.1566 109.661 13.0608 109.364 12.9622 109.012C12.9002 109.282 12.8115 109.58 12.696 109.903L11.9691 111.818H13.968ZM17.1078 109.798V112.802C17.1078 113.18 17.1937 113.462 17.3656 113.648C17.5374 113.834 17.8065 113.927 18.1727 113.927C18.6573 113.927 19.0109 113.794 19.2334 113.529C19.4588 113.265 19.5715 112.832 19.5715 112.232V109.798H20.273V114.429H19.6941L19.5926 113.808H19.5546C19.4109 114.036 19.2109 114.211 18.9545 114.332C18.701 114.453 18.4108 114.514 18.084 114.514C17.5205 114.514 17.0979 114.38 16.8162 114.113C16.5373 113.845 16.3978 113.417 16.3978 112.828V109.798H17.1078ZM25.5554 109.798V110.242L24.6975 110.343C24.7764 110.442 24.8468 110.571 24.9088 110.732C24.9708 110.89 25.0018 111.068 25.0018 111.268C25.0018 111.722 24.8468 112.084 24.5369 112.355C24.227 112.625 23.8016 112.76 23.2607 112.76C23.1227 112.76 22.9931 112.749 22.8719 112.726C22.5733 112.884 22.424 113.083 22.424 113.322C22.424 113.449 22.4761 113.543 22.5803 113.605C22.6846 113.665 22.8635 113.694 23.117 113.694H23.9369C24.4383 113.694 24.8229 113.8 25.0905 114.011C25.361 114.222 25.4962 114.529 25.4962 114.932C25.4962 115.445 25.2906 115.835 24.8792 116.103C24.4679 116.373 23.8678 116.509 23.079 116.509C22.4733 116.509 22.0056 116.396 21.676 116.171C21.3492 115.945 21.1858 115.627 21.1858 115.215C21.1858 114.934 21.276 114.69 21.4563 114.484C21.6366 114.279 21.8901 114.139 22.2169 114.066C22.0986 114.012 21.9986 113.929 21.9169 113.817C21.838 113.704 21.7986 113.573 21.7986 113.424C21.7986 113.255 21.8436 113.107 21.9338 112.98C22.0239 112.853 22.1662 112.731 22.3606 112.612C22.1211 112.514 21.9253 112.346 21.7732 112.109C21.6239 111.873 21.5492 111.602 21.5492 111.298C21.5492 110.791 21.7014 110.401 22.0056 110.127C22.3099 109.851 22.7409 109.713 23.2988 109.713C23.541 109.713 23.7594 109.742 23.9538 109.798H25.5554ZM21.8619 115.207C21.8619 115.458 21.9676 115.648 22.1789 115.778C22.3902 115.907 22.693 115.972 23.0875 115.972C23.6763 115.972 24.1115 115.883 24.3933 115.706C24.6778 115.531 24.8201 115.293 24.8201 114.991C24.8201 114.741 24.7426 114.566 24.5877 114.467C24.4327 114.372 24.1411 114.324 23.7129 114.324H22.8719C22.5536 114.324 22.3057 114.4 22.1282 114.552C21.9507 114.704 21.8619 114.922 21.8619 115.207ZM22.2423 111.281C22.2423 111.605 22.3338 111.85 22.517 112.016C22.7001 112.183 22.955 112.266 23.2818 112.266C23.9664 112.266 24.3087 111.933 24.3087 111.268C24.3087 110.573 23.9622 110.225 23.2692 110.225C22.9396 110.225 22.686 110.313 22.5085 110.491C22.331 110.668 22.2423 110.932 22.2423 111.281ZM31.0322 114.429H30.3476V110.026C30.3476 109.66 30.3588 109.313 30.3814 108.986C30.3222 109.046 30.256 109.108 30.1828 109.172C30.1095 109.237 29.7743 109.512 29.177 109.996L28.8051 109.515L30.4405 108.251H31.0322V114.429ZM34.1678 114.429L36.7287 108.898H33.3606V108.251H37.4724V108.813L34.9453 114.429H34.1678Z" fill="#212121" fill-opacity="0.8"/>
<path d="M-9.44165 184.895H52.7145" stroke="#212121" stroke-opacity="0.2" stroke-width="0.345858"/>
<path d="M65.3032 184.895H143.982" stroke="#212121" stroke-opacity="0.2" stroke-width="0.345858"/>
<path d="M-6.29443 84.1862H131.393" stroke="#212121" stroke-opacity="0.2" stroke-width="0.345858"/>
<path d="M-6.29443 68.4505H131.393" stroke="#212121" stroke-opacity="0.2" stroke-width="0.345858"/>
<path d="M-6.29443 52.7147H131.393" stroke="#212121" stroke-opacity="0.2" stroke-width="0.345858"/>
<path d="M-6.29443 36.979H131.393" stroke="#212121" stroke-opacity="0.2" stroke-width="0.472072"/>
<path d="M89.6936 99.9219L89.6936 36.979" stroke="#CFCFCF" stroke-width="0.472072"/>
<path d="M24.3901 99.9219L24.3901 36.979" stroke="#CFCFCF" stroke-width="0.472072"/>
<path d="M-4.72095 99.9219H132.18" stroke="#A3A3A3" stroke-width="0.786787"/>
<path d="M168.372 36.1922H305.273" stroke="#F18FCE" stroke-width="1.18018"/>
<path d="M168.372 15.7357H305.273" stroke="#ED8C6B" stroke-width="1.18018"/>
<path d="M49.2478 171.455H48.4364V170.576C48.4364 170.475 48.335 170.373 48.2336 170.373H47.5574C47.4391 170.373 47.3546 170.475 47.3546 170.576V171.455H45.1909V170.576C45.1909 170.475 45.0895 170.373 44.9881 170.373H44.3119C44.1936 170.373 44.1091 170.475 44.1091 170.576V171.455H43.2977C42.8413 171.455 42.4863 171.827 42.4863 172.266V178.216C42.4863 178.673 42.8413 179.028 43.2977 179.028H49.2478C49.6873 179.028 50.0592 178.673 50.0592 178.216V172.266C50.0592 171.827 49.6873 171.455 49.2478 171.455ZM49.1464 178.216H43.3991C43.3315 178.216 43.2977 178.183 43.2977 178.115V173.078H49.2478V178.115C49.2478 178.183 49.1971 178.216 49.1464 178.216Z" fill="#212121" fill-opacity="0.4"/>
<path d="M142.875 171.455H142.064V170.576C142.064 170.475 141.962 170.373 141.861 170.373H141.185C141.067 170.373 140.982 170.475 140.982 170.576V171.455H138.818V170.576C138.818 170.475 138.717 170.373 138.616 170.373H137.939C137.821 170.373 137.737 170.475 137.737 170.576V171.455H136.925C136.469 171.455 136.114 171.827 136.114 172.266V178.216C136.114 178.673 136.469 179.028 136.925 179.028H142.875C143.315 179.028 143.687 178.673 143.687 178.216V172.266C143.687 171.827 143.315 171.455 142.875 171.455ZM142.774 178.216H137.027C136.959 178.216 136.925 178.183 136.925 178.115V173.078H142.875V178.115C142.875 178.183 142.825 178.216 142.774 178.216Z" fill="#212121" fill-opacity="0.4"/>
<circle cx="186.862" cy="16.1291" r="6.68769" fill="#ED8C6B" fill-opacity="0.2"/>
<circle cx="214.399" cy="35.7988" r="6.68769" fill="#F18FCE" fill-opacity="0.2"/>
<circle cx="186.862" cy="16.1291" r="4.32733" fill="#ED8C6B"/>
<circle cx="214.399" cy="35.7988" r="4.32733" fill="#F18FCE"/>
<path d="M-5.50732 82.6126L15.7359 70.024H42.0933L56.2554 55.4685L75.1383 60.976L91.6609 55.4685L110.544 60.976L127.853 45.6336" stroke="#F18FCE" stroke-width="1.18018"/>
</g>
<rect x="0.5" y="0.5" width="261" height="193" rx="7.36787" stroke="#CECECE"/>
<defs>
<filter id="filter0_d" x="-24.8422" y="-22.4817" width="196.813" height="174.783" filterUnits="userSpaceOnUse" color-interpolation-filters="sRGB">
<feFlood flood-opacity="0" result="BackgroundImageFix"/>
<feColorMatrix in="SourceAlpha" type="matrix" values="0 0 0 0 0 0 0 0 0 0 0 0 0 0 0 0 0 0 127 0"/>
<feOffset/>
<feGaussianBlur stdDeviation="7.7003"/>
<feColorMatrix type="matrix" values="0 0 0 0 0 0 0 0 0 0 0 0 0 0 0 0 0 0 0.1 0"/>
<feBlend mode="normal" in2="BackgroundImageFix" result="effect1_dropShadow"/>
<feBlend mode="normal" in="SourceGraphic" in2="effect1_dropShadow" result="shape"/>
</filter>
<filter id="filter1_d" x="152.972" y="82.161" width="196.813" height="174.783" filterUnits="userSpaceOnUse" color-interpolation-filters="sRGB">
<feFlood flood-opacity="0" result="BackgroundImageFix"/>
<feColorMatrix in="SourceAlpha" type="matrix" values="0 0 0 0 0 0 0 0 0 0 0 0 0 0 0 0 0 0 127 0"/>
<feOffset/>
<feGaussianBlur stdDeviation="7.7003"/>
<feColorMatrix type="matrix" values="0 0 0 0 0 0 0 0 0 0 0 0 0 0 0 0 0 0 0.1 0"/>
<feBlend mode="normal" in2="BackgroundImageFix" result="effect1_dropShadow"/>
<feBlend mode="normal" in="SourceGraphic" in2="effect1_dropShadow" result="shape"/>
</filter>
<filter id="filter2_d" x="-24.8422" y="132.515" width="196.813" height="85.8763" filterUnits="userSpaceOnUse" color-interpolation-filters="sRGB">
<feFlood flood-opacity="0" result="BackgroundImageFix"/>
<feColorMatrix in="SourceAlpha" type="matrix" values="0 0 0 0 0 0 0 0 0 0 0 0 0 0 0 0 0 0 127 0"/>
<feOffset/>
<feGaussianBlur stdDeviation="7.7003"/>
<feColorMatrix type="matrix" values="0 0 0 0 0 0 0 0 0 0 0 0 0 0 0 0 0 0 0.1 0"/>
<feBlend mode="normal" in2="BackgroundImageFix" result="effect1_dropShadow"/>
<feBlend mode="normal" in="SourceGraphic" in2="effect1_dropShadow" result="shape"/>
</filter>
</defs>
</svg>
