<svg width="262" height="194" viewBox="0 0 262 194" fill="none" xmlns="http://www.w3.org/2000/svg">
<rect width="262" height="194" rx="7.86787" fill="#FAFAFA"/>
<mask id="mask0" mask-type="alpha" maskUnits="userSpaceOnUse" x="0" y="0" width="262" height="194">
<rect width="262" height="194" rx="7.86787" fill="#FAFAFA"/>
</mask>
<g mask="url(#mask0)">
<g filter="url(#filter0_d)">
<rect x="-32.2583" y="12.5886" width="301.339" height="114.871" rx="7.86787" fill="white"/>
</g>
<path d="M64.5166 70.8108H235.249" stroke="#212121" stroke-opacity="0.2" stroke-width="0.345858"/>
<path d="M-32.2583 84.1862H269.081" stroke="#212121" stroke-opacity="0.2" stroke-width="0.345858"/>
<path d="M-14.6598 30.3216C-15.504 30.3216 -16.1678 30.6207 -16.6514 31.219C-17.1349 31.8173 -17.3767 32.643 -17.3767 33.6962C-17.3767 34.7985 -17.1452 35.6324 -16.6821 36.1979C-16.2149 36.7634 -15.5409 37.0462 -14.6598 37.0462C-14.2787 37.0462 -13.9099 37.0093 -13.5534 36.9355C-13.1969 36.8577 -12.826 36.7593 -12.4408 36.6405V37.9006C-13.1457 38.1669 -13.9447 38.3001 -14.8381 38.3001C-16.1535 38.3001 -17.1636 37.9026 -17.8684 37.1076C-18.5733 36.3086 -18.9257 35.1673 -18.9257 33.6839C-18.9257 32.7496 -18.7556 31.9321 -18.4155 31.2313C-18.0713 30.5306 -17.5754 29.9938 -16.928 29.6209C-16.2805 29.248 -15.5204 29.0615 -14.6475 29.0615C-13.7296 29.0615 -12.8813 29.2541 -12.1028 29.6393L-12.6314 30.8625C-12.9346 30.7191 -13.2563 30.5941 -13.5964 30.4876C-13.9324 30.3769 -14.2869 30.3216 -14.6598 30.3216ZM-7.20993 31.2559C-6.91898 31.2559 -6.67926 31.2764 -6.49075 31.3174L-6.63213 32.6635C-6.83702 32.6143 -7.05011 32.5898 -7.27139 32.5898C-7.84919 32.5898 -8.31839 32.7783 -8.67901 33.1553C-9.03552 33.5323 -9.21377 34.022 -9.21377 34.6243V38.1772H-10.6583V31.3788H-9.52726L-9.33671 32.5775H-9.26295C-9.03757 32.1718 -8.74457 31.8501 -8.38396 31.6124C-8.01925 31.3747 -7.62791 31.2559 -7.20993 31.2559ZM-2.25563 38.3001C-3.31287 38.3001 -4.14064 37.9928 -4.73892 37.3781C-5.33311 36.7593 -5.63021 35.909 -5.63021 34.8272C-5.63021 33.7167 -5.3536 32.8438 -4.80039 32.2087C-4.24718 31.5735 -3.48703 31.2559 -2.51994 31.2559C-1.62251 31.2559 -0.913584 31.5284 -0.393157 32.0734C0.12727 32.6184 0.387483 33.3684 0.387483 34.3232V35.1038H-4.14269C-4.1222 35.7635 -3.94394 36.2717 -3.60792 36.6282C-3.2719 36.9806 -2.79859 37.1568 -2.18801 37.1568C-1.78643 37.1568 -1.41352 37.1199 -1.0693 37.0462C-0.720985 36.9683 -0.348081 36.8413 0.0494105 36.6651V37.8391C-0.303004 38.0071 -0.659517 38.126 -1.02013 38.1956C-1.38074 38.2653 -1.79257 38.3001 -2.25563 38.3001ZM-2.51994 32.35C-2.9789 32.35 -3.34771 32.4955 -3.62636 32.7865C-3.90091 33.0774 -4.06483 33.5015 -4.1181 34.0588H-1.03242C-1.04062 33.4974 -1.17585 33.0733 -1.43811 32.7865C-1.70037 32.4955 -2.06098 32.35 -2.51994 32.35ZM6.28224 38.1772L5.99334 37.2306H5.94416C5.61634 37.6445 5.28646 37.9272 4.95453 38.0788C4.62261 38.2264 4.19643 38.3001 3.67601 38.3001C3.00806 38.3001 2.48558 38.1198 2.10858 37.7592C1.73568 37.3986 1.54922 36.8884 1.54922 36.2287C1.54922 35.5279 1.80944 34.9993 2.32986 34.6428C2.85029 34.2863 3.64322 34.0916 4.70866 34.0588L5.8827 34.022V33.6593C5.8827 33.2249 5.78025 32.9012 5.57536 32.6881C5.37456 32.4709 5.06108 32.3623 4.6349 32.3623C4.28659 32.3623 3.95261 32.4136 3.63298 32.516C3.31335 32.6184 3.00601 32.7393 2.71096 32.8787L2.24381 31.846C2.61261 31.6534 3.01625 31.5079 3.45472 31.4096C3.89319 31.3071 4.30707 31.2559 4.69637 31.2559C5.56102 31.2559 6.21257 31.4444 6.65104 31.8214C7.09361 32.1984 7.3149 32.7906 7.3149 33.5978V38.1772H6.28224ZM4.13087 37.1937C4.65539 37.1937 5.07542 37.0482 5.39096 36.7573C5.71059 36.4622 5.8704 36.0504 5.8704 35.5218V34.9317L4.99756 34.9686C4.31732 34.9931 3.82148 35.1079 3.51004 35.3128C3.2027 35.5136 3.04904 35.823 3.04904 36.2409C3.04904 36.5442 3.13919 36.7798 3.31949 36.9478C3.4998 37.1117 3.77026 37.1937 4.13087 37.1937ZM11.8635 37.1322C12.2159 37.1322 12.5683 37.0769 12.9208 36.9663V38.0542C12.7609 38.1239 12.554 38.1813 12.2999 38.2264C12.05 38.2755 11.7897 38.3001 11.5193 38.3001C10.1506 38.3001 9.46626 37.5789 9.46626 36.1364V32.473H8.5381V31.8337L9.53388 31.3051L10.0256 29.8667H10.9169V31.3788H12.8531V32.473H10.9169V36.1119C10.9169 36.4602 11.003 36.7183 11.1751 36.8864C11.3513 37.0503 11.5808 37.1322 11.8635 37.1322ZM17.2542 38.3001C16.197 38.3001 15.3692 37.9928 14.7709 37.3781C14.1767 36.7593 13.8796 35.909 13.8796 34.8272C13.8796 33.7167 14.1563 32.8438 14.7095 32.2087C15.2627 31.5735 16.0228 31.2559 16.9899 31.2559C17.8873 31.2559 18.5963 31.5284 19.1167 32.0734C19.6371 32.6184 19.8973 33.3684 19.8973 34.3232V35.1038H15.3672C15.3877 35.7635 15.5659 36.2717 15.9019 36.6282C16.238 36.9806 16.7113 37.1568 17.3218 37.1568C17.7234 37.1568 18.0963 37.1199 18.4406 37.0462C18.7889 36.9683 19.1618 36.8413 19.5593 36.6651V37.8391C19.2069 38.0071 18.8503 38.126 18.4897 38.1956C18.1291 38.2653 17.7173 38.3001 17.2542 38.3001ZM16.9899 32.35C16.531 32.35 16.1621 32.4955 15.8835 32.7865C15.6089 33.0774 15.445 33.5015 15.3918 34.0588H18.4774C18.4692 33.4974 18.334 33.0733 18.0717 32.7865C17.8095 32.4955 17.4489 32.35 16.9899 32.35ZM29.0622 38.1772L28.7733 37.2306H28.7241C28.3963 37.6445 28.0664 37.9272 27.7345 38.0788C27.4025 38.2264 26.9764 38.3001 26.4559 38.3001C25.788 38.3001 25.2655 38.1198 24.8885 37.7592C24.5156 37.3986 24.3292 36.8884 24.3292 36.2287C24.3292 35.5279 24.5894 34.9993 25.1098 34.6428C25.6302 34.2863 26.4232 34.0916 27.4886 34.0588L28.6626 34.022V33.6593C28.6626 33.2249 28.5602 32.9012 28.3553 32.6881C28.1545 32.4709 27.841 32.3623 27.4148 32.3623C27.0665 32.3623 26.7325 32.4136 26.4129 32.516C26.0933 32.6184 25.7859 32.7393 25.4909 32.8787L25.0237 31.846C25.3926 31.6534 25.7962 31.5079 26.2347 31.4096C26.6731 31.3071 27.087 31.2559 27.4763 31.2559C28.341 31.2559 28.9925 31.4444 29.431 31.8214C29.8735 32.1984 30.0948 32.7906 30.0948 33.5978V38.1772H29.0622ZM26.9108 37.1937C27.4353 37.1937 27.8554 37.0482 28.1709 36.7573C28.4905 36.4622 28.6503 36.0504 28.6503 35.5218V34.9317L27.7775 34.9686C27.0973 34.9931 26.6014 35.1079 26.29 35.3128C25.9826 35.5136 25.829 35.823 25.829 36.2409C25.829 36.5442 25.9191 36.7798 26.0994 36.9478C26.2797 37.1117 26.5502 37.1937 26.9108 37.1937ZM39.9481 36.2409C39.9481 36.9048 39.7063 37.415 39.2228 37.7715C38.7392 38.1239 38.0467 38.3001 37.1452 38.3001C36.2396 38.3001 35.5122 38.1628 34.9631 37.8883V36.6405C35.7622 37.0093 36.5059 37.1937 37.1944 37.1937C38.0836 37.1937 38.5282 36.9253 38.5282 36.3885C38.5282 36.2164 38.479 36.0729 38.3807 35.9582C38.2823 35.8435 38.1205 35.7246 37.8951 35.6017C37.6697 35.4787 37.3562 35.3394 36.9546 35.1837C36.1719 34.8805 35.6413 34.5772 35.3626 34.274C35.0881 33.9707 34.9508 33.5773 34.9508 33.0938C34.9508 32.5119 35.1844 32.0611 35.6515 31.7415C36.1228 31.4178 36.762 31.2559 37.5693 31.2559C38.3684 31.2559 39.1244 31.4178 39.8375 31.7415L39.3703 32.8295C38.6368 32.5262 38.0201 32.3746 37.5201 32.3746C36.7579 32.3746 36.3768 32.5918 36.3768 33.0262C36.3768 33.2393 36.4752 33.4196 36.6719 33.5671C36.8727 33.7146 37.307 33.9175 37.975 34.1756C38.5364 34.3928 38.9441 34.5916 39.1982 34.7719C39.4523 34.9522 39.6408 35.1612 39.7637 35.3988C39.8866 35.6324 39.9481 35.9131 39.9481 36.2409ZM46.31 38.1772L46.1072 37.2859H46.0334C45.8326 37.6014 45.5458 37.8493 45.1729 38.0297C44.8041 38.21 44.382 38.3001 43.9066 38.3001C43.083 38.3001 42.4683 38.0952 42.0626 37.6854C41.6569 37.2757 41.4541 36.6548 41.4541 35.823V31.3788H42.9109V35.5709C42.9109 36.0914 43.0174 36.4827 43.2305 36.745C43.4436 37.0031 43.7775 37.1322 44.2324 37.1322C44.8389 37.1322 45.2835 36.9519 45.5663 36.5913C45.8531 36.2266 45.9965 35.6181 45.9965 34.7657V31.3788H47.4472V38.1772H46.31ZM52.9547 31.2559C53.2456 31.2559 53.4853 31.2764 53.6738 31.3174L53.5325 32.6635C53.3276 32.6143 53.1145 32.5898 52.8932 32.5898C52.3154 32.5898 51.8462 32.7783 51.4856 33.1553C51.1291 33.5323 50.9508 34.022 50.9508 34.6243V38.1772H49.5063V31.3788H50.6373L50.8279 32.5775H50.9017C51.127 32.1718 51.42 31.8501 51.7806 31.6124C52.1454 31.3747 52.5367 31.2559 52.9547 31.2559ZM56.4891 38.1772L53.9074 31.3788H55.4318L56.8148 35.3312C57.0525 35.9951 57.1959 36.5319 57.2451 36.9417H57.2943C57.3312 36.6466 57.4746 36.1098 57.7246 35.3312L59.1076 31.3788H60.6443L58.0503 38.1772H56.4891ZM64.6458 38.3001C63.5886 38.3001 62.7608 37.9928 62.1625 37.3781C61.5684 36.7593 61.2713 35.909 61.2713 34.8272C61.2713 33.7167 61.5479 32.8438 62.1011 32.2087C62.6543 31.5735 63.4144 31.2559 64.3815 31.2559C65.279 31.2559 65.9879 31.5284 66.5083 32.0734C67.0287 32.6184 67.2889 33.3684 67.2889 34.3232V35.1038H62.7588C62.7793 35.7635 62.9575 36.2717 63.2935 36.6282C63.6296 36.9806 64.1029 37.1568 64.7135 37.1568C65.115 37.1568 65.4879 37.1199 65.8322 37.0462C66.1805 36.9683 66.5534 36.8413 66.9509 36.6651V37.8391C66.5985 38.0071 66.2419 38.126 65.8813 38.1956C65.5207 38.2653 65.1089 38.3001 64.6458 38.3001ZM64.3815 32.35C63.9226 32.35 63.5538 32.4955 63.2751 32.7865C63.0005 33.0774 62.8366 33.5015 62.7834 34.0588H65.869C65.8608 33.4974 65.7256 33.0733 65.4634 32.7865C65.2011 32.4955 64.8405 32.35 64.3815 32.35ZM67.8975 31.3788H69.471L70.8541 35.2329C71.0631 35.782 71.2024 36.2983 71.2721 36.7819H71.3212C71.3581 36.5565 71.4257 36.284 71.5241 35.9643C71.6224 35.6406 72.1428 34.1121 73.0854 31.3788H74.6466L71.7392 39.0808C71.2106 40.4945 70.3295 41.2014 69.0961 41.2014C68.7765 41.2014 68.465 41.1666 68.1618 41.0969V39.9536C68.379 40.0028 68.6269 40.0274 68.9055 40.0274C69.6022 40.0274 70.0919 39.6237 70.3746 38.8164L70.6266 38.1772L67.8975 31.3788Z" fill="#212121" fill-opacity="0.8"/>
<path d="M-16.1358 56.3459L-16.3671 58.4704L-14.2265 57.8734L-14.0866 58.8522L-16.1358 59.019L-14.802 60.7723L-15.727 61.2779L-16.6737 59.3309L-17.5342 61.2779L-18.4808 60.7723L-17.1792 59.019L-19.2069 58.8522L-19.0509 57.8734L-16.948 58.4704L-17.1792 56.3459H-16.1358Z" fill="#ED8C6B"/>
<path d="M-5.21223 62.6225C-5.21223 63.3145 -5.46322 63.8542 -5.96521 64.2414C-6.46719 64.6287 -7.14846 64.8223 -8.00901 64.8223C-8.94127 64.8223 -9.65839 64.7022 -10.1604 64.4619V63.5799C-9.83767 63.7161 -9.48628 63.8237 -9.10621 63.9026C-8.72613 63.9815 -8.34964 64.0209 -7.97674 64.0209C-7.36718 64.0209 -6.90822 63.9062 -6.59986 63.6767C-6.2915 63.4436 -6.13732 63.1209 -6.13732 62.7086C-6.13732 62.4361 -6.19289 62.2138 -6.30405 62.0416C-6.41162 61.8659 -6.59448 61.7046 -6.85265 61.5576C-7.10722 61.4106 -7.49626 61.2438 -8.01976 61.0574C-8.75123 60.7956 -9.27473 60.4855 -9.59026 60.1269C-9.90221 59.7684 -10.0582 59.3004 -10.0582 58.7232C-10.0582 58.1172 -9.8305 57.6349 -9.37513 57.2764C-8.91975 56.9178 -8.31737 56.7385 -7.56798 56.7385C-6.78631 56.7385 -6.0674 56.8819 -5.41123 57.1688L-5.69628 57.9648C-6.34528 57.6923 -6.97635 57.556 -7.58949 57.556C-8.07355 57.556 -8.45183 57.66 -8.72434 57.868C-8.99684 58.076 -9.1331 58.3646 -9.1331 58.7339C-9.1331 59.0064 -9.0829 59.2305 -8.9825 59.4062C-8.88211 59.5783 -8.71358 59.7379 -8.47693 59.8849C-8.23669 60.0283 -7.87096 60.1879 -7.37973 60.3636C-6.55504 60.6576 -5.98851 60.9731 -5.68015 61.3102C-5.3682 61.6472 -5.21223 62.0847 -5.21223 62.6225ZM-2.8995 58.82V62.644C-2.8995 63.1245 -2.79014 63.4831 -2.57142 63.7197C-2.3527 63.9564 -2.01027 64.0747 -1.54414 64.0747C-0.927414 64.0747 -0.477419 63.9062 -0.194156 63.5691C0.0926937 63.2321 0.236118 62.6817 0.236118 61.9179V58.82H1.12894V64.7147H0.392093L0.263011 63.9241H0.214605C0.0317382 64.2145 -0.222841 64.4368 -0.549132 64.591C-0.871837 64.7452 -1.24116 64.8223 -1.65709 64.8223C-2.37421 64.8223 -2.91205 64.652 -3.27061 64.3113C-3.62559 63.9707 -3.80308 63.4257 -3.80308 62.6763V58.82H-2.8995ZM5.71673 58.7124C5.97848 58.7124 6.21334 58.7339 6.42131 58.7769L6.2976 59.6052C6.05378 59.5514 5.83864 59.5245 5.65219 59.5245C5.1753 59.5245 4.76654 59.7182 4.42591 60.1054C4.08886 60.4927 3.92034 60.9749 3.92034 61.5522V64.7147H3.02752V58.82H3.76436L3.86655 59.9118H3.90958C4.1283 59.5281 4.39185 59.2323 4.70021 59.0243C5.00857 58.8164 5.34741 58.7124 5.71673 58.7124ZM8.81471 64.7147L6.57728 58.82H7.53464L8.80395 62.3159C9.0908 63.1335 9.25932 63.6641 9.30952 63.908H9.35255C9.39199 63.7179 9.51569 63.3253 9.72366 62.7301C9.93521 62.1313 10.4067 60.8279 11.1382 58.82H12.0955L9.85812 64.7147H8.81471ZM15.5324 64.8223C14.6611 64.8223 13.9726 64.557 13.467 64.0263C12.9651 63.4956 12.7141 62.7588 12.7141 61.8158C12.7141 60.8656 12.9471 60.1108 13.4133 59.5514C13.883 58.9921 14.5123 58.7124 15.3011 58.7124C16.0397 58.7124 16.6242 58.9562 17.0545 59.4439C17.4847 59.9279 17.6999 60.568 17.6999 61.364V61.9287H13.6392C13.6571 62.6207 13.831 63.146 14.1609 63.5046C14.4943 63.8631 14.9622 64.0424 15.5646 64.0424C16.1993 64.0424 16.8268 63.9098 17.4471 63.6444V64.4404C17.1315 64.5767 16.8321 64.6735 16.5489 64.7309C16.2692 64.7918 15.9304 64.8223 15.5324 64.8223ZM15.2903 59.46C14.817 59.46 14.4387 59.6142 14.1555 59.9225C13.8758 60.2309 13.7109 60.6576 13.6607 61.2026H16.7425C16.7425 60.6397 16.617 60.2094 16.366 59.9118C16.115 59.6106 15.7565 59.46 15.2903 59.46ZM18.2915 58.82H19.2489L20.5397 62.1815C20.8229 62.9488 20.9986 63.5028 21.0668 63.8434H21.1098C21.1564 63.6606 21.2532 63.3486 21.4002 62.9076C21.5508 62.463 22.0385 61.1004 22.8632 58.82H23.8205L21.2873 65.5322C21.0363 66.1956 20.7423 66.6653 20.4052 66.9414C20.0718 67.2211 19.6612 67.3609 19.1736 67.3609C18.901 67.3609 18.6321 67.3304 18.3668 67.2695V66.5541C18.564 66.5972 18.7845 66.6187 19.0283 66.6187C19.6415 66.6187 20.0789 66.2745 20.3407 65.586L20.6688 64.747L18.2915 58.82ZM30.1939 64.7147H29.2796V57.6636H26.7894V56.8515H32.6842V57.6636H30.1939V64.7147ZM34.6311 64.7147H33.7383V58.82H34.6311V64.7147ZM33.663 57.2226C33.663 57.0182 33.7132 56.8694 33.8136 56.7762C33.914 56.6794 34.0395 56.6309 34.1901 56.6309C34.3335 56.6309 34.4572 56.6794 34.5612 56.7762C34.6652 56.873 34.7172 57.0218 34.7172 57.2226C34.7172 57.4234 34.6652 57.574 34.5612 57.6744C34.4572 57.7712 34.3335 57.8196 34.1901 57.8196C34.0395 57.8196 33.914 57.7712 33.8136 57.6744C33.7132 57.574 33.663 57.4234 33.663 57.2226ZM38.4283 64.0854C38.5861 64.0854 38.7385 64.0747 38.8855 64.0532C39.0325 64.0281 39.149 64.003 39.2351 63.9779V64.6609C39.1383 64.7076 38.9948 64.7452 38.8048 64.7739C38.6184 64.8062 38.4498 64.8223 38.2992 64.8223C37.159 64.8223 36.5889 64.2217 36.5889 63.0205V59.5138H35.7445V59.0835L36.5889 58.7124L36.9654 57.4538H37.4817V58.82H39.1921V59.5138H37.4817V62.9829C37.4817 63.3378 37.566 63.6104 37.7345 63.8004C37.903 63.9904 38.1343 64.0854 38.4283 64.0854ZM41.3112 64.7147H40.4183V56.3459H41.3112V64.7147ZM45.6946 64.8223C44.8233 64.8223 44.1348 64.557 43.6293 64.0263C43.1273 63.4956 42.8763 62.7588 42.8763 61.8158C42.8763 60.8656 43.1093 60.1108 43.5755 59.5514C44.0452 58.9921 44.6745 58.7124 45.4633 58.7124C46.2019 58.7124 46.7864 58.9562 47.2167 59.4439C47.6469 59.9279 47.8621 60.568 47.8621 61.364V61.9287H43.8014C43.8193 62.6207 43.9932 63.146 44.3231 63.5046C44.6565 63.8631 45.1245 64.0424 45.7268 64.0424C46.3615 64.0424 46.989 63.9098 47.6093 63.6444V64.4404C47.2938 64.5767 46.9944 64.6735 46.7111 64.7309C46.4314 64.7918 46.0926 64.8223 45.6946 64.8223ZM45.4525 59.46C44.9792 59.46 44.601 59.6142 44.3177 59.9225C44.038 60.2309 43.8731 60.6576 43.8229 61.2026H46.9047C46.9047 60.6397 46.7792 60.2094 46.5282 59.9118C46.2772 59.6106 45.9187 59.46 45.4525 59.46ZM49.2605 64.1446C49.2605 63.9044 49.3142 63.7233 49.4218 63.6014C49.533 63.4759 49.6907 63.4131 49.8951 63.4131C50.1031 63.4131 50.2644 63.4759 50.3792 63.6014C50.4975 63.7233 50.5567 63.9044 50.5567 64.1446C50.5567 64.3777 50.4975 64.557 50.3792 64.6825C50.2608 64.8079 50.0995 64.8707 49.8951 64.8707C49.7122 64.8707 49.5599 64.8151 49.4379 64.704C49.3196 64.5892 49.2605 64.4028 49.2605 64.1446ZM49.2605 59.3955C49.2605 58.9114 49.472 58.6694 49.8951 58.6694C50.3361 58.6694 50.5567 58.9114 50.5567 59.3955C50.5567 59.6285 50.4975 59.8078 50.3792 59.9333C50.2608 60.0588 50.0995 60.1215 49.8951 60.1215C49.7122 60.1215 49.5599 60.066 49.4379 59.9548C49.3196 59.8401 49.2605 59.6536 49.2605 59.3955Z" fill="#212121" fill-opacity="0.8"/>
<path d="M68.4259 64.2883L66.1393 58.3136H66.1025C66.1455 58.7869 66.167 59.3494 66.167 60.0009V64.2883H65.4432V57.5484H66.6234L68.7579 63.1081H68.7948L70.9477 57.5484H72.1186V64.2883H71.3349V59.9456C71.3349 59.4477 71.3564 58.9068 71.3994 58.3228H71.3626L69.0575 64.2883H68.4259ZM73.0545 59.2356H73.8751L74.9815 62.1169C75.2243 62.7746 75.3749 63.2495 75.4333 63.5415H75.4701C75.5101 63.3847 75.5931 63.1173 75.7191 62.7393C75.8482 62.3582 76.2662 61.1903 76.973 59.2356H77.7936L75.6223 64.989C75.4071 65.5576 75.1551 65.9602 74.8662 66.1969C74.5804 66.4366 74.2285 66.5565 73.8105 66.5565C73.5769 66.5565 73.3464 66.5303 73.119 66.4781V65.8649C73.288 65.9018 73.4771 65.9203 73.686 65.9203C74.2116 65.9203 74.5866 65.6252 74.8109 65.0351L75.0921 64.316L73.0545 59.2356ZM85.4187 64.2883L84.5797 62.1446H81.8782L81.0483 64.2883H80.2554L82.92 57.5207H83.5793L86.2301 64.2883H85.4187ZM84.3353 61.4393L83.5516 59.3509C83.4502 59.0866 83.3457 58.7623 83.2381 58.3782C83.1705 58.6732 83.0737 58.9975 82.9477 59.3509L82.1548 61.4393H84.3353ZM91.1675 64.2883L90.2408 61.324C90.1824 61.1427 90.0733 60.7308 89.9135 60.0885H89.8766C89.7537 60.6264 89.6461 61.0413 89.5539 61.3332L88.5997 64.2883H87.7145L86.3361 59.2356H87.1383C87.464 60.505 87.7114 61.4715 87.8805 62.1354C88.0526 62.7992 88.1509 63.2464 88.1755 63.4769H88.2124C88.2462 63.3017 88.3 63.0758 88.3738 62.7992C88.4506 62.5196 88.5167 62.2983 88.572 62.1354L89.4986 59.2356H90.3284L91.232 62.1354C91.4041 62.664 91.5209 63.1081 91.5824 63.4677H91.6193C91.6315 63.3571 91.6638 63.1865 91.7161 62.956C91.7714 62.7255 92.0926 61.4854 92.6796 59.2356H93.4725L92.0757 64.2883H91.1675ZM96.5244 64.3805C95.7775 64.3805 95.1875 64.1531 94.7541 63.6982C94.3238 63.2433 94.1087 62.6118 94.1087 61.8035C94.1087 60.989 94.3085 60.3421 94.708 59.8626C95.1106 59.3832 95.65 59.1434 96.3261 59.1434C96.9593 59.1434 97.4602 59.3524 97.829 59.7704C98.1978 60.1853 98.3822 60.7339 98.3822 61.4162V61.9003H94.9016C94.917 62.4934 95.0661 62.9437 95.3488 63.251C95.6346 63.5584 96.0357 63.712 96.552 63.712C97.096 63.712 97.6339 63.5983 98.1656 63.3709V64.0532C97.8951 64.17 97.6385 64.2529 97.3957 64.3021C97.156 64.3544 96.8655 64.3805 96.5244 64.3805ZM96.3169 59.7842C95.9112 59.7842 95.587 59.9164 95.3442 60.1807C95.1045 60.445 94.9631 60.8108 94.9201 61.2779H97.5616C97.5616 60.7954 97.4541 60.4266 97.2389 60.1715C97.0238 59.9133 96.7165 59.7842 96.3169 59.7842ZM102.951 62.9099C102.951 63.3801 102.776 63.7428 102.425 63.9979C102.075 64.2529 101.583 64.3805 100.95 64.3805C100.28 64.3805 99.7576 64.2745 99.3826 64.0624V63.3524C99.6254 63.4754 99.8851 63.5722 100.162 63.6429C100.441 63.7136 100.71 63.7489 100.968 63.7489C101.368 63.7489 101.675 63.6859 101.891 63.5599C102.106 63.4308 102.213 63.2357 102.213 62.9744C102.213 62.7777 102.127 62.6102 101.955 62.4719C101.786 62.3305 101.454 62.1646 100.959 61.974C100.489 61.7988 100.154 61.6467 99.9543 61.5176C99.7576 61.3855 99.6101 61.2364 99.5117 61.0705C99.4164 60.9045 99.3688 60.7063 99.3688 60.4758C99.3688 60.0639 99.5363 59.7397 99.8713 59.503C100.206 59.2633 100.666 59.1434 101.25 59.1434C101.794 59.1434 102.325 59.2541 102.845 59.4754L102.573 60.0977C102.066 59.8887 101.606 59.7842 101.194 59.7842C100.832 59.7842 100.558 59.8411 100.374 59.9548C100.189 60.0685 100.097 60.2253 100.097 60.425C100.097 60.5603 100.131 60.6755 100.199 60.7708C100.269 60.8661 100.381 60.9567 100.535 61.0428C100.689 61.1289 100.984 61.2533 101.42 61.4162C102.02 61.6344 102.424 61.8542 102.633 62.0755C102.845 62.2967 102.951 62.5749 102.951 62.9099ZM108.561 61.7574C108.561 62.581 108.354 63.2249 107.939 63.689C107.524 64.15 106.951 64.3805 106.219 64.3805C105.768 64.3805 105.367 64.2745 105.016 64.0624C104.666 63.8503 104.395 63.5461 104.205 63.1496C104.014 62.7531 103.919 62.2891 103.919 61.7574C103.919 60.9337 104.125 60.2929 104.537 59.835C104.949 59.3739 105.52 59.1434 106.252 59.1434C106.959 59.1434 107.519 59.3786 107.934 59.8488C108.352 60.319 108.561 60.9552 108.561 61.7574ZM104.712 61.7574C104.712 62.4028 104.841 62.8945 105.099 63.2326C105.357 63.5707 105.737 63.7397 106.238 63.7397C106.739 63.7397 107.118 63.5722 107.377 63.2372C107.638 62.8991 107.768 62.4058 107.768 61.7574C107.768 61.115 107.638 60.6279 107.377 60.296C107.118 59.961 106.736 59.7935 106.229 59.7935C105.728 59.7935 105.35 59.9579 105.095 60.2867C104.839 60.6156 104.712 61.1058 104.712 61.7574ZM116.348 64.2883V61.0013C116.348 60.5987 116.262 60.2975 116.09 60.0977C115.917 59.8949 115.65 59.7935 115.287 59.7935C114.811 59.7935 114.459 59.9302 114.232 60.2038C114.004 60.4773 113.891 60.8983 113.891 61.4669V64.2883H113.125V61.0013C113.125 60.5987 113.039 60.2975 112.867 60.0977C112.695 59.8949 112.426 59.7935 112.06 59.7935C111.581 59.7935 111.229 59.9379 111.005 60.2268C110.783 60.5126 110.673 60.9829 110.673 61.6375V64.2883H109.907V59.2356H110.53L110.654 59.9272H110.691C110.836 59.6813 111.038 59.4892 111.3 59.3509C111.564 59.2126 111.859 59.1434 112.185 59.1434C112.975 59.1434 113.491 59.4293 113.734 60.0009H113.771C113.921 59.7366 114.139 59.5276 114.425 59.3739C114.711 59.2203 115.037 59.1434 115.403 59.1434C115.974 59.1434 116.402 59.291 116.684 59.586C116.97 59.878 117.113 60.3467 117.113 60.9921V64.2883H116.348ZM120.829 64.3805C120.082 64.3805 119.492 64.1531 119.058 63.6982C118.628 63.2433 118.413 62.6118 118.413 61.8035C118.413 60.989 118.613 60.3421 119.012 59.8626C119.415 59.3832 119.954 59.1434 120.63 59.1434C121.264 59.1434 121.765 59.3524 122.133 59.7704C122.502 60.1853 122.687 60.7339 122.687 61.4162V61.9003H119.206C119.221 62.4934 119.37 62.9437 119.653 63.251C119.939 63.5584 120.34 63.712 120.856 63.712C121.4 63.712 121.938 63.5983 122.47 63.3709V64.0532C122.199 64.17 121.943 64.2529 121.7 64.3021C121.46 64.3544 121.17 64.3805 120.829 64.3805ZM120.621 59.7842C120.216 59.7842 119.891 59.9164 119.649 60.1807C119.409 60.445 119.267 60.8108 119.224 61.2779H121.866C121.866 60.7954 121.758 60.4266 121.543 60.1715C121.328 59.9133 121.021 59.7842 120.621 59.7842ZM130.367 62.495C130.367 63.0881 130.152 63.5507 129.722 63.8826C129.291 64.2145 128.707 64.3805 127.97 64.3805C127.171 64.3805 126.556 64.2775 126.126 64.0716V63.3156C126.402 63.4324 126.703 63.5246 127.029 63.5922C127.355 63.6598 127.678 63.6936 127.997 63.6936C128.52 63.6936 128.913 63.5952 129.178 63.3985C129.442 63.1988 129.574 62.9222 129.574 62.5687C129.574 62.3352 129.526 62.1446 129.431 61.9971C129.339 61.8465 129.182 61.7082 128.961 61.5822C128.743 61.4562 128.409 61.3133 127.961 61.1534C127.334 60.9291 126.885 60.6632 126.614 60.3559C126.347 60.0486 126.213 59.6475 126.213 59.1527C126.213 58.6333 126.408 58.2199 126.799 57.9126C127.189 57.6052 127.705 57.4515 128.348 57.4515C129.018 57.4515 129.634 57.5745 130.196 57.8204L129.952 58.5026C129.396 58.2691 128.855 58.1523 128.329 58.1523C127.914 58.1523 127.59 58.2414 127.357 58.4197C127.123 58.5979 127.006 58.8453 127.006 59.1619C127.006 59.3955 127.049 59.5875 127.135 59.7381C127.221 59.8857 127.366 60.0224 127.569 60.1484C127.775 60.2714 128.088 60.4081 128.509 60.5587C129.216 60.8108 129.702 61.0812 129.966 61.3701C130.233 61.659 130.367 62.034 130.367 62.495ZM132.349 59.2356V62.5134C132.349 62.9252 132.443 63.2326 132.631 63.4354C132.818 63.6383 133.112 63.7397 133.511 63.7397C134.04 63.7397 134.425 63.5952 134.668 63.3063C134.914 63.0174 135.037 62.5457 135.037 61.8911V59.2356H135.802V64.2883H135.171L135.06 63.6106H135.019C134.862 63.8596 134.644 64.0501 134.364 64.1823C134.087 64.3144 133.771 64.3805 133.414 64.3805C132.8 64.3805 132.339 64.2345 132.031 63.9425C131.727 63.6506 131.575 63.1834 131.575 62.5411V59.2356H132.349ZM139.735 59.1434C139.959 59.1434 140.16 59.1619 140.339 59.1988L140.233 59.9087C140.024 59.8626 139.839 59.8396 139.679 59.8396C139.271 59.8396 138.92 60.0055 138.628 60.3375C138.339 60.6694 138.195 61.0828 138.195 61.5776V64.2883H137.43V59.2356H138.061L138.149 60.1715H138.186C138.373 59.8426 138.599 59.5891 138.863 59.4108C139.128 59.2326 139.418 59.1434 139.735 59.1434ZM142.39 64.2883L140.472 59.2356H141.293L142.381 62.2322C142.627 62.9329 142.771 63.3878 142.814 63.5968H142.851C142.885 63.4339 142.991 63.0974 143.169 62.5872C143.35 62.0739 143.755 60.9567 144.382 59.2356H145.202L143.284 64.2883H142.39ZM148.148 64.3805C147.401 64.3805 146.811 64.1531 146.378 63.6982C145.947 63.2433 145.732 62.6118 145.732 61.8035C145.732 60.989 145.932 60.3421 146.332 59.8626C146.734 59.3832 147.274 59.1434 147.95 59.1434C148.583 59.1434 149.084 59.3524 149.453 59.7704C149.822 60.1853 150.006 60.7339 150.006 61.4162V61.9003H146.525C146.541 62.4934 146.69 62.9437 146.972 63.251C147.258 63.5584 147.659 63.712 148.176 63.712C148.72 63.712 149.258 63.5983 149.789 63.3709V64.0532C149.519 64.17 149.262 64.2529 149.019 64.3021C148.78 64.3544 148.489 64.3805 148.148 64.3805ZM147.941 59.7842C147.535 59.7842 147.211 59.9164 146.968 60.1807C146.728 60.445 146.587 60.8108 146.544 61.2779H149.185C149.185 60.7954 149.078 60.4266 148.863 60.1715C148.647 59.9133 148.34 59.7842 147.941 59.7842ZM150.513 59.2356H151.334L152.44 62.1169C152.683 62.7746 152.833 63.2495 152.892 63.5415H152.929C152.969 63.3847 153.052 63.1173 153.178 62.7393C153.307 62.3582 153.725 61.1903 154.432 59.2356H155.252L153.081 64.989C152.866 65.5576 152.614 65.9602 152.325 66.1969C152.039 66.4366 151.687 66.5565 151.269 66.5565C151.035 66.5565 150.805 66.5303 150.578 66.4781V65.8649C150.747 65.9018 150.936 65.9203 151.145 65.9203C151.67 65.9203 152.045 65.6252 152.269 65.0351L152.551 64.316L150.513 59.2356Z" fill="#212121" fill-opacity="0.5"/>
<g filter="url(#filter1_d)">
<rect x="102.282" y="80.2523" width="236.823" height="125.886" rx="7.86787" fill="white"/>
</g>
<rect x="-19.0793" y="95.7913" width="110.544" height="20.0631" rx="7.27778" fill="#ED8C6B" fill-opacity="0.1" stroke="#ED8C6B" stroke-width="1.18018"/>
<path d="M68.3409 103.856L70.5457 106.056L72.7506 103.856L73.4279 104.533L70.5457 107.415L67.6636 104.533L68.3409 103.856Z" fill="#ED8C6B"/>
<path d="M4.28447 109.135L3.61139 107.263H1.03436L0.375119 109.135H-0.786621L1.73509 102.368H2.93371L5.45543 109.135H4.28447ZM3.32096 106.314L2.68938 104.479C2.64328 104.356 2.57874 104.162 2.49576 103.898C2.41585 103.634 2.36053 103.44 2.32979 103.317C2.24681 103.695 2.12541 104.109 1.9656 104.557L1.35707 106.314H3.32096ZM7.94948 109.227C7.31329 109.227 6.81694 108.997 6.46042 108.536C6.10391 108.075 5.92565 107.428 5.92565 106.595C5.92565 105.759 6.10545 105.109 6.46503 104.645C6.82769 104.178 7.32865 103.944 7.96792 103.944C8.63792 103.944 9.1481 104.192 9.49846 104.686H9.55379C9.50154 104.321 9.47541 104.032 9.47541 103.82V101.962H10.5634V109.135H9.71514L9.52613 108.467H9.47541C9.12812 108.974 8.61948 109.227 7.94948 109.227ZM8.23991 108.351C8.68555 108.351 9.0098 108.227 9.21264 107.978C9.41548 107.726 9.51998 107.319 9.52613 106.756V106.604C9.52613 105.962 9.42163 105.505 9.21264 105.235C9.00365 104.965 8.67633 104.829 8.23069 104.829C7.84959 104.829 7.55609 104.985 7.35017 105.295C7.14425 105.602 7.04129 106.042 7.04129 106.613C7.04129 107.179 7.14118 107.611 7.34095 107.909C7.54072 108.204 7.84037 108.351 8.23991 108.351ZM13.8319 109.227C13.1957 109.227 12.6994 108.997 12.3429 108.536C11.9864 108.075 11.8081 107.428 11.8081 106.595C11.8081 105.759 11.9879 105.109 12.3475 104.645C12.7102 104.178 13.2111 103.944 13.8504 103.944C14.5204 103.944 15.0306 104.192 15.3809 104.686H15.4362C15.384 104.321 15.3579 104.032 15.3579 103.82V101.962H16.4459V109.135H15.5976L15.4086 108.467H15.3579C15.0106 108.974 14.5019 109.227 13.8319 109.227ZM14.1224 108.351C14.568 108.351 14.8923 108.227 15.0951 107.978C15.2979 107.726 15.4024 107.319 15.4086 106.756V106.604C15.4086 105.962 15.3041 105.505 15.0951 105.235C14.8861 104.965 14.5588 104.829 14.1132 104.829C13.7321 104.829 13.4385 104.985 13.2326 105.295C13.0267 105.602 12.9238 106.042 12.9238 106.613C12.9238 107.179 13.0236 107.611 13.2234 107.909C13.4232 108.204 13.7228 108.351 14.1224 108.351ZM26.5465 105.756C26.5465 106.573 26.3898 107.262 26.0763 107.821C25.7659 108.381 25.3126 108.774 24.7163 109.001L26.3299 110.739H24.8454L23.573 109.227H23.3932C22.376 109.227 21.5938 108.926 21.0467 108.324C20.5027 107.718 20.2307 106.859 20.2307 105.747C20.2307 104.634 20.5043 103.78 21.0513 103.184C21.6015 102.587 22.3852 102.289 23.4025 102.289C24.4044 102.289 25.1789 102.592 25.7259 103.197C26.273 103.803 26.5465 104.656 26.5465 105.756ZM21.4017 105.756C21.4017 106.586 21.5692 107.216 21.9042 107.646C22.2392 108.073 22.7355 108.287 23.3932 108.287C24.0479 108.287 24.5412 108.075 24.8731 107.651C25.2081 107.227 25.3756 106.595 25.3756 105.756C25.3756 104.929 25.2096 104.302 24.8777 103.875C24.5488 103.448 24.0571 103.234 23.4025 103.234C22.7417 103.234 22.2423 103.448 21.9042 103.875C21.5692 104.302 21.4017 104.929 21.4017 105.756ZM31.4747 109.135L31.3226 108.467H31.2673C31.1167 108.703 30.9015 108.889 30.6218 109.024C30.3452 109.16 30.0287 109.227 29.6722 109.227C29.0544 109.227 28.5934 109.074 28.2891 108.766C27.9849 108.459 27.8327 107.993 27.8327 107.369V104.036H28.9253V107.18C28.9253 107.571 29.0052 107.864 29.1651 108.061C29.3249 108.255 29.5754 108.351 29.9165 108.351C30.3714 108.351 30.7048 108.216 30.9169 107.946C31.132 107.672 31.2396 107.216 31.2396 106.577V104.036H32.3276V109.135H31.4747ZM36.0986 109.227C35.3057 109.227 34.6849 108.997 34.2361 108.536C33.7905 108.072 33.5677 107.434 33.5677 106.623C33.5677 105.79 33.7751 105.135 34.19 104.659C34.605 104.182 35.1751 103.944 35.9004 103.944C36.5735 103.944 37.1052 104.149 37.4955 104.557C37.8858 104.966 38.081 105.529 38.081 106.245V106.83H34.6833C34.6987 107.325 34.8324 107.706 35.0844 107.973C35.3364 108.238 35.6914 108.37 36.1493 108.37C36.4505 108.37 36.7302 108.342 36.9884 108.287C37.2496 108.228 37.5293 108.133 37.8274 108.001V108.882C37.5631 109.008 37.2957 109.097 37.0252 109.149C36.7548 109.201 36.4459 109.227 36.0986 109.227ZM35.9004 104.765C35.5562 104.765 35.2796 104.874 35.0706 105.092C34.8647 105.31 34.7417 105.628 34.7018 106.046H37.016C37.0099 105.625 36.9085 105.307 36.7118 105.092C36.5151 104.874 36.2446 104.765 35.9004 104.765ZM42.7371 107.683C42.7371 108.181 42.5558 108.563 42.1931 108.831C41.8305 109.095 41.3111 109.227 40.6349 109.227C39.9557 109.227 39.4102 109.124 38.9984 108.918V107.983C39.5977 108.259 40.1555 108.398 40.6718 108.398C41.3387 108.398 41.6722 108.196 41.6722 107.794C41.6722 107.665 41.6353 107.557 41.5616 107.471C41.4878 107.385 41.3664 107.296 41.1974 107.204C41.0283 107.111 40.7932 107.007 40.492 106.89C39.905 106.663 39.507 106.435 39.298 106.208C39.0921 105.98 38.9891 105.685 38.9891 105.323C38.9891 104.886 39.1643 104.548 39.5147 104.308C39.8681 104.066 40.3476 103.944 40.953 103.944C41.5523 103.944 42.1194 104.066 42.6542 104.308L42.3038 105.124C41.7537 104.897 41.2911 104.783 40.9162 104.783C40.3445 104.783 40.0587 104.946 40.0587 105.272C40.0587 105.432 40.1324 105.567 40.28 105.678C40.4306 105.788 40.7563 105.94 41.2573 106.134C41.6784 106.297 41.9842 106.446 42.1747 106.581C42.3653 106.716 42.5066 106.873 42.5988 107.051C42.691 107.227 42.7371 107.437 42.7371 107.683ZM45.8121 108.351C46.0764 108.351 46.3407 108.31 46.605 108.227V109.043C46.4851 109.095 46.3299 109.138 46.1394 109.172C45.9519 109.209 45.7567 109.227 45.5539 109.227C44.5274 109.227 44.0141 108.686 44.0141 107.605V104.857H43.318V104.378L44.0648 103.981L44.4336 102.902H45.1021V104.036H46.5543V104.857H45.1021V107.586C45.1021 107.847 45.1666 108.041 45.2957 108.167C45.4279 108.29 45.6 108.351 45.8121 108.351ZM48.7118 109.135H47.6284V104.036H48.7118V109.135ZM47.5639 102.686C47.5639 102.492 47.6161 102.343 47.7206 102.238C47.8282 102.134 47.9803 102.082 48.177 102.082C48.3676 102.082 48.5151 102.134 48.6196 102.238C48.7272 102.343 48.7809 102.492 48.7809 102.686C48.7809 102.87 48.7272 103.016 48.6196 103.124C48.5151 103.228 48.3676 103.28 48.177 103.28C47.9803 103.28 47.8282 103.228 47.7206 103.124C47.6161 103.016 47.5639 102.87 47.5639 102.686ZM54.7879 106.577C54.7879 107.409 54.5743 108.059 54.1471 108.527C53.7199 108.994 53.1252 109.227 52.363 109.227C51.8866 109.227 51.4655 109.12 51.0998 108.905C50.7341 108.689 50.4529 108.381 50.2562 107.978C50.0595 107.575 49.9611 107.108 49.9611 106.577C49.9611 105.75 50.1732 105.104 50.5973 104.64C51.0214 104.176 51.6192 103.944 52.3906 103.944C53.1283 103.944 53.7122 104.182 54.1425 104.659C54.5727 105.132 54.7879 105.771 54.7879 106.577ZM51.0768 106.577C51.0768 107.754 51.5116 108.342 52.3814 108.342C53.242 108.342 53.6722 107.754 53.6722 106.577C53.6722 105.412 53.2389 104.829 52.3722 104.829C51.9173 104.829 51.5869 104.98 51.381 105.281C51.1782 105.582 51.0768 106.014 51.0768 106.577ZM60.5228 109.135H59.4348V106C59.4348 105.607 59.3549 105.313 59.1951 105.12C59.0384 104.926 58.7879 104.829 58.4437 104.829C57.9857 104.829 57.6507 104.965 57.4387 105.235C57.2266 105.505 57.1206 105.959 57.1206 106.595V109.135H56.0372V104.036H56.8855L57.0376 104.705H57.0929C57.2466 104.462 57.4648 104.275 57.7476 104.142C58.0303 104.01 58.3438 103.944 58.688 103.944C59.9112 103.944 60.5228 104.567 60.5228 105.811V109.135Z" fill="#ED8C6B"/>
<path d="M123.165 104.841H121.766L120.432 100.151C120.375 99.9465 120.303 99.6525 120.217 99.2688C120.131 98.8815 120.079 98.6126 120.061 98.462C120.025 98.6915 119.966 98.9891 119.884 99.3548C119.805 99.7206 119.739 99.9931 119.685 100.172L118.383 104.841H116.985L115.968 100.904L114.936 96.9776H116.248L117.372 101.56C117.548 102.295 117.673 102.944 117.749 103.507C117.788 103.202 117.847 102.862 117.926 102.485C118.005 102.109 118.077 101.804 118.141 101.571L119.421 96.9776H120.696L122.008 101.592C122.134 102.019 122.266 102.657 122.406 103.507C122.46 102.994 122.589 102.342 122.794 101.549L123.912 96.9776H125.214L123.165 104.841ZM131.431 104.841H130.162V101.184C130.162 100.725 130.069 100.382 129.882 100.156C129.699 99.9303 129.407 99.8174 129.006 99.8174C128.475 99.8174 128.084 99.977 127.833 100.296C127.586 100.612 127.462 101.142 127.462 101.888V104.841H126.198V96.472H127.462V98.5965C127.462 98.9371 127.44 99.3011 127.397 99.6883H127.478C127.65 99.4015 127.889 99.1792 128.193 99.0214C128.502 98.8636 128.86 98.7847 129.269 98.7847C130.711 98.7847 131.431 99.5108 131.431 100.963V104.841ZM134.454 104.841H133.19V98.8923H134.454V104.841ZM133.115 97.3164C133.115 97.0905 133.176 96.9166 133.298 96.7947C133.423 96.6728 133.601 96.6119 133.83 96.6119C134.052 96.6119 134.224 96.6728 134.346 96.7947C134.472 96.9166 134.535 97.0905 134.535 97.3164C134.535 97.5316 134.472 97.7019 134.346 97.8274C134.224 97.9493 134.052 98.0102 133.83 98.0102C133.601 98.0102 133.423 97.9493 133.298 97.8274C133.176 97.7019 133.115 97.5316 133.115 97.3164ZM138.665 104.948C137.765 104.948 137.08 104.687 136.611 104.163C136.145 103.636 135.911 102.881 135.911 101.899C135.911 100.898 136.155 100.129 136.643 99.5915C137.134 99.0537 137.842 98.7847 138.767 98.7847C139.395 98.7847 139.96 98.9013 140.462 99.1343L140.08 100.151C139.546 99.9429 139.104 99.8389 138.757 99.8389C137.728 99.8389 137.213 100.522 137.213 101.888C137.213 102.555 137.34 103.057 137.595 103.394C137.853 103.728 138.23 103.894 138.724 103.894C139.287 103.894 139.82 103.754 140.322 103.475V104.577C140.096 104.71 139.854 104.805 139.596 104.862C139.341 104.92 139.031 104.948 138.665 104.948ZM146.953 104.841H145.684V101.184C145.684 100.725 145.591 100.382 145.404 100.156C145.222 99.9303 144.929 99.8174 144.528 99.8174C143.997 99.8174 143.606 99.977 143.355 100.296C143.108 100.612 142.984 101.142 142.984 101.888V104.841H141.72V96.472H142.984V98.5965C142.984 98.9371 142.963 99.3011 142.92 99.6883H143C143.172 99.4015 143.411 99.1792 143.716 99.0214C144.024 98.8636 144.383 98.7847 144.791 98.7847C146.233 98.7847 146.953 99.5108 146.953 100.963V104.841ZM153.972 104.948C153.072 104.948 152.387 104.687 151.918 104.163C151.452 103.636 151.218 102.881 151.218 101.899C151.218 100.898 151.462 100.129 151.95 99.5915C152.441 99.0537 153.149 98.7847 154.074 98.7847C154.702 98.7847 155.267 98.9013 155.769 99.1343L155.387 100.151C154.853 99.9429 154.411 99.8389 154.064 99.8389C153.035 99.8389 152.52 100.522 152.52 101.888C152.52 102.555 152.647 103.057 152.902 103.394C153.16 103.728 153.537 103.894 154.031 103.894C154.594 103.894 155.127 103.754 155.629 103.475V104.577C155.403 104.71 155.161 104.805 154.903 104.862C154.648 104.92 154.338 104.948 153.972 104.948ZM162.303 101.856C162.303 102.828 162.054 103.586 161.556 104.131C161.057 104.676 160.364 104.948 159.474 104.948C158.919 104.948 158.427 104.823 158.001 104.572C157.574 104.321 157.246 103.961 157.016 103.491C156.787 103.021 156.672 102.476 156.672 101.856C156.672 100.891 156.92 100.138 157.414 99.5969C157.909 99.0555 158.607 98.7847 159.507 98.7847C160.367 98.7847 161.048 99.0626 161.55 99.6184C162.052 100.171 162.303 100.916 162.303 101.856ZM157.974 101.856C157.974 103.229 158.481 103.916 159.496 103.916C160.5 103.916 161.002 103.229 161.002 101.856C161.002 100.497 160.496 99.8174 159.485 99.8174C158.954 99.8174 158.569 99.9931 158.329 100.344C158.092 100.696 157.974 101.2 157.974 101.856ZM167.956 104.841L167.779 104.061H167.714C167.538 104.337 167.287 104.554 166.961 104.712C166.638 104.87 166.269 104.948 165.853 104.948C165.132 104.948 164.595 104.769 164.24 104.411C163.885 104.052 163.707 103.509 163.707 102.781V98.8923H164.982V102.56C164.982 103.016 165.075 103.358 165.262 103.588C165.448 103.814 165.74 103.927 166.138 103.927C166.669 103.927 167.058 103.769 167.305 103.453C167.556 103.134 167.682 102.602 167.682 101.856V98.8923H168.951V104.841H167.956ZM173.77 98.7847C174.025 98.7847 174.235 98.8027 174.4 98.8385L174.276 100.016C174.097 99.9734 173.91 99.9519 173.716 99.9519C173.211 99.9519 172.8 100.117 172.485 100.447C172.173 100.777 172.017 101.205 172.017 101.732V104.841H170.753V98.8923H171.743L171.909 99.9411H171.974C172.171 99.5861 172.427 99.3047 172.743 99.0967C173.062 98.8887 173.404 98.7847 173.77 98.7847ZM179.504 103.147C179.504 103.728 179.292 104.174 178.869 104.486C178.446 104.794 177.84 104.948 177.051 104.948C176.259 104.948 175.622 104.828 175.142 104.588V103.496C175.841 103.819 176.492 103.98 177.094 103.98C177.872 103.98 178.261 103.745 178.261 103.276C178.261 103.125 178.218 103 178.132 102.899C178.046 102.799 177.904 102.695 177.707 102.587C177.51 102.48 177.236 102.358 176.884 102.222C176.199 101.956 175.735 101.691 175.491 101.426C175.251 101.16 175.131 100.816 175.131 100.393C175.131 99.8837 175.335 99.4893 175.744 99.2096C176.156 98.9264 176.716 98.7847 177.422 98.7847C178.121 98.7847 178.783 98.9264 179.407 99.2096L178.998 100.162C178.356 99.8963 177.817 99.7636 177.379 99.7636C176.712 99.7636 176.379 99.9536 176.379 100.334C176.379 100.52 176.465 100.678 176.637 100.807C176.813 100.936 177.193 101.114 177.777 101.339C178.268 101.53 178.625 101.703 178.847 101.861C179.07 102.019 179.235 102.202 179.342 102.41C179.45 102.614 179.504 102.86 179.504 103.147ZM183.473 104.948C182.548 104.948 181.824 104.679 181.3 104.142C180.78 103.6 180.52 102.856 180.52 101.91C180.52 100.938 180.762 100.174 181.246 99.6184C181.73 99.0626 182.395 98.7847 183.242 98.7847C184.027 98.7847 184.647 99.0232 185.103 99.5001C185.558 99.977 185.786 100.633 185.786 101.469V102.152H181.822C181.84 102.729 181.996 103.174 182.29 103.485C182.584 103.794 182.998 103.948 183.532 103.948C183.883 103.948 184.21 103.916 184.511 103.851C184.816 103.783 185.142 103.672 185.49 103.518V104.545C185.181 104.692 184.87 104.796 184.554 104.857C184.238 104.918 183.878 104.948 183.473 104.948ZM183.242 99.7421C182.84 99.7421 182.517 99.8694 182.274 100.124C182.033 100.379 181.89 100.75 181.843 101.237H184.543C184.536 100.746 184.418 100.375 184.188 100.124C183.959 99.8694 183.643 99.7421 183.242 99.7421ZM192.089 104.948C191.347 104.948 190.768 104.679 190.352 104.142C189.936 103.604 189.728 102.849 189.728 101.877C189.728 100.902 189.938 100.144 190.357 99.6023C190.78 99.0572 191.365 98.7847 192.111 98.7847C192.892 98.7847 193.488 99.0734 193.896 99.6507H193.961C193.9 99.224 193.869 98.8869 193.869 98.6395V96.472H195.139V104.841H194.149L193.929 104.061H193.869C193.464 104.653 192.871 104.948 192.089 104.948ZM192.428 103.927C192.948 103.927 193.326 103.781 193.563 103.491C193.799 103.197 193.921 102.722 193.929 102.066V101.888C193.929 101.139 193.807 100.606 193.563 100.291C193.319 99.9752 192.937 99.8174 192.417 99.8174C191.973 99.8174 191.63 99.9985 191.39 100.361C191.15 100.719 191.03 101.232 191.03 101.899C191.03 102.559 191.146 103.062 191.379 103.41C191.612 103.754 191.962 103.927 192.428 103.927ZM198.21 104.841H196.946V98.8923H198.21V104.841ZM196.871 97.3164C196.871 97.0905 196.932 96.9166 197.053 96.7947C197.179 96.6728 197.356 96.6119 197.586 96.6119C197.808 96.6119 197.98 96.6728 198.102 96.7947C198.228 96.9166 198.29 97.0905 198.29 97.3164C198.29 97.5316 198.228 97.7019 198.102 97.8274C197.98 97.9493 197.808 98.0102 197.586 98.0102C197.356 98.0102 197.179 97.9493 197.053 97.8274C196.932 97.7019 196.871 97.5316 196.871 97.3164ZM202.028 104.948C201.286 104.948 200.707 104.679 200.291 104.142C199.875 103.604 199.667 102.849 199.667 101.877C199.667 100.902 199.877 100.144 200.297 99.6023C200.72 99.0572 201.304 98.7847 202.05 98.7847C202.832 98.7847 203.427 99.0734 203.836 99.6507H203.9C203.839 99.224 203.809 98.8869 203.809 98.6395V96.472H205.078V104.841H204.088L203.868 104.061H203.809C203.404 104.653 202.81 104.948 202.028 104.948ZM202.367 103.927C202.887 103.927 203.266 103.781 203.502 103.491C203.739 103.197 203.861 102.722 203.868 102.066V101.888C203.868 101.139 203.746 100.606 203.502 100.291C203.258 99.9752 202.876 99.8174 202.357 99.8174C201.912 99.8174 201.57 99.9985 201.329 100.361C201.089 100.719 200.969 101.232 200.969 101.899C200.969 102.559 201.085 103.062 201.319 103.41C201.552 103.754 201.901 103.927 202.367 103.927ZM208.843 98.8923H210.22L211.43 102.265C211.613 102.745 211.735 103.197 211.796 103.62H211.839C211.871 103.423 211.93 103.184 212.016 102.905C212.102 102.621 212.558 101.284 213.382 98.8923H214.748L212.204 105.631C211.742 106.869 210.971 107.487 209.892 107.487C209.612 107.487 209.34 107.457 209.074 107.396V106.395C209.264 106.438 209.481 106.46 209.725 106.46C210.335 106.46 210.763 106.107 211.01 105.4L211.231 104.841L208.843 98.8923ZM220.928 101.856C220.928 102.828 220.679 103.586 220.181 104.131C219.682 104.676 218.988 104.948 218.099 104.948C217.543 104.948 217.052 104.823 216.626 104.572C216.199 104.321 215.871 103.961 215.641 103.491C215.412 103.021 215.297 102.476 215.297 101.856C215.297 100.891 215.544 100.138 216.039 99.5969C216.534 99.0555 217.231 98.7847 218.131 98.7847C218.992 98.7847 219.673 99.0626 220.175 99.6184C220.677 100.171 220.928 100.916 220.928 101.856ZM216.599 101.856C216.599 103.229 217.106 103.916 218.121 103.916C219.125 103.916 219.627 103.229 219.627 101.856C219.627 100.497 219.121 99.8174 218.11 99.8174C217.579 99.8174 217.194 99.9931 216.954 100.344C216.717 100.696 216.599 101.2 216.599 101.856ZM226.581 104.841L226.403 104.061H226.339C226.163 104.337 225.912 104.554 225.586 104.712C225.263 104.87 224.894 104.948 224.478 104.948C223.757 104.948 223.219 104.769 222.864 104.411C222.51 104.052 222.332 103.509 222.332 102.781V98.8923H223.607V102.56C223.607 103.016 223.7 103.358 223.886 103.588C224.073 103.814 224.365 103.927 224.763 103.927C225.294 103.927 225.683 103.769 225.93 103.453C226.181 103.134 226.307 102.602 226.307 101.856V98.8923H227.576V104.841H226.581ZM234.455 103.927C234.763 103.927 235.072 103.878 235.38 103.781V104.733C235.24 104.794 235.059 104.844 234.837 104.884C234.618 104.927 234.39 104.948 234.154 104.948C232.956 104.948 232.357 104.317 232.357 103.055V99.8497H231.545V99.2903L232.417 98.8278L232.847 97.5692H233.627V98.8923H235.321V99.8497H233.627V103.034C233.627 103.338 233.702 103.564 233.853 103.711C234.007 103.855 234.208 103.927 234.455 103.927ZM240.296 104.841L240.043 104.013H240C239.713 104.375 239.425 104.622 239.134 104.755C238.844 104.884 238.471 104.948 238.016 104.948C237.431 104.948 236.974 104.791 236.644 104.475C236.318 104.16 236.155 103.713 236.155 103.136C236.155 102.523 236.382 102.06 236.838 101.748C237.293 101.436 237.987 101.266 238.919 101.237L239.946 101.205V100.888C239.946 100.508 239.857 100.224 239.677 100.038C239.502 99.8479 239.227 99.7529 238.855 99.7529C238.55 99.7529 238.258 99.7977 237.978 99.8873C237.698 99.977 237.429 100.083 237.171 100.205L236.762 99.3011C237.085 99.1325 237.438 99.0053 237.822 98.9192C238.206 98.8296 238.568 98.7847 238.908 98.7847C239.665 98.7847 240.235 98.9497 240.619 99.2796C241.006 99.6094 241.2 100.128 241.2 100.834V104.841H240.296ZM238.414 103.98C238.872 103.98 239.24 103.853 239.516 103.598C239.796 103.34 239.936 102.98 239.936 102.517V102.001L239.172 102.033C238.577 102.055 238.143 102.155 237.87 102.334C237.601 102.51 237.467 102.781 237.467 103.147C237.467 103.412 237.546 103.618 237.704 103.765C237.861 103.909 238.098 103.98 238.414 103.98ZM244.185 101.7L244.9 100.807L246.696 98.8923H248.154L245.76 101.447L248.304 104.841H246.82L244.911 102.232L244.217 102.802V104.841H242.964V96.472H244.217V100.554L244.152 101.7H244.185ZM251.865 104.948C250.94 104.948 250.216 104.679 249.692 104.142C249.172 103.6 248.912 102.856 248.912 101.91C248.912 100.938 249.154 100.174 249.638 99.6184C250.122 99.0626 250.787 98.7847 251.634 98.7847C252.419 98.7847 253.039 99.0232 253.495 99.5001C253.95 99.977 254.178 100.633 254.178 101.469V102.152H250.214C250.232 102.729 250.388 103.174 250.682 103.485C250.976 103.794 251.39 103.948 251.924 103.948C252.276 103.948 252.602 103.916 252.903 103.851C253.208 103.783 253.534 103.672 253.882 103.518V104.545C253.574 104.692 253.262 104.796 252.946 104.857C252.63 104.918 252.27 104.948 251.865 104.948ZM251.634 99.7421C251.232 99.7421 250.909 99.8694 250.666 100.124C250.425 100.379 250.282 100.75 250.235 101.237H252.935C252.928 100.746 252.81 100.375 252.58 100.124C252.351 99.8694 252.035 99.7421 251.634 99.7421ZM256.232 102.453V102.109C256.232 101.714 256.304 101.386 256.447 101.124C256.591 100.863 256.842 100.592 257.2 100.312C257.627 99.9752 257.901 99.7134 258.023 99.527C258.149 99.3405 258.211 99.1182 258.211 98.86C258.211 98.5588 258.111 98.3276 257.91 98.1662C257.71 98.0049 257.421 97.9242 257.044 97.9242C256.704 97.9242 256.388 97.9726 256.098 98.0694C255.807 98.1662 255.524 98.2828 255.248 98.419L254.796 97.4724C255.524 97.0672 256.304 96.8646 257.136 96.8646C257.839 96.8646 258.396 97.0367 258.809 97.381C259.221 97.7252 259.427 98.2003 259.427 98.8063C259.427 99.0752 259.388 99.3154 259.309 99.527C259.23 99.7349 259.11 99.9339 258.948 100.124C258.791 100.314 258.516 100.561 258.125 100.866C257.792 101.128 257.568 101.345 257.453 101.517C257.342 101.689 257.286 101.92 257.286 102.211V102.453H256.232ZM256.012 104.169C256.012 103.627 256.275 103.356 256.802 103.356C257.061 103.356 257.258 103.428 257.394 103.572C257.53 103.711 257.598 103.91 257.598 104.169C257.598 104.423 257.528 104.626 257.389 104.776C257.252 104.923 257.057 104.997 256.802 104.997C256.548 104.997 256.352 104.925 256.216 104.782C256.08 104.635 256.012 104.43 256.012 104.169Z" fill="#212121" fill-opacity="0.8"/>
<rect x="114.871" y="117.231" width="22.8168" height="4.72072" fill="#ED8C6B"/>
<rect x="191.976" y="117.231" width="22.8168" height="4.72072" fill="#F18FCE"/>
<path d="M149.465 123.297L147.178 117.323H147.142C147.185 117.796 147.206 118.358 147.206 119.01V123.297H146.482V116.557H147.662L149.797 122.117H149.834L151.987 116.557H153.158V123.297H152.374V118.955C152.374 118.457 152.395 117.916 152.439 117.332H152.402L150.097 123.297H149.465ZM157.03 123.39C156.283 123.39 155.693 123.162 155.26 122.707C154.83 122.252 154.614 121.621 154.614 120.812C154.614 119.998 154.814 119.351 155.214 118.872C155.616 118.392 156.156 118.152 156.832 118.152C157.465 118.152 157.966 118.361 158.335 118.779C158.704 119.194 158.888 119.743 158.888 120.425V120.909H155.407C155.423 121.502 155.572 121.953 155.855 122.26C156.14 122.567 156.541 122.721 157.058 122.721C157.602 122.721 158.14 122.607 158.671 122.38V123.062C158.401 123.179 158.144 123.262 157.901 123.311C157.662 123.363 157.371 123.39 157.03 123.39ZM156.823 118.793C156.417 118.793 156.093 118.925 155.85 119.19C155.61 119.454 155.469 119.82 155.426 120.287H158.067C158.067 119.804 157.96 119.436 157.745 119.181C157.53 118.922 157.222 118.793 156.823 118.793ZM163.636 122.62H163.595C163.241 123.133 162.713 123.39 162.009 123.39C161.348 123.39 160.833 123.164 160.465 122.712C160.099 122.26 159.916 121.618 159.916 120.785C159.916 119.952 160.1 119.305 160.469 118.844C160.838 118.383 161.351 118.152 162.009 118.152C162.694 118.152 163.22 118.401 163.586 118.899H163.646L163.613 118.535L163.595 118.18V116.124H164.36V123.297H163.738L163.636 122.62ZM162.106 122.749C162.628 122.749 163.006 122.607 163.24 122.325C163.477 122.039 163.595 121.579 163.595 120.946V120.785C163.595 120.069 163.475 119.559 163.235 119.254C162.999 118.947 162.619 118.793 162.097 118.793C161.648 118.793 161.304 118.968 161.064 119.319C160.827 119.666 160.709 120.158 160.709 120.794C160.709 121.439 160.827 121.927 161.064 122.255C161.301 122.584 161.648 122.749 162.106 122.749ZM166.753 123.297H165.988V118.245H166.753V123.297ZM165.923 116.875C165.923 116.7 165.966 116.573 166.052 116.493C166.138 116.41 166.246 116.368 166.375 116.368C166.498 116.368 166.604 116.41 166.693 116.493C166.782 116.576 166.827 116.703 166.827 116.875C166.827 117.048 166.782 117.177 166.693 117.263C166.604 117.346 166.498 117.387 166.375 117.387C166.246 117.387 166.138 117.346 166.052 117.263C165.966 117.177 165.923 117.048 165.923 116.875ZM171.483 123.297L171.331 122.578H171.294C171.042 122.895 170.79 123.11 170.538 123.224C170.289 123.334 169.977 123.39 169.602 123.39C169.101 123.39 168.707 123.26 168.422 123.002C168.139 122.744 167.998 122.377 167.998 121.9C167.998 120.88 168.814 120.345 170.445 120.296L171.303 120.268V119.955C171.303 119.559 171.217 119.267 171.045 119.079C170.876 118.889 170.604 118.793 170.229 118.793C169.808 118.793 169.331 118.922 168.8 119.181L168.565 118.595C168.814 118.46 169.086 118.354 169.381 118.277C169.679 118.2 169.977 118.162 170.275 118.162C170.877 118.162 171.323 118.295 171.612 118.563C171.904 118.83 172.05 119.259 172.05 119.849V123.297H171.483ZM169.754 122.758C170.23 122.758 170.604 122.627 170.874 122.366C171.148 122.105 171.285 121.739 171.285 121.269V120.812L170.519 120.845C169.911 120.866 169.471 120.962 169.201 121.131C168.933 121.297 168.8 121.556 168.8 121.91C168.8 122.186 168.883 122.397 169.049 122.541C169.218 122.686 169.453 122.758 169.754 122.758Z" fill="#212121" fill-opacity="0.5"/>
<path d="M226.473 117.161C225.732 117.161 225.147 117.409 224.717 117.904C224.29 118.395 224.076 119.07 224.076 119.927C224.076 120.809 224.282 121.492 224.694 121.974C225.109 122.454 225.699 122.693 226.464 122.693C226.934 122.693 227.47 122.609 228.073 122.44V123.127C227.606 123.302 227.029 123.39 226.344 123.39C225.351 123.39 224.585 123.088 224.044 122.486C223.506 121.884 223.237 121.028 223.237 119.918C223.237 119.224 223.366 118.615 223.624 118.093C223.885 117.57 224.26 117.167 224.749 116.885C225.241 116.602 225.819 116.461 226.482 116.461C227.189 116.461 227.807 116.59 228.336 116.848L228.004 117.521C227.494 117.281 226.983 117.161 226.473 117.161ZM233.789 120.766C233.789 121.59 233.582 122.234 233.167 122.698C232.752 123.159 232.179 123.39 231.447 123.39C230.996 123.39 230.595 123.283 230.244 123.071C229.894 122.859 229.623 122.555 229.433 122.159C229.242 121.762 229.147 121.298 229.147 120.766C229.147 119.943 229.353 119.302 229.765 118.844C230.177 118.383 230.748 118.152 231.48 118.152C232.187 118.152 232.747 118.388 233.162 118.858C233.58 119.328 233.789 119.964 233.789 120.766ZM229.94 120.766C229.94 121.412 230.069 121.904 230.327 122.242C230.585 122.58 230.965 122.749 231.466 122.749C231.967 122.749 232.346 122.581 232.605 122.246C232.866 121.908 232.996 121.415 232.996 120.766C232.996 120.124 232.866 119.637 232.605 119.305C232.346 118.97 231.964 118.802 231.457 118.802C230.956 118.802 230.578 118.967 230.323 119.296C230.068 119.625 229.94 120.115 229.94 120.766ZM241.576 123.297V120.01C241.576 119.608 241.49 119.307 241.318 119.107C241.146 118.904 240.878 118.802 240.515 118.802C240.039 118.802 239.687 118.939 239.46 119.213C239.232 119.486 239.119 119.907 239.119 120.476V123.297H238.353V120.01C238.353 119.608 238.267 119.307 238.095 119.107C237.923 118.904 237.654 118.802 237.288 118.802C236.809 118.802 236.457 118.947 236.233 119.236C236.011 119.522 235.901 119.992 235.901 120.647V123.297H235.136V118.245H235.758L235.882 118.936H235.919C236.064 118.69 236.267 118.498 236.528 118.36C236.792 118.222 237.087 118.152 237.413 118.152C238.203 118.152 238.719 118.438 238.962 119.01H238.999C239.149 118.746 239.368 118.537 239.653 118.383C239.939 118.229 240.265 118.152 240.631 118.152C241.202 118.152 241.63 118.3 241.912 118.595C242.198 118.887 242.341 119.356 242.341 120.001V123.297H241.576ZM246.273 123.39C245.945 123.39 245.643 123.33 245.37 123.21C245.099 123.087 244.872 122.899 244.688 122.647H244.632C244.669 122.942 244.688 123.222 244.688 123.486V125.565H243.922V118.245H244.545L244.651 118.936H244.688C244.884 118.66 245.113 118.46 245.375 118.337C245.636 118.214 245.935 118.152 246.273 118.152C246.943 118.152 247.46 118.381 247.822 118.839C248.188 119.297 248.371 119.94 248.371 120.766C248.371 121.596 248.185 122.242 247.813 122.703C247.444 123.161 246.931 123.39 246.273 123.39ZM246.163 118.802C245.646 118.802 245.273 118.945 245.043 119.231C244.812 119.517 244.694 119.972 244.688 120.596V120.766C244.688 121.476 244.806 121.985 245.043 122.292C245.279 122.597 245.659 122.749 246.181 122.749C246.618 122.749 246.959 122.572 247.205 122.219C247.454 121.865 247.578 121.378 247.578 120.757C247.578 120.127 247.454 119.645 247.205 119.31C246.959 118.972 246.612 118.802 246.163 118.802ZM250.432 118.245V121.522C250.432 121.934 250.525 122.242 250.713 122.444C250.9 122.647 251.194 122.749 251.593 122.749C252.122 122.749 252.508 122.604 252.751 122.315C252.996 122.026 253.119 121.555 253.119 120.9V118.245H253.885V123.297H253.253L253.142 122.62H253.101C252.944 122.869 252.726 123.059 252.446 123.191C252.17 123.323 251.853 123.39 251.497 123.39C250.882 123.39 250.421 123.244 250.114 122.952C249.809 122.66 249.657 122.192 249.657 121.55V118.245H250.432ZM257.144 122.758C257.279 122.758 257.41 122.749 257.536 122.73C257.662 122.709 257.762 122.687 257.836 122.666V123.251C257.753 123.291 257.63 123.323 257.467 123.348C257.307 123.376 257.162 123.39 257.033 123.39C256.056 123.39 255.567 122.875 255.567 121.845V118.839H254.844V118.471L255.567 118.152L255.89 117.074H256.333V118.245H257.799V118.839H256.333V121.813C256.333 122.117 256.405 122.351 256.549 122.514C256.694 122.676 256.892 122.758 257.144 122.758ZM260.984 123.39C260.237 123.39 259.647 123.162 259.214 122.707C258.784 122.252 258.569 121.621 258.569 120.812C258.569 119.998 258.768 119.351 259.168 118.872C259.57 118.392 260.11 118.152 260.786 118.152C261.419 118.152 261.92 118.361 262.289 118.779C262.658 119.194 262.842 119.743 262.842 120.425V120.909H259.361C259.377 121.502 259.526 121.953 259.809 122.26C260.094 122.567 260.496 122.721 261.012 122.721C261.556 122.721 262.094 122.607 262.625 122.38V123.062C262.355 123.179 262.098 123.262 261.856 123.311C261.616 123.363 261.325 123.39 260.984 123.39ZM260.777 118.793C260.371 118.793 260.047 118.925 259.804 119.19C259.564 119.454 259.423 119.82 259.38 120.287H262.021C262.021 119.804 261.914 119.436 261.699 119.181C261.484 118.922 261.176 118.793 260.777 118.793ZM266.456 118.152C266.681 118.152 266.882 118.171 267.06 118.208L266.954 118.918C266.745 118.872 266.561 118.849 266.401 118.849C265.992 118.849 265.642 119.015 265.35 119.346C265.061 119.678 264.917 120.092 264.917 120.587V123.297H264.151V118.245H264.783L264.871 119.181H264.907C265.095 118.852 265.321 118.598 265.585 118.42C265.849 118.242 266.14 118.152 266.456 118.152ZM274.377 121.504C274.377 122.097 274.161 122.56 273.731 122.892C273.301 123.224 272.717 123.39 271.979 123.39C271.18 123.39 270.566 123.287 270.135 123.081V122.325C270.412 122.441 270.713 122.534 271.039 122.601C271.365 122.669 271.687 122.703 272.007 122.703C272.529 122.703 272.923 122.604 273.187 122.408C273.451 122.208 273.584 121.931 273.584 121.578C273.584 121.344 273.536 121.154 273.441 121.006C273.348 120.855 273.192 120.717 272.97 120.591C272.752 120.465 272.419 120.322 271.97 120.162C271.343 119.938 270.894 119.672 270.624 119.365C270.357 119.058 270.223 118.656 270.223 118.162C270.223 117.642 270.418 117.229 270.808 116.922C271.199 116.614 271.715 116.461 272.357 116.461C273.027 116.461 273.644 116.583 274.206 116.829L273.962 117.512C273.405 117.278 272.864 117.161 272.339 117.161C271.924 117.161 271.6 117.25 271.366 117.429C271.133 117.607 271.016 117.854 271.016 118.171C271.016 118.404 271.059 118.597 271.145 118.747C271.231 118.895 271.375 119.031 271.578 119.157C271.784 119.28 272.098 119.417 272.519 119.568C273.226 119.82 273.711 120.09 273.975 120.379C274.243 120.668 274.377 121.043 274.377 121.504ZM277.659 123.39C276.927 123.39 276.36 123.165 275.958 122.716C275.558 122.265 275.358 121.627 275.358 120.803C275.358 119.958 275.561 119.305 275.967 118.844C276.376 118.383 276.957 118.152 277.71 118.152C277.952 118.152 278.195 118.179 278.438 118.231C278.681 118.283 278.871 118.345 279.01 118.415L278.775 119.065C278.605 118.998 278.421 118.942 278.221 118.899C278.022 118.853 277.845 118.83 277.691 118.83C276.665 118.83 276.151 119.485 276.151 120.794C276.151 121.415 276.276 121.891 276.525 122.223C276.777 122.555 277.149 122.721 277.64 122.721C278.061 122.721 278.493 122.63 278.936 122.449V123.127C278.598 123.302 278.172 123.39 277.659 123.39ZM280.904 123.297H280.139V118.245H280.904V123.297ZM280.075 116.875C280.075 116.7 280.118 116.573 280.204 116.493C280.29 116.41 280.397 116.368 280.526 116.368C280.649 116.368 280.755 116.41 280.844 116.493C280.934 116.576 280.978 116.703 280.978 116.875C280.978 117.048 280.934 117.177 280.844 117.263C280.755 117.346 280.649 117.387 280.526 117.387C280.397 117.387 280.29 117.346 280.204 117.263C280.118 117.177 280.075 117.048 280.075 116.875ZM284.662 123.39C283.915 123.39 283.325 123.162 282.891 122.707C282.461 122.252 282.246 121.621 282.246 120.812C282.246 119.998 282.446 119.351 282.845 118.872C283.248 118.392 283.787 118.152 284.463 118.152C285.096 118.152 285.597 118.361 285.966 118.779C286.335 119.194 286.519 119.743 286.519 120.425V120.909H283.039C283.054 121.502 283.203 121.953 283.486 122.26C283.772 122.567 284.173 122.721 284.689 122.721C285.233 122.721 285.771 122.607 286.303 122.38V123.062C286.032 123.179 285.776 123.262 285.533 123.311C285.293 123.363 285.003 123.39 284.662 123.39ZM284.454 118.793C284.048 118.793 283.724 118.925 283.481 119.19C283.242 119.454 283.1 119.82 283.057 120.287H285.699C285.699 119.804 285.591 119.436 285.376 119.181C285.161 118.922 284.854 118.793 284.454 118.793ZM291.286 123.297V120.029C291.286 119.617 291.193 119.31 291.005 119.107C290.818 118.904 290.524 118.802 290.125 118.802C289.596 118.802 289.209 118.945 288.963 119.231C288.717 119.517 288.594 119.989 288.594 120.647V123.297H287.829V118.245H288.451L288.576 118.936H288.612C288.769 118.687 288.989 118.495 289.272 118.36C289.554 118.222 289.869 118.152 290.217 118.152C290.825 118.152 291.283 118.3 291.591 118.595C291.898 118.887 292.052 119.356 292.052 120.001V123.297H291.286ZM295.647 123.39C294.916 123.39 294.349 123.165 293.946 122.716C293.547 122.265 293.347 121.627 293.347 120.803C293.347 119.958 293.55 119.305 293.956 118.844C294.364 118.383 294.945 118.152 295.698 118.152C295.941 118.152 296.184 118.179 296.427 118.231C296.669 118.283 296.86 118.345 296.998 118.415L296.763 119.065C296.594 118.998 296.41 118.942 296.21 118.899C296.01 118.853 295.833 118.83 295.68 118.83C294.653 118.83 294.14 119.485 294.14 120.794C294.14 121.415 294.264 121.891 294.513 122.223C294.765 122.555 295.137 122.721 295.629 122.721C296.05 122.721 296.482 122.63 296.924 122.449V123.127C296.586 123.302 296.161 123.39 295.647 123.39ZM300.262 123.39C299.515 123.39 298.925 123.162 298.492 122.707C298.062 122.252 297.846 121.621 297.846 120.812C297.846 119.998 298.046 119.351 298.446 118.872C298.848 118.392 299.388 118.152 300.064 118.152C300.697 118.152 301.198 118.361 301.567 118.779C301.936 119.194 302.12 119.743 302.12 120.425V120.909H298.639C298.655 121.502 298.804 121.953 299.087 122.26C299.372 122.567 299.773 122.721 300.29 122.721C300.834 122.721 301.372 122.607 301.903 122.38V123.062C301.633 123.179 301.376 123.262 301.133 123.311C300.894 123.363 300.603 123.39 300.262 123.39ZM300.055 118.793C299.649 118.793 299.325 118.925 299.082 119.19C298.842 119.454 298.701 119.82 298.658 120.287H301.299C301.299 119.804 301.192 119.436 300.977 119.181C300.762 118.922 300.454 118.793 300.055 118.793Z" fill="#212121" fill-opacity="0.5"/>
<path fill-rule="evenodd" clip-rule="evenodd" d="M199.932 239.564C220.343 233.581 235.249 214.716 235.249 192.369C235.249 165.211 213.233 143.195 186.075 143.195C185.944 143.195 185.813 143.196 185.682 143.197V158.933C185.813 158.932 185.944 158.931 186.075 158.931C204.543 158.931 219.514 173.902 219.514 192.369C219.514 207.679 209.225 220.585 195.186 224.552L199.932 239.564Z" fill="#ED8C6B"/>
<path fill-rule="evenodd" clip-rule="evenodd" d="M184.108 143.234C157.862 144.266 136.901 165.87 136.901 192.369C136.901 219.528 158.917 241.544 186.075 241.544C190.093 241.544 193.999 241.062 197.738 240.152L192.977 225.095C190.75 225.562 188.441 225.808 186.075 225.808C167.608 225.808 152.637 210.837 152.637 192.369C152.637 174.562 166.556 160.006 184.108 158.988V143.234Z" fill="#F18FCE"/>
</g>
<rect x="0.5" y="0.5" width="261" height="193" rx="7.36787" stroke="#CECECE"/>
<defs>
<filter id="filter0_d" x="-47.6589" y="-2.81201" width="332.141" height="145.672" filterUnits="userSpaceOnUse" color-interpolation-filters="sRGB">
<feFlood flood-opacity="0" result="BackgroundImageFix"/>
<feColorMatrix in="SourceAlpha" type="matrix" values="0 0 0 0 0 0 0 0 0 0 0 0 0 0 0 0 0 0 127 0"/>
<feOffset/>
<feGaussianBlur stdDeviation="7.7003"/>
<feColorMatrix type="matrix" values="0 0 0 0 0 0 0 0 0 0 0 0 0 0 0 0 0 0 0.1 0"/>
<feBlend mode="normal" in2="BackgroundImageFix" result="effect1_dropShadow"/>
<feBlend mode="normal" in="SourceGraphic" in2="effect1_dropShadow" result="shape"/>
</filter>
<filter id="filter1_d" x="86.8816" y="64.8517" width="267.624" height="156.687" filterUnits="userSpaceOnUse" color-interpolation-filters="sRGB">
<feFlood flood-opacity="0" result="BackgroundImageFix"/>
<feColorMatrix in="SourceAlpha" type="matrix" values="0 0 0 0 0 0 0 0 0 0 0 0 0 0 0 0 0 0 127 0"/>
<feOffset/>
<feGaussianBlur stdDeviation="7.7003"/>
<feColorMatrix type="matrix" values="0 0 0 0 0 0 0 0 0 0 0 0 0 0 0 0 0 0 0.1 0"/>
<feBlend mode="normal" in2="BackgroundImageFix" result="effect1_dropShadow"/>
<feBlend mode="normal" in="SourceGraphic" in2="effect1_dropShadow" result="shape"/>
</filter>
</defs>
</svg>
