<svg width="262" height="194" viewBox="0 0 262 194" fill="none" xmlns="http://www.w3.org/2000/svg">
    <rect width="262" height="194" rx="7.86787" fill="#FAFAFA" />
    <mask id="mask0" mask-type="alpha" maskUnits="userSpaceOnUse" x="0" y="0" width="262" height="194">
        <rect width="262" height="194" rx="7.86787" fill="#FAFAFA" />
    </mask>
    <g mask="url(#mask0)">
        <g filter="url(#filter0_d)">
            <path d="M26.7507 29.8979C26.7507 25.5526 30.2733 22.03 34.6186 22.03H262V193.55H26.7507V29.8979Z"
                fill="white" />
        </g>
        <path
            d="M40.0167 77.1051L42.2215 79.3051L44.4264 77.1051L45.1037 77.7824L42.2215 80.6646L39.3394 77.7824L40.0167 77.1051Z"
            fill="#555555" />
        <path d="M40.3623 160.111L41.1491 161.291L43.1161 159.324" stroke="#399A16" stroke-opacity="0.3"
            stroke-width="0.629429" stroke-linejoin="round" />
        <path d="M26.7507 91.2673H262" stroke="#212121" stroke-opacity="0.2" stroke-width="0.345858" />
        <path d="M26.7507 118.805H262" stroke="#212121" stroke-opacity="0.2" stroke-width="0.345858" />
        <path d="M26.7507 146.342H262" stroke="#212121" stroke-opacity="0.2" stroke-width="0.345858" />
        <path d="M26.7507 173.88H262" stroke="#212121" stroke-opacity="0.2" stroke-width="0.345858" />
        <path d="M26.7507 63.7297H262" stroke="#212121" stroke-opacity="0.3" stroke-width="0.576431" />
        <path
            d="M60.3872 81.3844H59.6688L59.4617 77.3064C59.4391 76.9232 59.4279 76.526 59.4279 76.1147H59.4025C59.3321 76.3175 59.2462 76.5359 59.1447 76.7697C59.0433 77.0007 58.3334 78.5389 57.0149 81.3844H56.2796L56.0176 75.2061H56.736L56.867 79.0137L56.8754 79.3855C56.8754 79.6616 56.8613 80.0251 56.8332 80.4758H56.8585C57.1093 79.7912 57.329 79.2517 57.5178 78.8573L59.2293 75.2061H59.9815L60.1632 78.8404C60.1885 79.2714 60.2012 79.6997 60.2012 80.1251L60.197 80.4758H60.235C60.4463 79.8447 60.6309 79.3461 60.7886 78.9798L62.424 75.2061H63.1932L60.3872 81.3844ZM65.5343 81.3844L66.1597 78.4601C66.2105 78.1952 66.2358 78.0051 66.2358 77.8896C66.2358 77.4726 66.0287 77.2641 65.6146 77.2641C65.3639 77.2641 65.1188 77.3472 64.8793 77.5135C64.6426 77.6797 64.4328 77.922 64.2496 78.2403C64.0693 78.5558 63.9327 78.9376 63.8397 79.3855L63.4129 81.3844H62.703L64.0975 74.8089H64.8075C64.7567 75.0399 64.7074 75.2639 64.6595 75.4808C64.6145 75.6977 64.5666 75.9189 64.5159 76.1443C64.468 76.3668 64.4144 76.6007 64.3553 76.8458C64.2989 77.0909 64.2327 77.3571 64.1567 77.6445H64.2032C64.468 77.2979 64.7286 77.05 64.9849 76.9007C65.2441 76.7514 65.5146 76.6767 65.7963 76.6767C66.1654 76.6767 66.4499 76.7781 66.65 76.981C66.8528 77.1838 66.9542 77.4712 66.9542 77.8431C66.9542 78.0177 66.9218 78.2516 66.857 78.5446C66.7471 79.0883 66.5429 80.0349 66.2443 81.3844H65.5343ZM70.149 76.6683C70.4082 76.6683 70.6392 76.7387 70.842 76.8796C71.0449 77.0176 71.2027 77.2176 71.3154 77.4796H71.3618L71.645 76.7528H72.1817L71.197 81.3844H70.635L70.7449 80.5012H70.711C70.2068 81.1463 69.6757 81.4689 69.1179 81.4689C68.7263 81.4689 68.4192 81.3294 68.1966 81.0505C67.9741 80.7716 67.8628 80.3899 67.8628 79.9053C67.8628 79.3193 67.9628 78.7756 68.1628 78.2741C68.3629 77.7726 68.6389 77.3796 68.9911 77.0951C69.3433 76.8105 69.7292 76.6683 70.149 76.6683ZM69.3461 80.8815C69.6194 80.8815 69.8912 80.7519 70.1617 80.4927C70.4321 80.2307 70.6519 79.8912 70.8209 79.4743C70.99 79.0545 71.0745 78.6347 71.0745 78.215C71.0745 77.9248 70.9956 77.6938 70.8378 77.5219C70.6801 77.3501 70.473 77.2641 70.2166 77.2641C69.9236 77.2641 69.6503 77.3853 69.3968 77.6276C69.1461 77.8698 68.9488 78.1981 68.8052 78.6122C68.6615 79.0263 68.5896 79.463 68.5896 79.9222C68.5896 80.2434 68.6558 80.4843 68.7883 80.6449C68.9207 80.8026 69.1066 80.8815 69.3461 80.8815ZM74.0115 80.89C74.1664 80.89 74.3693 80.8533 74.62 80.7801V81.3252C74.5242 81.3647 74.4059 81.3985 74.265 81.4266C74.1242 81.4548 74.0115 81.4689 73.927 81.4689C73.5748 81.4689 73.3043 81.3858 73.1156 81.2196C72.9296 81.0505 72.8367 80.7998 72.8367 80.4674C72.8367 80.2814 72.862 80.0701 72.9127 79.8335L73.4494 77.2895H72.7226L72.7817 76.981L73.5635 76.6514L74.0918 75.6879H74.5059L74.2735 76.7528H75.4314L75.3215 77.2895H74.1678L73.6227 79.8419C73.572 80.087 73.5466 80.273 73.5466 80.3997C73.5466 80.5575 73.5875 80.6787 73.6692 80.7632C73.7509 80.8477 73.865 80.89 74.0115 80.89ZM80.4771 81.3844L81.1025 78.4601C81.1589 78.1671 81.1871 77.9642 81.1871 77.8515C81.1871 77.674 81.1364 77.5318 81.0349 77.4247C80.9363 77.3177 80.7772 77.2641 80.5574 77.2641C80.3067 77.2641 80.0616 77.3486 79.8221 77.5177C79.5854 77.6867 79.3756 77.9276 79.1924 78.2403C79.0121 78.553 78.8755 78.932 78.7825 79.3771L78.3557 81.3844H77.6458L78.6346 76.7528H79.222L79.129 77.6107H79.1713C79.4418 77.2669 79.7024 77.0247 79.9531 76.8838C80.2067 76.7401 80.4687 76.6683 80.7391 76.6683C81.0969 76.6683 81.3786 76.7669 81.5843 76.9641C81.7928 77.1585 81.897 77.4318 81.897 77.7839C81.897 78.0065 81.8646 78.26 81.7998 78.5446L81.1955 81.3844H80.4771ZM84.4706 81.4689C83.9522 81.4689 83.5451 81.3154 83.2493 81.0083C82.9535 80.7012 82.8056 80.2758 82.8056 79.7321C82.8056 79.2024 82.9098 78.6953 83.1183 78.2107C83.3296 77.7233 83.6085 77.3444 83.955 77.074C84.3016 76.8035 84.6833 76.6683 85.1003 76.6683C85.5313 76.6683 85.8553 76.7627 86.0722 76.9514C86.2891 77.1373 86.3976 77.3979 86.3976 77.7332C86.3976 78.2403 86.1638 78.639 85.6961 78.9291C85.2284 79.2165 84.5593 79.3602 83.6888 79.3602H83.5493L83.5324 79.6982C83.5324 80.0673 83.6184 80.3561 83.7902 80.5646C83.9649 80.7702 84.2339 80.873 84.5974 80.873C84.7749 80.873 84.9566 80.8477 85.1425 80.797C85.3313 80.7463 85.5651 80.6533 85.844 80.5181V81.1351C85.5792 81.259 85.3454 81.3449 85.1425 81.3928C84.9397 81.4435 84.7157 81.4689 84.4706 81.4689ZM85.058 77.2726C84.7678 77.2726 84.4945 77.405 84.2382 77.6698C83.9846 77.9346 83.7902 78.3023 83.655 78.7728H83.7057C84.348 78.7728 84.8397 78.6897 85.1805 78.5234C85.5243 78.3544 85.6961 78.1107 85.6961 77.7924C85.6961 77.643 85.644 77.5191 85.5397 77.4205C85.4383 77.3219 85.2777 77.2726 85.058 77.2726ZM88.7388 81.4689C88.2204 81.4689 87.8133 81.3154 87.5175 81.0083C87.2217 80.7012 87.0738 80.2758 87.0738 79.7321C87.0738 79.2024 87.178 78.6953 87.3865 78.2107C87.5978 77.7233 87.8767 77.3444 88.2232 77.074C88.5697 76.8035 88.9515 76.6683 89.3684 76.6683C89.7995 76.6683 90.1234 76.7627 90.3404 76.9514C90.5573 77.1373 90.6658 77.3979 90.6658 77.7332C90.6658 78.2403 90.4319 78.639 89.9643 78.9291C89.4966 79.2165 88.8275 79.3602 87.957 79.3602H87.8175L87.8006 79.6982C87.8006 80.0673 87.8865 80.3561 88.0584 80.5646C88.2331 80.7702 88.5021 80.873 88.8655 80.873C89.043 80.873 89.2247 80.8477 89.4107 80.797C89.5994 80.7463 89.8333 80.6533 90.1122 80.5181V81.1351C89.8474 81.259 89.6135 81.3449 89.4107 81.3928C89.2078 81.4435 88.9839 81.4689 88.7388 81.4689ZM89.3262 77.2726C89.036 77.2726 88.7627 77.405 88.5063 77.6698C88.2528 77.9346 88.0584 78.3023 87.9232 78.7728H87.9739C88.6162 78.7728 89.1078 78.6897 89.4487 78.5234C89.7924 78.3544 89.9643 78.1107 89.9643 77.7924C89.9643 77.643 89.9122 77.5191 89.8079 77.4205C89.7065 77.3219 89.5459 77.2726 89.3262 77.2726ZM93.6281 76.6767C94.1747 76.6767 94.5705 76.9444 94.8156 77.4796H94.8579C94.9058 77.043 94.9692 76.657 95.048 76.3217L95.3777 74.8089H96.0792L94.6846 81.3844H94.0972L94.1902 80.5012H94.1564C93.8718 80.8533 93.6056 81.1027 93.3577 81.2492C93.1098 81.3957 92.8534 81.4689 92.5886 81.4689C92.197 81.4689 91.8913 81.3309 91.6715 81.0548C91.4518 80.7787 91.3419 80.3955 91.3419 79.9053C91.3419 79.3024 91.4433 78.7502 91.6462 78.2488C91.849 77.7473 92.1223 77.3599 92.466 77.0866C92.8125 76.8134 93.1999 76.6767 93.6281 76.6767ZM92.8252 80.8815C93.09 80.8815 93.3633 80.7505 93.645 80.4885C93.9268 80.2237 94.1493 79.887 94.3127 79.4785C94.4789 79.0672 94.5621 78.6488 94.5621 78.2234C94.5621 77.9107 94.486 77.6726 94.3339 77.5092C94.1817 77.3458 93.9606 77.2641 93.6704 77.2641C93.3858 77.2641 93.121 77.381 92.8759 77.6149C92.6336 77.8459 92.4378 78.1727 92.2885 78.5953C92.142 79.0151 92.0688 79.4574 92.0688 79.9222C92.0688 80.5617 92.3209 80.8815 92.8252 80.8815ZM99.0288 80.0701C99.0288 80.5096 98.8725 80.8533 98.5598 81.1012C98.2499 81.3464 97.8118 81.4689 97.2455 81.4689C96.7694 81.4689 96.3398 81.3717 95.9566 81.1773V80.5096C96.1538 80.6279 96.3665 80.7195 96.5947 80.7843C96.8229 80.8491 97.0342 80.8815 97.2286 80.8815C97.5836 80.8815 97.8512 80.8111 98.0315 80.6702C98.2118 80.5293 98.302 80.349 98.302 80.1293C98.302 79.9687 98.2527 79.8335 98.1541 79.7236C98.0555 79.6137 97.8428 79.463 97.516 79.2714C97.1497 79.0658 96.8905 78.8643 96.7384 78.6671C96.5863 78.4699 96.5102 78.2361 96.5102 77.9656C96.5102 77.5768 96.6525 77.2641 96.937 77.0275C97.2216 76.788 97.5963 76.6683 98.0611 76.6683C98.5429 76.6683 99.0077 76.7725 99.4557 76.981L99.2275 77.5599L98.9908 77.4543C98.7063 77.3331 98.3964 77.2726 98.0611 77.2726C97.7991 77.2726 97.5934 77.3346 97.4441 77.4585C97.2948 77.5797 97.2202 77.7374 97.2202 77.9318C97.2202 78.0896 97.2695 78.2248 97.3681 78.3375C97.4695 78.4502 97.6765 78.5953 97.9893 78.7728C98.2907 78.9418 98.5062 79.0869 98.6358 79.208C98.7682 79.3292 98.8668 79.4602 98.9316 79.6011C98.9964 79.7391 99.0288 79.8955 99.0288 80.0701ZM103.551 80.89C103.706 80.89 103.908 80.8533 104.159 80.7801V81.3252C104.063 81.3647 103.945 81.3985 103.804 81.4266C103.663 81.4548 103.551 81.4689 103.466 81.4689C103.114 81.4689 102.843 81.3858 102.655 81.2196C102.469 81.0505 102.376 80.7998 102.376 80.4674C102.376 80.2814 102.401 80.0701 102.452 79.8335L102.989 77.2895H102.262L102.321 76.981L103.103 76.6514L103.631 75.6879H104.045L103.813 76.7528H104.97L104.861 77.2895H103.707L103.162 79.8419C103.111 80.087 103.086 80.273 103.086 80.3997C103.086 80.5575 103.127 80.6787 103.208 80.7632C103.29 80.8477 103.404 80.89 103.551 80.89ZM107.405 76.6936C107.94 76.6936 108.362 76.8528 108.672 77.1712C108.982 77.4867 109.137 77.922 109.137 78.477C109.137 79.0066 109.036 79.5067 108.833 79.9772C108.63 80.4476 108.355 80.8111 108.009 81.0674C107.662 81.3238 107.271 81.452 106.834 81.452C106.293 81.452 105.869 81.2928 105.562 80.9745C105.255 80.6561 105.101 80.2209 105.101 79.6687C105.101 79.1334 105.204 78.6305 105.41 78.16C105.616 77.6867 105.893 77.3247 106.242 77.074C106.592 76.8204 106.979 76.6936 107.405 76.6936ZM108.402 78.3798C108.402 78.0558 108.313 77.7938 108.136 77.5937C107.961 77.3909 107.723 77.2895 107.421 77.2895C107.114 77.2895 106.838 77.3937 106.593 77.6022C106.351 77.8107 106.162 78.1009 106.027 78.4727C105.895 78.8418 105.828 79.2531 105.828 79.7067C105.828 80.0758 105.917 80.3617 106.095 80.5646C106.275 80.7646 106.533 80.8646 106.868 80.8646C107.161 80.8646 107.424 80.7618 107.658 80.5561C107.892 80.3504 108.074 80.0589 108.203 79.6813C108.336 79.301 108.402 78.8672 108.402 78.3798ZM114.098 81.4689C113.825 81.4689 113.584 81.3971 113.376 81.2534C113.17 81.1097 113.015 80.9139 112.911 80.666H112.869L112.573 81.3844H112.045L113.439 74.8089H114.149C114.005 75.4907 113.894 76.0133 113.815 76.3767C113.739 76.7373 113.634 77.1599 113.498 77.6445H113.536C113.798 77.312 114.056 77.0683 114.31 76.9134C114.566 76.7556 114.829 76.6767 115.1 76.6767C115.497 76.6767 115.807 76.8162 116.03 77.0951C116.252 77.374 116.364 77.7571 116.364 78.2445C116.364 78.8333 116.266 79.3785 116.072 79.88C115.88 80.3786 115.611 80.7688 115.265 81.0505C114.921 81.3294 114.532 81.4689 114.098 81.4689ZM114.884 77.2641C114.614 77.2641 114.338 77.3979 114.056 77.6656C113.777 77.9332 113.555 78.2699 113.388 78.6756C113.225 79.0813 113.143 79.4968 113.143 79.9222C113.143 80.2321 113.221 80.4702 113.376 80.6364C113.534 80.7998 113.76 80.8815 114.056 80.8815C114.335 80.8815 114.594 80.7674 114.834 80.5392C115.076 80.311 115.27 79.987 115.417 79.5672C115.563 79.1447 115.637 78.6967 115.637 78.2234C115.637 77.5839 115.386 77.2641 114.884 77.2641ZM118.869 81.4689C118.351 81.4689 117.944 81.3154 117.648 81.0083C117.352 80.7012 117.204 80.2758 117.204 79.7321C117.204 79.2024 117.309 78.6953 117.517 78.2107C117.728 77.7233 118.007 77.3444 118.354 77.074C118.7 76.8035 119.082 76.6683 119.499 76.6683C119.93 76.6683 120.254 76.7627 120.471 76.9514C120.688 77.1373 120.796 77.3979 120.796 77.7332C120.796 78.2403 120.563 78.639 120.095 78.9291C119.627 79.2165 118.958 79.3602 118.088 79.3602H117.948L117.931 79.6982C117.931 80.0673 118.017 80.3561 118.189 80.5646C118.364 80.7702 118.633 80.873 118.996 80.873C119.174 80.873 119.355 80.8477 119.541 80.797C119.73 80.7463 119.964 80.6533 120.243 80.5181V81.1351C119.978 81.259 119.744 81.3449 119.541 81.3928C119.339 81.4435 119.115 81.4689 118.869 81.4689ZM119.457 77.2726C119.167 77.2726 118.893 77.405 118.637 77.6698C118.383 77.9346 118.189 78.3023 118.054 78.7728H118.105C118.747 78.7728 119.239 78.6897 119.579 78.5234C119.923 78.3544 120.095 78.1107 120.095 77.7924C120.095 77.643 120.043 77.5191 119.939 77.4205C119.837 77.3219 119.677 77.2726 119.457 77.2726ZM126.007 76.6767C126.554 76.6767 126.949 76.9444 127.194 77.4796H127.237C127.285 77.043 127.348 76.657 127.427 76.3217L127.757 74.8089H128.458L127.063 81.3844H126.476L126.569 80.5012H126.535C126.251 80.8533 125.984 81.1027 125.737 81.2492C125.489 81.3957 125.232 81.4689 124.967 81.4689C124.576 81.4689 124.27 81.3309 124.05 81.0548C123.831 80.7787 123.721 80.3955 123.721 79.9053C123.721 79.3024 123.822 78.7502 124.025 78.2488C124.228 77.7473 124.501 77.3599 124.845 77.0866C125.191 76.8134 125.579 76.6767 126.007 76.6767ZM125.204 80.8815C125.469 80.8815 125.742 80.7505 126.024 80.4885C126.306 80.2237 126.528 79.887 126.692 79.4785C126.858 79.0672 126.941 78.6488 126.941 78.2234C126.941 77.9107 126.865 77.6726 126.713 77.5092C126.561 77.3458 126.339 77.2641 126.049 77.2641C125.765 77.2641 125.5 77.381 125.255 77.6149C125.013 77.8459 124.817 78.1727 124.667 78.5953C124.521 79.0151 124.448 79.4574 124.448 79.9222C124.448 80.5617 124.7 80.8815 125.204 80.8815ZM131.019 76.6936C131.554 76.6936 131.977 76.8528 132.287 77.1712C132.597 77.4867 132.752 77.922 132.752 78.477C132.752 79.0066 132.65 79.5067 132.447 79.9772C132.244 80.4476 131.97 80.8111 131.623 81.0674C131.277 81.3238 130.885 81.452 130.448 81.452C129.908 81.452 129.484 81.2928 129.176 80.9745C128.869 80.6561 128.716 80.2209 128.716 79.6687C128.716 79.1334 128.819 78.6305 129.024 78.16C129.23 77.6867 129.507 77.3247 129.857 77.074C130.206 76.8204 130.594 76.6936 131.019 76.6936ZM132.016 78.3798C132.016 78.0558 131.928 77.7938 131.75 77.5937C131.575 77.3909 131.337 77.2895 131.036 77.2895C130.729 77.2895 130.453 77.3937 130.208 77.6022C129.965 77.8107 129.777 78.1009 129.641 78.4727C129.509 78.8418 129.443 79.2531 129.443 79.7067C129.443 80.0758 129.531 80.3617 129.709 80.5646C129.889 80.7646 130.147 80.8646 130.482 80.8646C130.775 80.8646 131.039 80.7618 131.273 80.5561C131.506 80.3504 131.688 80.0589 131.818 79.6813C131.95 79.301 132.016 78.8672 132.016 78.3798ZM136.242 81.3844L136.868 78.4601C136.924 78.1671 136.952 77.9642 136.952 77.8515C136.952 77.674 136.901 77.5318 136.8 77.4247C136.701 77.3177 136.542 77.2641 136.322 77.2641C136.072 77.2641 135.827 77.3486 135.587 77.5177C135.35 77.6867 135.141 77.9276 134.957 78.2403C134.777 78.553 134.641 78.932 134.548 79.3771L134.121 81.3844H133.411L134.4 76.7528H134.987L134.894 77.6107H134.936C135.207 77.2669 135.467 77.0247 135.718 76.8838C135.972 76.7401 136.234 76.6683 136.504 76.6683C136.862 76.6683 137.144 76.7669 137.349 76.9641C137.558 77.1585 137.662 77.4318 137.662 77.7839C137.662 78.0065 137.63 78.26 137.565 78.5446L136.961 81.3844H136.242ZM140.236 81.4689C139.717 81.4689 139.31 81.3154 139.014 81.0083C138.719 80.7012 138.571 80.2758 138.571 79.7321C138.571 79.2024 138.675 78.6953 138.883 78.2107C139.095 77.7233 139.374 77.3444 139.72 77.074C140.067 76.8035 140.448 76.6683 140.865 76.6683C141.296 76.6683 141.62 76.7627 141.837 76.9514C142.054 77.1373 142.163 77.3979 142.163 77.7332C142.163 78.2403 141.929 78.639 141.461 78.9291C140.993 79.2165 140.324 79.3602 139.454 79.3602H139.314L139.297 79.6982C139.297 80.0673 139.383 80.3561 139.555 80.5646C139.73 80.7702 139.999 80.873 140.362 80.873C140.54 80.873 140.722 80.8477 140.908 80.797C141.096 80.7463 141.33 80.6533 141.609 80.5181V81.1351C141.344 81.259 141.11 81.3449 140.908 81.3928C140.705 81.4435 140.481 81.4689 140.236 81.4689ZM140.823 77.2726C140.533 77.2726 140.26 77.405 140.003 77.6698C139.75 77.9346 139.555 78.3023 139.42 78.7728H139.471C140.113 78.7728 140.605 78.6897 140.946 78.5234C141.289 78.3544 141.461 78.1107 141.461 77.7924C141.461 77.643 141.409 77.5191 141.305 77.4205C141.203 77.3219 141.043 77.2726 140.823 77.2726ZM143.523 79.6813C143.585 79.3151 143.687 79.0151 143.828 78.7812C143.971 78.5446 144.205 78.2981 144.529 78.0417C144.89 77.76 145.126 77.5571 145.239 77.4332C145.352 77.3092 145.441 77.1768 145.505 77.0359C145.57 76.8951 145.603 76.7373 145.603 76.5626C145.603 76.3006 145.529 76.0992 145.383 75.9583C145.239 75.8146 145.032 75.7428 144.762 75.7428C144.533 75.7428 144.315 75.7794 144.107 75.8527C143.898 75.9231 143.701 76.002 143.515 76.0893L143.257 75.5442C143.516 75.4005 143.787 75.2934 144.069 75.223C144.35 75.1526 144.607 75.1174 144.838 75.1174C145.308 75.1174 145.673 75.2357 145.932 75.4723C146.191 75.709 146.321 76.0442 146.321 76.4781C146.321 76.8246 146.228 77.1444 146.042 77.4374C145.859 77.7276 145.542 78.0417 145.091 78.3798C144.739 78.6361 144.501 78.8446 144.377 79.0052C144.253 79.163 144.159 79.3883 144.094 79.6813H143.523ZM143.092 81.0717C143.092 80.8547 143.149 80.6829 143.261 80.5561C143.374 80.4265 143.53 80.3617 143.73 80.3617C143.854 80.3617 143.953 80.3983 144.026 80.4716C144.102 80.5448 144.14 80.6561 144.14 80.8054C144.14 81.0111 144.081 81.1801 143.963 81.3125C143.847 81.4421 143.698 81.5069 143.515 81.5069C143.385 81.5069 143.283 81.4703 143.206 81.3971C143.13 81.3238 143.092 81.2153 143.092 81.0717Z"
            fill="#212121" fill-opacity="0.5" />
        <path
            d="M59.7237 108.135L59.1067 106.419H56.7444L56.1401 108.135H55.0752L57.3868 101.932H58.4855L60.7971 108.135H59.7237ZM58.8405 105.549L58.2615 103.867C58.2193 103.754 58.1601 103.577 58.084 103.335C58.0108 103.092 57.9601 102.915 57.9319 102.802C57.8558 103.149 57.7446 103.527 57.5981 103.939L57.0402 105.549H58.8405ZM62.572 108.135L60.7971 103.461H61.8451L62.7959 106.179C62.9593 106.635 63.0579 107.004 63.0917 107.286H63.1255C63.1509 107.083 63.2495 106.714 63.4214 106.179L64.3722 103.461H65.4287L63.6453 108.135H62.572ZM70.2842 105.79C70.2842 106.553 70.0884 107.149 69.6968 107.577C69.3052 108.006 68.7601 108.22 68.0614 108.22C67.6247 108.22 67.2388 108.121 66.9035 107.924C66.5682 107.727 66.3105 107.443 66.1302 107.074C65.9499 106.705 65.8597 106.277 65.8597 105.79C65.8597 105.032 66.0541 104.44 66.4429 104.015C66.8317 103.589 67.3796 103.377 68.0868 103.377C68.7629 103.377 69.2982 103.595 69.6926 104.032C70.087 104.466 70.2842 105.052 70.2842 105.79ZM66.8824 105.79C66.8824 106.869 67.281 107.408 68.0783 107.408C68.8671 107.408 69.2616 106.869 69.2616 105.79C69.2616 104.722 68.8643 104.188 68.0699 104.188C67.6529 104.188 67.35 104.326 67.1613 104.602C66.9753 104.878 66.8824 105.274 66.8824 105.79ZM72.4225 108.135H71.4294V103.461H72.4225V108.135ZM71.3703 102.223C71.3703 102.046 71.4182 101.909 71.514 101.813C71.6126 101.717 71.752 101.669 71.9323 101.669C72.107 101.669 72.2422 101.717 72.338 101.813C72.4366 101.909 72.4859 102.046 72.4859 102.223C72.4859 102.392 72.4366 102.526 72.338 102.625C72.2422 102.72 72.107 102.768 71.9323 102.768C71.752 102.768 71.6126 102.72 71.514 102.625C71.4182 102.526 71.3703 102.392 71.3703 102.223ZM75.4229 108.22C74.8398 108.22 74.3848 108.008 74.058 107.586C73.7312 107.163 73.5678 106.57 73.5678 105.807C73.5678 105.04 73.7326 104.445 74.0622 104.019C74.3946 103.591 74.8538 103.377 75.4398 103.377C76.054 103.377 76.5217 103.604 76.8428 104.057H76.8935C76.8457 103.722 76.8217 103.457 76.8217 103.263V101.56H77.819V108.135H77.0415L76.8682 107.522H76.8217C76.5034 107.987 76.0371 108.22 75.4229 108.22ZM75.6892 107.417C76.0977 107.417 76.3949 107.303 76.5808 107.074C76.7668 106.843 76.8626 106.47 76.8682 105.955V105.815C76.8682 105.226 76.7724 104.808 76.5808 104.56C76.3893 104.312 76.0892 104.188 75.6807 104.188C75.3314 104.188 75.0623 104.33 74.8736 104.615C74.6848 104.897 74.5904 105.3 74.5904 105.824C74.5904 106.342 74.682 106.738 74.8651 107.011C75.0482 107.281 75.3229 107.417 75.6892 107.417ZM83.2282 107.417C83.4705 107.417 83.7127 107.379 83.955 107.303V108.051C83.8452 108.099 83.7029 108.138 83.5282 108.169C83.3564 108.203 83.1775 108.22 82.9915 108.22C82.0506 108.22 81.5801 107.724 81.5801 106.732V104.213H80.942V103.774L81.6266 103.411L81.9646 102.422H82.5774V103.461H83.9085V104.213H82.5774V106.715C82.5774 106.955 82.6366 107.132 82.7549 107.248C82.876 107.36 83.0338 107.417 83.2282 107.417ZM89.0388 105.79C89.0388 106.553 88.843 107.149 88.4514 107.577C88.0598 108.006 87.5147 108.22 86.816 108.22C86.3793 108.22 85.9933 108.121 85.6581 107.924C85.3228 107.727 85.065 107.443 84.8847 107.074C84.7044 106.705 84.6143 106.277 84.6143 105.79C84.6143 105.032 84.8087 104.44 85.1974 104.015C85.5862 103.589 86.1342 103.377 86.8413 103.377C87.5175 103.377 88.0528 103.595 88.4472 104.032C88.8416 104.466 89.0388 105.052 89.0388 105.79ZM85.6369 105.79C85.6369 106.869 86.0356 107.408 86.8329 107.408C87.6217 107.408 88.0161 106.869 88.0161 105.79C88.0161 104.722 87.6189 104.188 86.8244 104.188C86.4075 104.188 86.1046 104.326 85.9159 104.602C85.7299 104.878 85.6369 105.274 85.6369 105.79ZM93.4802 108.135L93.3408 107.522H93.2901C93.152 107.739 92.9548 107.91 92.6984 108.034C92.4449 108.158 92.1547 108.22 91.8279 108.22C91.2616 108.22 90.839 108.079 90.5601 107.797C90.2812 107.515 90.1418 107.089 90.1418 106.517V103.461H91.1433V106.343C91.1433 106.701 91.2165 106.97 91.363 107.15C91.5095 107.328 91.7391 107.417 92.0519 107.417C92.4688 107.417 92.7745 107.293 92.9689 107.045C93.1661 106.794 93.2647 106.376 93.2647 105.79V103.461H94.262V108.135H93.4802ZM97.5624 108.22C96.8553 108.22 96.3172 108.014 95.9482 107.603C95.5819 107.189 95.3988 106.595 95.3988 105.824C95.3988 105.038 95.5904 104.433 95.9735 104.011C96.3595 103.588 96.9159 103.377 97.6427 103.377C98.1358 103.377 98.5795 103.468 98.9739 103.651L98.6739 104.45C98.2541 104.287 97.9076 104.205 97.6343 104.205C96.8257 104.205 96.4215 104.742 96.4215 105.815C96.4215 106.339 96.5215 106.734 96.7215 106.998C96.9243 107.26 97.2202 107.391 97.6089 107.391C98.0512 107.391 98.4696 107.281 98.864 107.062V107.928C98.6865 108.032 98.4964 108.107 98.2935 108.152C98.0935 108.197 97.8498 108.22 97.5624 108.22ZM104.075 108.135H103.077V105.262C103.077 104.901 103.004 104.632 102.858 104.454C102.714 104.277 102.484 104.188 102.169 104.188C101.752 104.188 101.445 104.314 101.247 104.564C101.053 104.812 100.956 105.229 100.956 105.815V108.135H99.9628V101.56H100.956V103.229C100.956 103.496 100.939 103.782 100.905 104.087H100.969C101.104 103.861 101.291 103.687 101.531 103.563C101.773 103.439 102.055 103.377 102.376 103.377C103.508 103.377 104.075 103.947 104.075 105.088V108.135ZM106.45 108.135H105.456V103.461H106.45V108.135ZM105.397 102.223C105.397 102.046 105.445 101.909 105.541 101.813C105.64 101.717 105.779 101.669 105.959 101.669C106.134 101.669 106.269 101.717 106.365 101.813C106.464 101.909 106.513 102.046 106.513 102.223C106.513 102.392 106.464 102.526 106.365 102.625C106.269 102.72 106.134 102.768 105.959 102.768C105.779 102.768 105.64 102.72 105.541 102.625C105.445 102.526 105.397 102.392 105.397 102.223ZM111.985 108.135H110.988V105.262C110.988 104.901 110.915 104.632 110.768 104.454C110.625 104.277 110.395 104.188 110.08 104.188C109.66 104.188 109.353 104.312 109.158 104.56C108.964 104.808 108.867 105.223 108.867 105.807V108.135H107.874V103.461H108.651L108.791 104.074H108.841C108.982 103.851 109.182 103.68 109.441 103.558C109.701 103.437 109.988 103.377 110.304 103.377C111.425 103.377 111.985 103.947 111.985 105.088V108.135ZM117.314 103.461V104.006L116.516 104.154C116.589 104.253 116.649 104.374 116.697 104.518C116.745 104.661 116.769 104.814 116.769 104.974C116.769 105.456 116.603 105.835 116.271 106.111C115.938 106.387 115.48 106.525 114.897 106.525C114.748 106.525 114.613 106.514 114.491 106.491C114.277 106.624 114.17 106.779 114.17 106.956C114.17 107.063 114.22 107.143 114.318 107.197C114.42 107.251 114.604 107.277 114.872 107.277H115.687C116.203 107.277 116.595 107.387 116.862 107.607C117.13 107.827 117.264 108.144 117.264 108.558C117.264 109.087 117.045 109.496 116.609 109.783C116.172 110.071 115.541 110.214 114.715 110.214C114.079 110.214 113.593 110.102 113.257 109.876C112.922 109.651 112.755 109.33 112.755 108.913C112.755 108.625 112.845 108.383 113.025 108.186C113.208 107.991 113.463 107.856 113.79 107.78C113.658 107.724 113.548 107.634 113.46 107.51C113.376 107.383 113.334 107.251 113.334 107.112C113.334 106.938 113.383 106.79 113.481 106.669C113.58 106.548 113.727 106.428 113.921 106.31C113.679 106.205 113.481 106.036 113.329 105.802C113.18 105.566 113.105 105.29 113.105 104.974C113.105 104.467 113.265 104.074 113.583 103.795C113.904 103.516 114.36 103.377 114.952 103.377C115.084 103.377 115.223 103.387 115.366 103.406C115.513 103.423 115.623 103.442 115.696 103.461H117.314ZM113.642 108.862C113.642 109.076 113.738 109.241 113.929 109.356C114.124 109.472 114.396 109.53 114.745 109.53C115.286 109.53 115.689 109.452 115.954 109.297C116.218 109.142 116.351 108.937 116.351 108.68C116.351 108.477 116.278 108.332 116.131 108.245C115.987 108.16 115.718 108.118 115.324 108.118H114.572C114.287 108.118 114.06 108.184 113.891 108.317C113.725 108.452 113.642 108.634 113.642 108.862ZM114.069 104.974C114.069 105.267 114.143 105.493 114.293 105.65C114.445 105.808 114.662 105.887 114.944 105.887C115.518 105.887 115.806 105.58 115.806 104.966C115.806 104.661 115.734 104.428 115.59 104.264C115.449 104.098 115.234 104.015 114.944 104.015C114.656 104.015 114.438 104.097 114.289 104.26C114.142 104.423 114.069 104.661 114.069 104.974ZM119.723 103.461H120.805L121.756 106.111C121.899 106.488 121.995 106.843 122.043 107.176H122.077C122.102 107.021 122.149 106.834 122.216 106.614C122.284 106.391 122.642 105.34 123.29 103.461H124.363L122.364 108.756C122.001 109.728 121.395 110.214 120.547 110.214C120.327 110.214 120.113 110.19 119.905 110.142V109.356C120.054 109.39 120.225 109.407 120.416 109.407C120.895 109.407 121.232 109.13 121.426 108.575L121.599 108.135L119.723 103.461ZM129.219 105.79C129.219 106.553 129.023 107.149 128.631 107.577C128.24 108.006 127.695 108.22 126.996 108.22C126.559 108.22 126.173 108.121 125.838 107.924C125.503 107.727 125.245 107.443 125.065 107.074C124.884 106.705 124.794 106.277 124.794 105.79C124.794 105.032 124.989 104.44 125.377 104.015C125.766 103.589 126.314 103.377 127.021 103.377C127.697 103.377 128.233 103.595 128.627 104.032C129.022 104.466 129.219 105.052 129.219 105.79ZM125.817 105.79C125.817 106.869 126.215 107.408 127.013 107.408C127.802 107.408 128.196 106.869 128.196 105.79C128.196 104.722 127.799 104.188 127.004 104.188C126.587 104.188 126.285 104.326 126.096 104.602C125.91 104.878 125.817 105.274 125.817 105.79ZM133.66 108.135L133.521 107.522H133.47C133.332 107.739 133.135 107.91 132.878 108.034C132.625 108.158 132.335 108.22 132.008 108.22C131.442 108.22 131.019 108.079 130.74 107.797C130.461 107.515 130.322 107.089 130.322 106.517V103.461H131.323V106.343C131.323 106.701 131.396 106.97 131.543 107.15C131.689 107.328 131.919 107.417 132.232 107.417C132.649 107.417 132.954 107.293 133.149 107.045C133.346 106.794 133.445 106.376 133.445 105.79V103.461H134.442V108.135H133.66ZM138.228 103.377C138.428 103.377 138.593 103.391 138.723 103.419L138.626 104.344C138.485 104.311 138.338 104.294 138.186 104.294C137.789 104.294 137.466 104.423 137.218 104.683C136.973 104.942 136.851 105.278 136.851 105.693V108.135H135.858V103.461H136.635L136.766 104.285H136.817C136.972 104.006 137.173 103.785 137.421 103.622C137.672 103.458 137.941 103.377 138.228 103.377ZM144.187 104.213H143.046V108.135H142.049V104.213H141.279V103.749L142.049 103.444V103.14C142.049 102.588 142.178 102.179 142.437 101.915C142.697 101.647 143.092 101.513 143.625 101.513C143.974 101.513 144.318 101.571 144.656 101.686L144.394 102.439C144.149 102.36 143.915 102.32 143.692 102.32C143.467 102.32 143.302 102.391 143.198 102.532C143.097 102.67 143.046 102.878 143.046 103.157V103.461H144.187V104.213ZM147.91 108.135L147.711 107.484H147.677C147.452 107.769 147.225 107.963 146.997 108.068C146.769 108.169 146.476 108.22 146.118 108.22C145.659 108.22 145.3 108.096 145.04 107.848C144.784 107.6 144.656 107.249 144.656 106.796C144.656 106.314 144.835 105.95 145.193 105.705C145.55 105.46 146.096 105.326 146.828 105.304L147.635 105.278V105.029C147.635 104.73 147.565 104.508 147.424 104.361C147.286 104.212 147.07 104.137 146.777 104.137C146.538 104.137 146.308 104.173 146.089 104.243C145.869 104.314 145.657 104.397 145.455 104.492L145.133 103.782C145.387 103.65 145.665 103.55 145.966 103.482C146.267 103.412 146.552 103.377 146.82 103.377C147.414 103.377 147.862 103.506 148.163 103.766C148.468 104.025 148.62 104.432 148.62 104.987V108.135H147.91ZM146.431 107.459C146.791 107.459 147.08 107.359 147.297 107.159C147.517 106.956 147.627 106.673 147.627 106.31V105.904L147.027 105.929C146.559 105.946 146.218 106.025 146.004 106.166C145.793 106.304 145.687 106.517 145.687 106.804C145.687 107.012 145.749 107.174 145.873 107.29C145.997 107.403 146.183 107.459 146.431 107.459ZM151.891 108.22C151.184 108.22 150.645 108.014 150.276 107.603C149.91 107.189 149.727 106.595 149.727 105.824C149.727 105.038 149.919 104.433 150.302 104.011C150.688 103.588 151.244 103.377 151.971 103.377C152.464 103.377 152.908 103.468 153.302 103.651L153.002 104.45C152.582 104.287 152.236 104.205 151.963 104.205C151.154 104.205 150.75 104.742 150.75 105.815C150.75 106.339 150.85 106.734 151.05 106.998C151.253 107.26 151.548 107.391 151.937 107.391C152.379 107.391 152.798 107.281 153.192 107.062V107.928C153.015 108.032 152.825 108.107 152.622 108.152C152.422 108.197 152.178 108.22 151.891 108.22ZM156.332 108.22C155.605 108.22 155.036 108.008 154.625 107.586C154.216 107.16 154.012 106.576 154.012 105.832C154.012 105.069 154.202 104.468 154.583 104.032C154.963 103.595 155.486 103.377 156.15 103.377C156.767 103.377 157.255 103.564 157.613 103.939C157.97 104.314 158.149 104.829 158.149 105.485V106.022H155.035C155.049 106.476 155.171 106.825 155.402 107.07C155.633 107.312 155.959 107.434 156.379 107.434C156.655 107.434 156.911 107.408 157.148 107.358C157.387 107.304 157.644 107.217 157.917 107.096V107.903C157.675 108.018 157.429 108.1 157.182 108.148C156.934 108.196 156.65 108.22 156.332 108.22ZM156.15 104.129C155.835 104.129 155.581 104.229 155.39 104.429C155.201 104.629 155.088 104.921 155.052 105.304H157.173C157.167 104.918 157.074 104.626 156.894 104.429C156.714 104.229 156.466 104.129 156.15 104.129Z"
            fill="#212121" fill-opacity="0.8" />
        <path
            d="M59.4532 133.995C59.4532 134.544 59.2546 134.975 58.8574 135.288C58.4601 135.601 57.9122 135.757 57.2135 135.757C56.5148 135.757 55.9429 135.649 55.4978 135.432V134.477C55.7795 134.609 56.0781 134.713 56.3937 134.789C56.712 134.866 57.0078 134.904 57.2811 134.904C57.6812 134.904 57.9756 134.827 58.1643 134.675C58.3559 134.523 58.4517 134.319 58.4517 134.063C58.4517 133.832 58.3644 133.636 58.1897 133.475C58.015 133.315 57.6544 133.124 57.1079 132.905C56.5444 132.677 56.1472 132.416 55.9162 132.123C55.6851 131.83 55.5696 131.478 55.5696 131.066C55.5696 130.551 55.7527 130.145 56.119 129.849C56.4852 129.554 56.9769 129.406 57.5938 129.406C58.1855 129.406 58.7743 129.535 59.3603 129.794L59.0391 130.618C58.4897 130.387 57.9995 130.272 57.5685 130.272C57.2417 130.272 56.9938 130.344 56.8247 130.487C56.6557 130.628 56.5712 130.816 56.5712 131.05C56.5712 131.21 56.605 131.348 56.6726 131.464C56.7402 131.576 56.8515 131.683 57.0064 131.785C57.1614 131.886 57.4403 132.02 57.8432 132.186C58.2967 132.375 58.6292 132.551 58.8405 132.715C59.0518 132.878 59.2067 133.062 59.3053 133.268C59.4039 133.474 59.4532 133.716 59.4532 133.995ZM62.2846 134.954C62.5269 134.954 62.7692 134.916 63.0114 134.84V135.588C62.9016 135.636 62.7593 135.675 62.5846 135.706C62.4128 135.74 62.2339 135.757 62.0479 135.757C61.107 135.757 60.6365 135.261 60.6365 134.27V131.751H59.9984V131.312L60.683 130.948L61.021 129.959H61.6338V130.999H62.965V131.751H61.6338V134.253C61.6338 134.492 61.693 134.67 61.8113 134.785C61.9324 134.898 62.0902 134.954 62.2846 134.954ZM66.8739 135.673L66.6753 135.022H66.6415C66.4161 135.306 66.1893 135.501 65.9611 135.605C65.7329 135.706 65.4399 135.757 65.0821 135.757C64.6229 135.757 64.2637 135.633 64.0045 135.385C63.7482 135.137 63.62 134.787 63.62 134.333C63.62 133.851 63.7989 133.488 64.1567 133.243C64.5145 132.998 65.0596 132.864 65.7921 132.841L66.5992 132.816V132.567C66.5992 132.268 66.5288 132.045 66.3879 131.899C66.2499 131.75 66.0344 131.675 65.7414 131.675C65.5019 131.675 65.2723 131.71 65.0526 131.781C64.8328 131.851 64.6215 131.934 64.4187 132.03L64.0975 131.32C64.3511 131.188 64.6286 131.088 64.93 131.02C65.2315 130.95 65.516 130.914 65.7836 130.914C66.3781 130.914 66.826 131.044 67.1275 131.303C67.4317 131.562 67.5839 131.969 67.5839 132.524V135.673H66.8739ZM65.3949 134.997C65.7555 134.997 66.0442 134.897 66.2612 134.696C66.4809 134.494 66.5908 134.211 66.5908 133.847V133.441L65.9907 133.467C65.523 133.484 65.1822 133.563 64.968 133.703C64.7567 133.841 64.6511 134.054 64.6511 134.342C64.6511 134.55 64.7131 134.712 64.837 134.827C64.961 134.94 65.1469 134.997 65.3949 134.997ZM68.26 130.999H69.3419L70.2927 133.648C70.4364 134.026 70.5321 134.381 70.58 134.713H70.6138C70.6392 134.558 70.6857 134.371 70.7533 134.151C70.8209 133.929 71.1787 132.878 71.8267 130.999H72.9001L70.9012 136.294C70.5378 137.266 69.9321 137.752 69.0841 137.752C68.8643 137.752 68.6502 137.728 68.4417 137.68V136.894C68.591 136.928 68.7615 136.945 68.9531 136.945C69.432 136.945 69.7687 136.667 69.9631 136.112L70.1363 135.673L68.26 130.999ZM78.998 134.342C78.998 134.798 78.8318 135.149 78.4994 135.394C78.167 135.636 77.6908 135.757 77.071 135.757C76.4484 135.757 75.9484 135.663 75.5708 135.474V134.616C76.1202 134.87 76.6315 134.997 77.1048 134.997C77.7162 134.997 78.0219 134.812 78.0219 134.443C78.0219 134.325 77.9881 134.226 77.9204 134.147C77.8528 134.068 77.7415 133.987 77.5866 133.902C77.4316 133.818 77.2161 133.722 76.94 133.615C76.4019 133.406 76.0371 133.198 75.8455 132.989C75.6568 132.781 75.5624 132.51 75.5624 132.178C75.5624 131.778 75.723 131.468 76.0441 131.248C76.3681 131.026 76.8076 130.914 77.3626 130.914C77.912 130.914 78.4318 131.026 78.922 131.248L78.6008 131.996C78.0965 131.788 77.6725 131.683 77.3288 131.683C76.8048 131.683 76.5428 131.833 76.5428 132.131C76.5428 132.278 76.6104 132.402 76.7456 132.503C76.8837 132.605 77.1823 132.744 77.6415 132.922C78.0275 133.071 78.3078 133.208 78.4825 133.332C78.6572 133.455 78.7868 133.599 78.8713 133.763C78.9558 133.923 78.998 134.116 78.998 134.342ZM83 135.673L82.8014 135.022H82.7676C82.5422 135.306 82.3154 135.501 82.0872 135.605C81.859 135.706 81.566 135.757 81.2082 135.757C80.749 135.757 80.3898 135.633 80.1306 135.385C79.8742 135.137 79.746 134.787 79.746 134.333C79.746 133.851 79.9249 133.488 80.2827 133.243C80.6405 132.998 81.1857 132.864 81.9181 132.841L82.7253 132.816V132.567C82.7253 132.268 82.6549 132.045 82.514 131.899C82.376 131.75 82.1604 131.675 81.8674 131.675C81.628 131.675 81.3984 131.71 81.1786 131.781C80.9589 131.851 80.7476 131.934 80.5447 132.03L80.2236 131.32C80.4771 131.188 80.7546 131.088 81.0561 131.02C81.3575 130.95 81.6421 130.914 81.9097 130.914C82.5041 130.914 82.9521 131.044 83.2535 131.303C83.5578 131.562 83.7099 131.969 83.7099 132.524V135.673H83ZM81.5209 134.997C81.8815 134.997 82.1703 134.897 82.3872 134.696C82.607 134.494 82.7168 134.211 82.7168 133.847V133.441L82.1168 133.467C81.6491 133.484 81.3082 133.563 81.0941 133.703C80.8828 133.841 80.7772 134.054 80.7772 134.342C80.7772 134.55 80.8391 134.712 80.9631 134.827C81.0871 134.94 81.273 134.997 81.5209 134.997ZM87.4414 131.751H86.3004V135.673H85.3031V131.751H84.534V131.286L85.3031 130.982V130.678C85.3031 130.125 85.4327 129.717 85.6919 129.452C85.9511 129.185 86.3469 129.051 86.8794 129.051C87.2287 129.051 87.5724 129.108 87.9105 129.224L87.6485 129.976C87.4034 129.897 87.1695 129.858 86.947 129.858C86.7216 129.858 86.5568 129.928 86.4525 130.069C86.3511 130.207 86.3004 130.416 86.3004 130.695V130.999H87.4414V131.751ZM90.2812 135.757C89.5544 135.757 88.9853 135.546 88.5739 135.123C88.1654 134.698 87.9612 134.113 87.9612 133.37C87.9612 132.606 88.1514 132.006 88.5317 131.569C88.912 131.133 89.4346 130.914 90.0995 130.914C90.7165 130.914 91.2039 131.102 91.5617 131.476C91.9195 131.851 92.0984 132.367 92.0984 133.023V133.56H88.9839C88.9979 134.013 89.1205 134.363 89.3515 134.608C89.5825 134.85 89.9079 134.971 90.3277 134.971C90.6038 134.971 90.8602 134.946 91.0968 134.895C91.3363 134.842 91.5927 134.754 91.8659 134.633V135.44C91.6236 135.556 91.3785 135.637 91.1306 135.685C90.8827 135.733 90.5996 135.757 90.2812 135.757ZM90.0995 131.667C89.784 131.667 89.5304 131.767 89.3388 131.967C89.1501 132.167 89.0374 132.458 89.0008 132.841H91.1222C91.1165 132.455 91.0236 132.164 90.8433 131.967C90.663 131.767 90.415 131.667 90.0995 131.667Z"
            fill="#212121" fill-opacity="0.8" />
        <path
            d="M59.8082 163.21L59.0391 161.245H56.5627L55.8021 163.21H55.0752L57.5178 157.007H58.1221L60.552 163.21H59.8082ZM58.8151 160.599L58.0967 158.684C58.0037 158.442 57.908 158.145 57.8094 157.793C57.7474 158.063 57.6586 158.36 57.5431 158.684L56.8163 160.599H58.8151ZM62.3099 163.21L60.552 158.579H61.3042L62.3015 161.325C62.5269 161.968 62.6593 162.385 62.6987 162.576H62.7325C62.7635 162.427 62.8607 162.119 63.0241 161.651C63.1903 161.18 63.5608 160.156 64.1355 158.579H64.8877L63.1298 163.21H62.3099ZM69.6292 160.89C69.6292 161.645 69.439 162.235 69.0587 162.661C68.6784 163.083 68.153 163.295 67.4825 163.295C67.0683 163.295 66.7007 163.198 66.3795 163.003C66.0583 162.809 65.8104 162.53 65.6357 162.166C65.4611 161.803 65.3737 161.378 65.3737 160.89C65.3737 160.135 65.5625 159.548 65.94 159.128C66.3175 158.705 66.8415 158.494 67.512 158.494C68.16 158.494 68.6742 158.71 69.0545 159.141C69.4376 159.572 69.6292 160.155 69.6292 160.89ZM66.1006 160.89C66.1006 161.482 66.2189 161.933 66.4556 162.242C66.6922 162.552 67.0401 162.707 67.4994 162.707C67.9586 162.707 68.3065 162.554 68.5432 162.247C68.7826 161.937 68.9024 161.485 68.9024 160.89C68.9024 160.301 68.7826 159.855 68.5432 159.551C68.3065 159.243 67.9558 159.09 67.4909 159.09C67.0317 159.09 66.6852 159.241 66.4513 159.542C66.2175 159.844 66.1006 160.293 66.1006 160.89ZM71.5647 163.21H70.8632V158.579H71.5647V163.21ZM70.804 157.324C70.804 157.163 70.8435 157.046 70.9223 156.973C71.0012 156.897 71.0998 156.859 71.2182 156.859C71.3308 156.859 71.428 156.897 71.5097 156.973C71.5914 157.049 71.6323 157.166 71.6323 157.324C71.6323 157.481 71.5914 157.6 71.5097 157.678C71.428 157.755 71.3308 157.793 71.2182 157.793C71.0998 157.793 71.0012 157.755 70.9223 157.678C70.8435 157.6 70.804 157.481 70.804 157.324ZM76.2047 162.589H76.1667C75.8427 163.059 75.3581 163.295 74.713 163.295C74.1073 163.295 73.6354 163.088 73.2973 162.674C72.962 162.259 72.7944 161.671 72.7944 160.907C72.7944 160.144 72.9635 159.551 73.3015 159.128C73.6396 158.705 74.1101 158.494 74.713 158.494C75.3412 158.494 75.823 158.722 76.1582 159.179H76.2132L76.1836 158.845L76.1667 158.519V156.635H76.8682V163.21H76.2977L76.2047 162.589ZM74.8017 162.707C75.2807 162.707 75.6272 162.578 75.8413 162.319C76.0582 162.057 76.1667 161.635 76.1667 161.055V160.907C76.1667 160.251 76.0568 159.783 75.8371 159.504C75.6201 159.222 75.2722 159.081 74.7933 159.081C74.3819 159.081 74.0664 159.242 73.8467 159.563C73.6297 159.882 73.5213 160.332 73.5213 160.916C73.5213 161.507 73.6297 161.954 73.8467 162.255C74.0636 162.557 74.3819 162.707 74.8017 162.707ZM82.4591 163.295C81.7886 163.295 81.2688 163.089 80.8997 162.678C80.5335 162.264 80.3503 161.679 80.3503 160.924C80.3503 160.149 80.5363 159.551 80.9082 159.128C81.2829 158.705 81.8153 158.494 82.5055 158.494C82.7281 158.494 82.9507 158.518 83.1732 158.566C83.3958 158.614 83.5705 158.67 83.6973 158.735L83.4817 159.331C83.3268 159.269 83.1577 159.218 82.9746 159.179C82.7915 159.136 82.6295 159.115 82.4886 159.115C81.5477 159.115 81.0772 159.715 81.0772 160.916C81.0772 161.485 81.1913 161.921 81.4195 162.226C81.6505 162.53 81.9914 162.682 82.4422 162.682C82.8281 162.682 83.224 162.599 83.6296 162.433V163.054C83.3197 163.214 82.9295 163.295 82.4591 163.295ZM86.8456 158.494C87.0512 158.494 87.2357 158.511 87.3991 158.545L87.302 159.196C87.1104 159.153 86.9413 159.132 86.7948 159.132C86.4201 159.132 86.099 159.284 85.8313 159.589C85.5665 159.893 85.4341 160.272 85.4341 160.725V163.21H84.7326V158.579H85.3115L85.3918 159.436H85.4256C85.5975 159.135 85.8046 158.903 86.0469 158.739C86.2891 158.576 86.5554 158.494 86.8456 158.494ZM92.2632 160.89C92.2632 161.645 92.073 162.235 91.6927 162.661C91.3123 163.083 90.7869 163.295 90.1164 163.295C89.7023 163.295 89.3346 163.198 89.0134 163.003C88.6923 162.809 88.4444 162.53 88.2697 162.166C88.095 161.803 88.0077 161.378 88.0077 160.89C88.0077 160.135 88.1964 159.548 88.5739 159.128C88.9515 158.705 89.4755 158.494 90.146 158.494C90.794 158.494 91.3081 158.71 91.6884 159.141C92.0716 159.572 92.2632 160.155 92.2632 160.89ZM88.7345 160.89C88.7345 161.482 88.8529 161.933 89.0895 162.242C89.3262 162.552 89.6741 162.707 90.1333 162.707C90.5925 162.707 90.9405 162.554 91.1771 162.247C91.4166 161.937 91.5363 161.485 91.5363 160.89C91.5363 160.301 91.4166 159.855 91.1771 159.551C90.9405 159.243 90.5897 159.09 90.1249 159.09C89.6656 159.09 89.3191 159.241 89.0853 159.542C88.8514 159.844 88.7345 160.293 88.7345 160.89ZM97.2793 163.21L96.4299 160.493C96.3764 160.327 96.2764 159.949 96.1299 159.36H96.0961C95.9834 159.853 95.8848 160.234 95.8002 160.501L94.9255 163.21H94.1141L92.8506 158.579H93.5859C93.8845 159.742 94.1113 160.628 94.2662 161.237C94.424 161.845 94.5142 162.255 94.5367 162.466H94.5705C94.6015 162.306 94.6508 162.099 94.7184 161.845C94.7888 161.589 94.8494 161.386 94.9001 161.237L95.7495 158.579H96.5102L97.3385 161.237C97.4962 161.721 97.6033 162.128 97.6596 162.458H97.6935C97.7047 162.357 97.7343 162.2 97.7822 161.989C97.8329 161.778 98.1273 160.641 98.6654 158.579H99.3923L98.1118 163.21H97.2793ZM103.386 162.589H103.348C103.024 163.059 102.539 163.295 101.894 163.295C101.288 163.295 100.816 163.088 100.478 162.674C100.143 162.259 99.9754 161.671 99.9754 160.907C99.9754 160.144 100.144 159.551 100.483 159.128C100.821 158.705 101.291 158.494 101.894 158.494C102.522 158.494 103.004 158.722 103.339 159.179H103.394L103.365 158.845L103.348 158.519V156.635H104.049V163.21H103.479L103.386 162.589ZM101.983 162.707C102.462 162.707 102.808 162.578 103.022 162.319C103.239 162.057 103.348 161.635 103.348 161.055V160.907C103.348 160.251 103.238 159.783 103.018 159.504C102.801 159.222 102.453 159.081 101.974 159.081C101.563 159.081 101.247 159.242 101.028 159.563C100.811 159.882 100.702 160.332 100.702 160.916C100.702 161.507 100.811 161.954 101.028 162.255C101.245 162.557 101.563 162.707 101.983 162.707Z"
            fill="#212121" fill-opacity="0.5" />
        <path d="M55.0752 161.11H104.793V161.541H55.0752V161.11Z" fill="#212121" fill-opacity="0.5" />
        <rect x="94.9907" y="35.9818" width="44.4808" height="17.73" rx="8.86501" fill="#ED8C6B" stroke="#ED8C6B"
            stroke-width="1.15286" />
        <rect x="229.532" y="35.9818" width="44.4808" height="17.73" rx="8.86501" stroke="#ED8C6B"
            stroke-width="1.15286" />
        <rect x="39.9158" y="35.9818" width="44.4808" height="17.73" rx="8.86501" fill="#ED8C6B" stroke="#ED8C6B"
            stroke-width="1.15286" />
        <path
            d="M107.975 43.2421C107.975 43.8873 107.764 44.3817 107.341 44.7254C106.919 45.0691 106.317 45.241 105.537 45.241H104.895V47.5526H103.885V41.3743H105.664C106.436 41.3743 107.013 41.532 107.396 41.8476C107.782 42.1631 107.975 42.628 107.975 43.2421ZM104.895 44.3916H105.431C105.95 44.3916 106.33 44.3014 106.572 44.1211C106.815 43.9408 106.936 43.6591 106.936 43.2759C106.936 42.921 106.827 42.6561 106.61 42.4815C106.393 42.3068 106.055 42.2195 105.596 42.2195H104.895V44.3916ZM111.474 42.7942C111.674 42.7942 111.839 42.8083 111.969 42.8364L111.872 43.7619C111.731 43.7281 111.584 43.7112 111.432 43.7112C111.035 43.7112 110.712 43.8408 110.464 44.1C110.219 44.3592 110.097 44.6958 110.097 45.11V47.5526H109.104V42.8787H109.881L110.012 43.7028H110.063C110.218 43.4238 110.419 43.2027 110.667 43.0393C110.918 42.8759 111.187 42.7942 111.474 42.7942ZM116.985 45.2072C116.985 45.9707 116.789 46.5665 116.398 46.9947C116.006 47.423 115.461 47.6371 114.762 47.6371C114.325 47.6371 113.94 47.5385 113.604 47.3413C113.269 47.144 113.011 46.8609 112.831 46.4918C112.651 46.1228 112.56 45.6946 112.56 45.2072C112.56 44.4493 112.755 43.8577 113.144 43.4323C113.532 43.0069 114.08 42.7942 114.788 42.7942C115.464 42.7942 115.999 43.0125 116.393 43.4492C116.788 43.8831 116.985 44.469 116.985 45.2072ZM113.583 45.2072C113.583 46.2862 113.982 46.8257 114.779 46.8257C115.568 46.8257 115.962 46.2862 115.962 45.2072C115.962 44.1394 115.565 43.6056 114.771 43.6056C114.354 43.6056 114.051 43.7436 113.862 44.0197C113.676 44.2958 113.583 44.6916 113.583 45.2072ZM120.476 43.6309H119.335V47.5526H118.337V43.6309H117.568V43.1661L118.337 42.8618V42.5575C118.337 42.0053 118.467 41.5968 118.726 41.332C118.985 41.0644 119.381 40.9306 119.914 40.9306C120.263 40.9306 120.607 40.9883 120.945 41.1038L120.683 41.856C120.438 41.7771 120.204 41.7377 119.981 41.7377C119.756 41.7377 119.591 41.8081 119.487 41.949C119.385 42.087 119.335 42.2955 119.335 42.5744V42.8787H120.476V43.6309ZM122.263 47.5526H121.27V42.8787H122.263V47.5526ZM121.211 41.6405C121.211 41.463 121.259 41.3264 121.355 41.2306C121.453 41.1348 121.593 41.0869 121.773 41.0869C121.948 41.0869 122.083 41.1348 122.179 41.2306C122.277 41.3264 122.327 41.463 122.327 41.6405C122.327 41.8095 122.277 41.9434 122.179 42.042C122.083 42.1378 121.948 42.1857 121.773 42.1857C121.593 42.1857 121.453 42.1378 121.355 42.042C121.259 41.9434 121.211 41.8095 121.211 41.6405ZM124.685 47.5526H123.692V40.977H124.685V47.5526ZM128.15 47.6371C127.423 47.6371 126.854 47.4258 126.443 47.0032C126.034 46.5778 125.83 45.9932 125.83 45.2494C125.83 44.486 126.02 43.8859 126.4 43.4492C126.781 43.0125 127.303 42.7942 127.968 42.7942C128.585 42.7942 129.072 42.9815 129.43 43.3562C129.788 43.7309 129.967 44.2465 129.967 44.9029V45.4396H126.852C126.867 45.8932 126.989 46.2425 127.22 46.4876C127.451 46.7299 127.777 46.8511 128.196 46.8511C128.472 46.8511 128.729 46.8257 128.965 46.775C129.205 46.7215 129.461 46.6341 129.735 46.513V47.3201C129.492 47.4356 129.247 47.5173 128.999 47.5652C128.751 47.6131 128.468 47.6371 128.15 47.6371ZM127.968 43.5464C127.653 43.5464 127.399 43.6464 127.207 43.8464C127.019 44.0465 126.906 44.338 126.869 44.7212H128.991C128.985 44.3352 128.892 44.0436 128.712 43.8464C128.532 43.6464 128.284 43.5464 127.968 43.5464Z"
            fill="white" />
        <path
            d="M238.425 47.5526V41.3743H239.435V46.6862H242.051V47.5526H238.425ZM247.156 45.2072C247.156 45.9707 246.96 46.5665 246.569 46.9947C246.177 47.423 245.632 47.6371 244.933 47.6371C244.496 47.6371 244.11 47.5385 243.775 47.3413C243.44 47.144 243.182 46.8609 243.002 46.4918C242.822 46.1228 242.731 45.6946 242.731 45.2072C242.731 44.4493 242.926 43.8577 243.315 43.4323C243.703 43.0069 244.251 42.7942 244.958 42.7942C245.635 42.7942 246.17 43.0125 246.564 43.4492C246.959 43.8831 247.156 44.469 247.156 45.2072ZM243.754 45.2072C243.754 46.2862 244.153 46.8257 244.95 46.8257C245.739 46.8257 246.133 46.2862 246.133 45.2072C246.133 44.1394 245.736 43.6056 244.942 43.6056C244.525 43.6056 244.222 43.7436 244.033 44.0197C243.847 44.2958 243.754 44.6916 243.754 45.2072ZM252.248 42.8787V43.4238L251.449 43.5717C251.523 43.6704 251.583 43.7915 251.631 43.9352C251.679 44.0789 251.703 44.231 251.703 44.3916C251.703 44.8733 251.537 45.2523 251.204 45.5283C250.872 45.8044 250.414 45.9425 249.831 45.9425C249.682 45.9425 249.546 45.9312 249.425 45.9087C249.211 46.0411 249.104 46.196 249.104 46.3735C249.104 46.4806 249.153 46.5609 249.252 46.6144C249.353 46.6679 249.538 46.6947 249.806 46.6947H250.621C251.137 46.6947 251.528 46.8046 251.796 47.0243C252.064 47.2441 252.197 47.561 252.197 47.9751C252.197 48.5048 251.979 48.9133 251.542 49.2007C251.106 49.488 250.475 49.6317 249.649 49.6317C249.013 49.6317 248.527 49.519 248.191 49.2936C247.856 49.0682 247.688 48.7471 247.688 48.3301C247.688 48.0428 247.779 47.8005 247.959 47.6033C248.142 47.4089 248.397 47.2736 248.724 47.1976C248.591 47.1412 248.481 47.0511 248.394 46.9271C248.31 46.8003 248.267 46.6679 248.267 46.5299C248.267 46.3552 248.317 46.2073 248.415 46.0862C248.514 45.965 248.66 45.8453 248.855 45.727C248.612 45.6227 248.415 45.4537 248.263 45.2199C248.114 44.9832 248.039 44.7071 248.039 44.3916C248.039 43.8845 248.198 43.4915 248.517 43.2125C248.838 42.9336 249.294 42.7942 249.886 42.7942C250.018 42.7942 250.156 42.804 250.3 42.8238C250.447 42.8407 250.556 42.859 250.63 42.8787H252.248ZM248.576 48.2794C248.576 48.4935 248.672 48.6583 248.863 48.7738C249.058 48.8893 249.329 48.9471 249.679 48.9471C250.22 48.9471 250.623 48.8696 250.887 48.7147C251.152 48.5597 251.285 48.3541 251.285 48.0977C251.285 47.8948 251.211 47.7498 251.065 47.6624C250.921 47.5779 250.652 47.5356 250.258 47.5356H249.506C249.221 47.5356 248.994 47.6019 248.825 47.7343C248.659 47.8695 248.576 48.0512 248.576 48.2794ZM249.003 44.3916C249.003 44.6846 249.077 44.91 249.227 45.0677C249.379 45.2255 249.596 45.3044 249.877 45.3044C250.452 45.3044 250.74 44.9973 250.74 44.3831C250.74 44.0789 250.668 43.845 250.524 43.6816C250.383 43.5154 250.168 43.4323 249.877 43.4323C249.59 43.4323 249.372 43.514 249.222 43.6774C249.076 43.8408 249.003 44.0789 249.003 44.3916ZM257.264 45.2072C257.264 45.9707 257.069 46.5665 256.677 46.9947C256.285 47.423 255.74 47.6371 255.041 47.6371C254.605 47.6371 254.219 47.5385 253.884 47.3413C253.548 47.144 253.291 46.8609 253.11 46.4918C252.93 46.1228 252.84 45.6946 252.84 45.2072C252.84 44.4493 253.034 43.8577 253.423 43.4323C253.812 43.0069 254.36 42.7942 255.067 42.7942C255.743 42.7942 256.278 43.0125 256.673 43.4492C257.067 43.8831 257.264 44.469 257.264 45.2072ZM253.862 45.2072C253.862 46.2862 254.261 46.8257 255.058 46.8257C255.847 46.8257 256.242 46.2862 256.242 45.2072C256.242 44.1394 255.844 43.6056 255.05 43.6056C254.633 43.6056 254.33 43.7436 254.141 44.0197C253.955 44.2958 253.862 44.6916 253.862 45.2072ZM261.706 47.5526L261.566 46.9398H261.516C261.378 47.1567 261.18 47.3272 260.924 47.4511C260.67 47.5751 260.38 47.6371 260.053 47.6371C259.487 47.6371 259.065 47.4962 258.786 47.2145C258.507 46.9328 258.367 46.5059 258.367 45.934V42.8787H259.369V45.7608C259.369 46.1186 259.442 46.3876 259.589 46.5679C259.735 46.7454 259.965 46.8341 260.277 46.8341C260.694 46.8341 261 46.7102 261.194 46.4623C261.392 46.2115 261.49 45.7932 261.49 45.2072V42.8787H262.488V47.5526H261.706ZM265.644 46.8341C265.887 46.8341 266.129 46.7961 266.371 46.72V47.468C266.261 47.5159 266.119 47.5554 265.944 47.5864C265.772 47.6202 265.594 47.6371 265.408 47.6371C264.467 47.6371 263.996 47.1412 263.996 46.1496V43.6309H263.358V43.1914L264.043 42.828L264.381 41.8391H264.993V42.8787H266.325V43.6309H264.993V46.1326C264.993 46.3721 265.053 46.5496 265.171 46.6651C265.292 46.7778 265.45 46.8341 265.644 46.8341Z"
            fill="#ED8C6B" />
        <path
            d="M55.2557 47.5526H54.2415V44.7677H51.3932V47.5526H50.3832V41.3743H51.3932V43.9014H54.2415V41.3743H55.2557V47.5526ZM60.9226 45.2072C60.9226 45.9707 60.7268 46.5665 60.3352 46.9947C59.9436 47.423 59.3985 47.6371 58.6998 47.6371C58.2631 47.6371 57.8772 47.5385 57.5419 47.3413C57.2067 47.144 56.9489 46.8609 56.7686 46.4918C56.5883 46.1228 56.4981 45.6946 56.4981 45.2072C56.4981 44.4493 56.6925 43.8577 57.0813 43.4323C57.4701 43.0069 58.018 42.7942 58.7252 42.7942C59.4013 42.7942 59.9366 43.0125 60.331 43.4492C60.7254 43.8831 60.9226 44.469 60.9226 45.2072ZM57.5208 45.2072C57.5208 46.2862 57.9194 46.8257 58.7167 46.8257C59.5055 46.8257 59.9 46.2862 59.9 45.2072C59.9 44.1394 59.5027 43.6056 58.7083 43.6056C58.2913 43.6056 57.9884 43.7436 57.7997 44.0197C57.6138 44.2958 57.5208 44.6916 57.5208 45.2072ZM66.0064 47.5526H65.0091V44.6705C65.0091 44.3127 64.9415 44.0465 64.8062 43.8718C64.671 43.6943 64.4597 43.6056 64.1724 43.6056C63.7892 43.6056 63.5075 43.7309 63.3272 43.9817C63.1497 44.2296 63.0609 44.6437 63.0609 45.2241V47.5526H62.0679V42.8787H62.8454L62.9849 43.4915H63.0356C63.1652 43.2689 63.3525 43.097 63.5976 42.9759C63.8456 42.8548 64.1174 42.7942 64.4132 42.7942C65.1316 42.7942 65.6078 43.0393 65.8416 43.5295H65.9092C66.0472 43.2985 66.2416 43.1182 66.4924 42.9886C66.7431 42.859 67.0305 42.7942 67.3545 42.7942C67.9123 42.7942 68.318 42.935 68.5715 43.2168C68.8279 43.4985 68.9561 43.9281 68.9561 44.5057V47.5526H67.963V44.6705C67.963 44.3127 67.894 44.0465 67.7559 43.8718C67.6207 43.6943 67.4094 43.6056 67.122 43.6056C66.7361 43.6056 66.4529 43.7267 66.2726 43.969C66.0951 44.2085 66.0064 44.5775 66.0064 45.0762V47.5526ZM72.3833 47.6371C71.6564 47.6371 71.0873 47.4258 70.676 47.0032C70.2675 46.5778 70.0633 45.9932 70.0633 45.2494C70.0633 44.486 70.2534 43.8859 70.6338 43.4492C71.0141 43.0125 71.5367 42.7942 72.2016 42.7942C72.8186 42.7942 73.3059 42.9815 73.6637 43.3562C74.0215 43.7309 74.2004 44.2465 74.2004 44.9029V45.4396H71.0859C71.1 45.8932 71.2226 46.2425 71.4536 46.4876C71.6846 46.7299 72.01 46.8511 72.4298 46.8511C72.7059 46.8511 72.9622 46.8257 73.1989 46.775C73.4384 46.7215 73.6947 46.6341 73.968 46.513V47.3201C73.7257 47.4356 73.4806 47.5173 73.2327 47.5652C72.9848 47.6131 72.7016 47.6371 72.3833 47.6371ZM72.2016 43.5464C71.886 43.5464 71.6325 43.6464 71.4409 43.8464C71.2522 44.0465 71.1395 44.338 71.1028 44.7212H73.2242C73.2186 44.3352 73.1256 44.0436 72.9453 43.8464C72.765 43.6464 72.5171 43.5464 72.2016 43.5464Z"
            fill="white" />
        <circle cx="42.4865" cy="105.429" r="2.83243" stroke="#212121" stroke-opacity="0.3" stroke-width="0.629429" />
        <circle cx="41.6996" cy="132.967" r="2.83243" stroke="#212121" stroke-opacity="0.3" stroke-width="0.629429" />
        <circle cx="41.6996" cy="160.505" r="2.83243" stroke="#399A16" stroke-opacity="0.3" stroke-width="0.629429" />
    </g>
    <rect x="0.5" y="0.5" width="261" height="193" rx="7.36787" stroke="#CECECE" />
    <defs>
        <filter id="filter0_d" x="4.18458" y="-0.536121" width="280.382" height="216.652" filterUnits="userSpaceOnUse"
            color-interpolation-filters="sRGB">
            <feFlood flood-opacity="0" result="BackgroundImageFix" />
            <feColorMatrix in="SourceAlpha" type="matrix" values="0 0 0 0 0 0 0 0 0 0 0 0 0 0 0 0 0 0 127 0" />
            <feOffset />
            <feGaussianBlur stdDeviation="11.2831" />
            <feColorMatrix type="matrix" values="0 0 0 0 0 0 0 0 0 0 0 0 0 0 0 0 0 0 0.1 0" />
            <feBlend mode="normal" in2="BackgroundImageFix" result="effect1_dropShadow" />
            <feBlend mode="normal" in="SourceGraphic" in2="effect1_dropShadow" result="shape" />
        </filter>
    </defs>
</svg>