<svg width="300" height="90" viewBox="0 0 300 90" fill="none" xmlns="http://www.w3.org/2000/svg">
<path d="M97.2202 18.2516H112.614C118.57 18.2932 123.037 20.8472 126.015 25.9147C127.081 27.6178 127.754 29.4035 128.036 31.2729C128.257 33.1424 128.367 36.3718 128.367 40.9614C128.367 45.8418 128.196 49.2478 127.854 51.1801C127.693 52.1555 127.451 53.028 127.13 53.7964C126.787 54.5438 126.375 55.3229 125.892 56.1329C124.604 58.272 122.814 60.0367 120.52 61.4286C118.246 62.9238 115.459 63.6712 112.16 63.6712H97.2205V18.2516H97.2202ZM103.88 57.1951H111.857C115.603 57.1951 118.321 55.8732 120.015 53.23C120.76 52.2524 121.233 51.0134 121.434 49.5152C121.615 48.0368 121.706 45.2697 121.706 41.2109C121.706 37.2569 121.615 34.4272 121.434 32.7193C121.193 31.0132 120.619 29.6294 119.713 28.5678C117.859 25.9245 115.24 24.6448 111.857 24.728H103.88V57.1951Z" fill="black"/>
<path d="M157.637 60.2959C155.567 62.7132 152.874 63.9624 149.557 64.0462C147.528 64.0037 145.839 63.5564 144.493 62.7051C143.085 61.8951 142.011 61.022 141.266 60.0861C140.442 59.0266 139.849 57.7271 139.487 56.1892C139.105 54.6722 138.915 51.7836 138.915 47.5228C138.915 43.1792 139.105 40.2388 139.487 38.7003C139.849 37.1842 140.442 35.9051 141.266 34.8665C142.011 33.8546 143.085 32.9456 144.493 32.1386C145.839 31.3753 147.528 30.972 149.557 30.9307C152.672 30.9307 155.366 32.2077 157.637 34.7621V31.3358H163.923V62.893C163.843 67.7528 162.488 71.3251 159.856 73.6099C157.205 75.9569 154.03 77.1295 150.334 77.1295C146.096 77.0469 142.48 75.2436 139.487 71.7206L144.371 67.7097C145.175 68.4826 146.099 69.1396 147.144 69.6827C148.21 70.288 149.315 70.6109 150.461 70.6534C152.611 70.6534 154.341 70.0376 155.647 68.8072C156.933 67.5553 157.596 65.8238 157.637 63.6126V60.2959H157.637ZM145.202 47.5342C145.202 50.0141 145.282 51.7238 145.444 52.6609C145.584 53.6402 145.916 54.4535 146.439 55.0995C146.861 55.6832 147.506 56.2143 148.371 56.6934C149.195 57.2771 150.222 57.5688 151.449 57.5688C152.677 57.5688 153.703 57.2771 154.528 56.6934C155.353 56.214 155.977 55.6829 156.401 55.0995C156.922 54.4535 157.276 53.6402 157.457 52.6609C157.578 51.7241 157.637 50.0144 157.637 47.5342C157.637 45.0127 157.578 43.2627 157.457 42.2833C157.276 41.304 156.922 40.5123 156.401 39.9079C155.977 39.3241 155.353 38.7509 154.528 38.1877C153.703 37.7093 152.677 37.4487 151.449 37.4071C150.222 37.4487 149.195 37.7093 148.371 38.1877C147.506 38.7509 146.861 39.3241 146.439 39.9079C145.916 40.5123 145.584 41.304 145.444 42.2833C145.282 43.2627 145.202 45.013 145.202 47.5342Z" fill="black"/>
<path d="M176.341 31.3352H182.628V34.7614H182.76C184.833 32.2071 187.549 30.93 190.909 30.93C193.425 30.9716 195.619 31.7995 197.491 33.4135L192.899 39.0309C191.57 37.9486 190.19 37.4071 188.761 37.4071C187.15 37.4071 185.77 37.9474 184.622 39.0291C183.334 40.0895 182.668 41.8055 182.628 44.1758V63.6706H176.341V31.3352Z" fill="black"/>
<path d="M219.655 60.8069H219.534C218.951 61.9068 218.047 62.7167 216.821 63.2356C215.614 63.7754 213.945 64.0458 211.815 64.0458C208.315 64.0034 205.621 63.0489 203.731 61.1797C201.74 59.3524 200.746 57.0168 200.746 54.1707C200.746 51.4514 201.611 49.1978 203.339 47.4112C205.068 45.5848 207.601 44.6507 210.939 44.6082H219.655V41.196C219.697 38.3373 217.554 36.9499 213.228 37.0328C211.659 37.0328 210.423 37.2003 209.517 37.5336C208.571 37.9298 207.827 38.5982 207.286 39.5369L202.336 35.639C204.728 32.4165 208.256 30.8472 212.918 30.9294C216.858 30.8879 220.003 31.6565 222.355 33.2343C224.707 34.8551 225.902 37.6381 225.942 41.5832V63.6703H219.655V60.8069H219.655ZM219.655 49.9614H212.1C208.431 50.0452 206.617 51.3428 206.659 53.8583C206.659 54.9591 207.132 55.8944 208.079 56.6637C208.987 57.5159 210.488 57.9416 212.582 57.9416C215.222 57.9841 217.086 57.6616 218.174 56.9764C219.162 56.29 219.655 54.7323 219.655 52.2997V49.9614Z" fill="black"/>
<path d="M238.296 31.3352H244.583V34.6992C246.675 32.2908 249.369 31.0336 252.667 30.93C256.507 31.0336 259.311 32.4458 261.08 35.1672C261.942 36.1848 262.534 37.5235 262.855 39.185C263.156 40.8264 263.306 43.6097 263.306 47.5342C263.306 51.356 263.155 54.0971 262.854 55.7586C262.532 57.4204 261.94 58.7803 261.076 59.8398C260.211 61.0848 259.075 62.0824 257.668 62.8301C256.281 63.5991 254.614 64.0036 252.663 64.0458C251.055 64.0458 249.619 63.6832 248.352 62.9603C246.985 62.2996 245.73 61.39 244.584 60.2333V76.7554H238.297V31.3352H238.296ZM250.771 57.5688C252.26 57.5688 253.437 57.2771 254.303 56.6933C255.168 56.0889 255.781 55.3187 256.145 54.3801C256.545 53.4008 256.817 52.3174 256.959 51.1292C256.999 49.9626 257.019 48.7642 257.019 47.5345C257.019 46.2431 256.999 44.9819 256.959 43.7524C256.817 42.523 256.545 41.4392 256.145 40.5018C255.781 39.5222 255.168 38.7511 254.303 38.188C253.437 37.6674 252.26 37.4074 250.771 37.4074C249.363 37.4074 248.245 37.7096 247.421 38.3137C246.555 38.9187 245.921 39.7095 245.519 40.6894C245.137 41.6687 244.886 42.7315 244.765 43.8775C244.644 45.0872 244.583 46.3056 244.583 47.5345C244.583 48.6813 244.644 49.827 244.765 50.9739C244.886 52.1818 245.137 53.276 245.519 54.255C245.921 55.235 246.555 56.0261 247.421 56.6305C248.245 57.2555 249.363 57.5688 250.771 57.5688Z" fill="black"/>
<path d="M274.602 18.2516H280.889V34.7614H281.009C283.079 32.2071 285.793 30.93 289.149 30.93C291.742 30.93 294.114 31.8756 296.264 33.7648C298.395 35.6761 299.51 38.4794 299.611 42.1759V63.6706H293.325V44.394C293.325 42.1274 292.74 40.4013 291.573 39.2155C290.426 38.0091 288.948 37.4065 287.136 37.4065C285.325 37.4065 283.837 38.0091 282.67 39.2155C281.482 40.401 280.889 42.1271 280.889 44.394V63.6706H274.602V18.2516H274.602Z" fill="black"/>
<path d="M61.596 16.1961C62.4446 14.6444 62.9053 12.8502 62.9053 10.9348C62.9053 4.89763 58.0077 0 51.9705 0C46.8304 0 42.5147 3.53987 41.3266 8.31627C40.3083 8.26778 39.29 8.19504 38.2717 8.19504C17.3476 8.19504 0.399902 25.1185 0.399902 46.0668C0.399902 56.347 4.52167 65.6816 11.165 72.4946C9.78298 74.3373 8.95863 76.6164 8.95863 79.0652C8.95863 85.1024 13.8563 90 19.8934 90C24.5486 90 28.5007 87.0663 30.1251 82.993C32.7679 83.5991 35.4592 83.8901 38.2717 83.8901C59.1957 83.8901 76.1434 66.9666 76.1434 46.0183C76.1919 33.8955 70.5184 23.1304 61.596 16.1961ZM52.019 17.6266C51.4128 17.6266 50.8794 17.5781 50.346 17.3842L45.8121 30.5981L52.4554 29.5312L43.1208 44.7818L50.9037 42.8664L24.6456 74.1433C25.9549 75.3314 26.7307 77.077 26.7307 79.0409C26.7307 82.7505 23.7485 85.7327 20.0389 85.7327C16.3293 85.7327 13.3471 82.7505 13.3471 79.0409C13.3471 75.3314 16.3293 72.3491 20.0389 72.3491C20.8875 72.3491 21.7119 72.5189 22.4877 72.8341L29.9069 56.6137L22.6574 58.5776L34.4408 41.7026L27.1914 43.4483L47.7275 16.1234C46.2243 14.8626 45.3272 13.0199 45.3272 10.9833C45.3272 7.27371 48.3094 4.29149 52.019 4.29149C55.7286 4.29149 58.7108 7.27371 58.7108 10.9833C58.735 14.6201 55.7286 17.6266 52.019 17.6266Z" fill="url(#paint0_linear)"/>
<defs>
<linearGradient id="paint0_linear" x1="0.407419" y1="44.9879" x2="76.1359" y2="44.9879" gradientUnits="userSpaceOnUse">
<stop stop-color="#FF4200"/>
<stop offset="1" stop-color="#E50695"/>
</linearGradient>
</defs>
</svg>
